<?xml version="1.0" encoding="UTF-8" standalone="no"?>
<!-- Created with Inkscape (http://www.inkscape.org/) -->

<svg
   xmlns:dc="http://purl.org/dc/elements/1.1/"
   xmlns:cc="http://creativecommons.org/ns#"
   xmlns:rdf="http://www.w3.org/1999/02/22-rdf-syntax-ns#"
   xmlns:svg="http://www.w3.org/2000/svg"
   xmlns="http://www.w3.org/2000/svg"
   xmlns:sodipodi="http://sodipodi.sourceforge.net/DTD/sodipodi-0.dtd"
   xmlns:inkscape="http://www.inkscape.org/namespaces/inkscape"
   width="403.37836mm"
   height="211.66664mm"
   viewBox="0 0 403.37836 211.66664"
   version="1.1"
   id="svg4842"
   inkscape:version="0.92.1 r15371"
   sodipodi:docname="drill-wood.svg">
  <defs
     id="defs4836" />
  <sodipodi:namedview
     id="base"
     pagecolor="#ffffff"
     bordercolor="#666666"
     borderopacity="1.0"
     inkscape:pageopacity="0.0"
     inkscape:pageshadow="2"
     inkscape:zoom="0.35"
     inkscape:cx="1625.2619"
     inkscape:cy="442.8571"
     inkscape:document-units="mm"
     inkscape:current-layer="layer1"
     showgrid="false"
     fit-margin-top="0"
     fit-margin-left="0"
     fit-margin-right="0"
     fit-margin-bottom="0"
     inkscape:pagecheckerboard="false"
     inkscape:window-width="1920"
     inkscape:window-height="1018"
     inkscape:window-x="-8"
     inkscape:window-y="-8"
     inkscape:window-maximized="1" />
  <metadata
     id="metadata4839">
    <rdf:RDF>
      <cc:Work
         rdf:about="">
        <dc:format>image/svg+xml</dc:format>
        <dc:type
           rdf:resource="http://purl.org/dc/dcmitype/StillImage" />
        <dc:title></dc:title>
      </cc:Work>
    </rdf:RDF>
  </metadata>
  <g
     inkscape:label="Camada 1"
     inkscape:groupmode="layer"
     id="layer1"
     transform="translate(463.6571,-54.339296)">
    <g
       id="g5608"
       transform="matrix(4.3303705,0,0,4.3303705,-463.6571,62.072618)"
       style="clip-rule:evenodd;fill-rule:evenodd">
      <path
         id="path5586"
         d="m 34.65,38.35 c 0.067,-0.033 0.117,-0.05 0.15,-0.05 2.767,-1.366 5.1,-2.583 7,-3.649 0.7,-0.4 1.667,-0.95 2.9,-1.65 3.934,-2.267 10.5,-6.2 19.7,-11.8 L 83.95,9.4 H 83.9 c 2.933,-1.8 6.017,-3.683 9.25,-5.65 v 3.5 c -29.3,17.9 -46.417,28.2 -51.35,30.9 -3.033,1.633 -6.35,3.366 -9.95,5.199 L 27.3,45.6 C 27.234,45 27.217,44.284 27.25,43.451 v -0.4 l 0.05,-0.55 c 0.034,0 0.067,0.017 0.1,0.05 l 0.75,-0.35 z m -7.7,7.2 -1.75,-0.25 c -0.733,-0.133 -1.45,-0.25 -2.15,-0.35 l -1,-0.2 c 0.2,0.033 0.4,0.066 0.6,0.1 1.233,0.2 2.467,0.4 3.7,0.601 0.2,0.032 0.4,0.066 0.6,0.099 z M 7.5,42.2 c 0.267,0.066 0.55,0.133 0.85,0.2 L 6.95,42.15 C 6.75,42.083 6.55,42.033 6.35,42 H 6.5 c 0.133,0.033 0.267,0.066 0.4,0.1 z M 87.3,9.45 c -1.333,0.8 -2.783,1.767 -4.35,2.9 L 81,13.8 l 4.8,-5 -5.3,3.5 c -6,4 -11.167,7.333 -15.5,10 -2.566,1.601 -7.316,4.334 -14.25,8.2 -10.067,5.7 -15.433,8.733 -16.1,9.1 -2.467,1.434 -4.083,2.601 -4.85,3.5 l 1,-0.5 C 35.5,40.267 43.417,35.951 54.55,29.651 65.583,23.417 74.4,18.133 81,13.8 c 2.4,-1.567 4.5,-3.017 6.3,-4.35 z"
         inkscape:connector-curvature="0"
         style="fill:#755e2f" />
      <path
         id="path5588"
         d="m 91.05,3.65 c 0.5,0 1.017,0.033 1.55,0.1 h 0.551 C 89.917,5.717 86.833,7.6 83.9,9.4 c -0.5,0.267 -1,0.533 -1.5,0.8 1,-0.633 2.033,-1.267 3.1,-1.9 l 1.9,-1.25 -7.8,4.65 c -4.433,2.4 -9.666,5.4 -15.699,9 -8.5,5.1 -14.2,8.5 -17.101,10.2 l -4.05,2.5 c -1.367,0.733 -2.917,1.566 -4.65,2.5 -6.8,3.733 -10.317,5.649 -10.55,5.75 h -0.2 l -0.4,-0.051 c -0.167,-0.033 -0.317,-0.066 -0.45,-0.1 0.233,-0.134 0.533,-0.316 0.9,-0.55 2.667,-1.601 8.7,-5.283 18.1,-11.05 7.7,-4.7 14.167,-8.567 19.4,-11.601 8.399,-4.867 17.066,-9.716 26,-14.55 0.034,-0.065 0.083,-0.098 0.15,-0.098 z m -5.6,-0.5 c -0.566,0.3 -1.117,0.6 -1.65,0.9 -0.8,0.467 -1.566,0.9 -2.3,1.3 L 76.75,7.8 83.6,2.9 Z M 0.35,36.8 0.3,36.85 0.1,37 C 0.067,36.967 0.033,36.95 0,36.95 Z m 12.1,-5.4 -3.8,1.7 h -0.1 c 1.367,-0.633 2.667,-1.2 3.9,-1.7 z m 8.15,-3.5 c -0.333,0.233 -0.633,0.466 -0.9,0.699 -0.1,0.067 -0.184,0.117 -0.25,0.15 -3.333,1.9 -5.967,3.5 -7.9,4.8 -0.433,0.3 -2.483,1.75 -6.15,4.351 l -3.75,-0.65 1.3,-0.9 c 0.367,0 0.9,-0.116 1.6,-0.35 0.667,-0.2 1.217,-0.417 1.65,-0.65 1.1,-0.533 2.65,-1.399 4.65,-2.6 2.033,-1.233 3.566,-2.116 4.6,-2.65 l 0.75,-0.4 c 1.667,-0.7 3.133,-1.3 4.4,-1.8 z m 33.05,-6.95 c 0.267,-0.1 0.517,-0.2 0.75,-0.3 l -2.95,2.2 -4.3,2.45 c -1.767,0.9 -3.734,2.017 -5.9,3.351 1.833,-1.2 3.567,-2.284 5.2,-3.25 2.633,-1.535 5.033,-3.018 7.2,-4.451 z m -33.05,8.1 c -1.167,0.767 -2.184,1.634 -3.05,2.601 l -0.95,1 L 27.7,26 c 5.7,-2.2 9.966,-4.333 12.8,-6.4 1.667,-1.233 6.316,-3.983 13.95,-8.25 8.7,-4.9 14.366,-8.167 17,-9.8 h 0.05 c -0.066,0.067 -0.184,0.2 -0.35,0.4 -9.334,5.7 -16.65,10.066 -21.95,13.1 l -29,16.4 c -2.867,2.133 -5.583,4.3 -8.15,6.5 -0.333,0.267 -0.633,0.533 -0.9,0.8 -0.066,0.033 -0.117,0.066 -0.15,0.1 L 7.15,38.2 7.45,37.9 c 2.667,-1.733 5.05,-3.417 7.15,-5.051 0.867,-0.632 2.867,-1.899 6,-3.799 z m -7.35,6.25 c 1.3,-0.833 2.417,-1.717 3.35,-2.649 L 11.65,35.6 c -0.7,0.301 -1.233,0.534 -1.6,0.7 -0.7,0.367 -1.117,0.75 -1.25,1.15 0.367,0.033 0.733,-0.033 1.1,-0.2 0.2,-0.1 0.5,-0.3 0.9,-0.6 0.267,-0.167 0.717,-0.351 1.35,-0.551 z m 0.4,4 0.05,-0.05 c 0.2,-0.134 1.05,-0.717 2.55,-1.75 1.033,-0.733 1.85,-1.384 2.45,-1.95 l 0.2,-0.35 c -0.6,0.2 -1.033,0.35 -1.3,0.45 -0.567,0.199 -1.383,0.666 -2.45,1.399 -1.333,0.9 -2.267,1.566 -2.8,2 L 15.9,36 c 2.467,-2.066 5.55,-4.134 9.25,-6.2 0,-0.033 0.017,-0.05 0.05,-0.05 0.9,-0.5 2.1,-1.15 3.6,-1.95 2.367,-1.333 5.5,-3.066 9.4,-5.2 2.233,-1.267 4.583,-2.6 7.05,-4 0.2,0.066 0.467,0.066 0.8,0 0.634,-0.133 1.417,-0.467 2.351,-1 0.5,-0.3 1.233,-0.75 2.199,-1.35 0.834,-0.467 2.017,-1.217 3.551,-2.25 1.566,-1.067 2.75,-1.833 3.55,-2.3 l 1,-0.55 -5.5,2.75 c 4.633,-2.8 9.616,-5.833 14.95,-9.1 -0.034,0.034 -0.067,0.067 -0.101,0.1 l 0.5,-0.35 c 0.9,-0.367 2.334,-1.25 4.3,-2.65 l 0.25,-0.15 1.15,0.1 C 71.283,3.717 67.9,5.967 64.1,8.6 c -1.533,1.033 -3.116,2.133 -4.75,3.3 -5.233,3.667 -8.767,6.05 -10.6,7.15 -2.667,1.6 -5.65,3.483 -8.95,5.65 -4.133,2.7 -7.583,4.916 -10.35,6.649 -0.333,0.2 -0.684,0.417 -1.05,0.65 -0.1,0.066 -0.2,0.15 -0.3,0.25 -2.833,1.8 -6.467,4.3 -10.9,7.5 -0.067,0.033 -0.133,0.083 -0.2,0.15 z M 73.2,4.2 c 0.5,-0.233 0.967,-0.483 1.399,-0.75 l 2.2,-1.3 h -0.3 l 0.05,-0.05 1.15,0.15 C 72,5.683 66.767,9.367 62,13.3 c -2.7,2.233 -4.717,3.9 -6.05,5 0,0.034 -0.017,0.05 -0.05,0.05 h -0.05 c -0.333,0.1 -0.683,0.333 -1.05,0.7 -0.133,0.133 -0.25,0.267 -0.35,0.4 -0.334,0.233 -0.533,0.383 -0.601,0.45 -5.933,3.767 -11.633,7.284 -17.1,10.55 -1.367,0.833 -3.633,2.333 -6.8,4.5 -2.267,1.566 -4.117,2.85 -5.55,3.85 -0.033,0.033 -0.066,0.066 -0.1,0.101 -0.2,0.133 -0.383,0.25 -0.55,0.35 -0.767,0.533 -1.383,0.95 -1.85,1.25 -0.3,0.1 -0.6,0.116 -0.9,0.05 l -3.1,-0.5 c 3.367,-2.5 6.867,-4.95 10.5,-7.35 3.867,-2.533 7.883,-5.017 12.05,-7.45 -0.3,0.3 -0.55,0.533 -0.75,0.7 -0.1,0.1 -0.567,0.399 -1.4,0.899 -0.633,0.367 -1.066,0.733 -1.3,1.101 0.9,-0.4 2.217,-1.217 3.95,-2.45 1.667,-1.2 3,-2 4,-2.4 1.767,-0.7 3.149,-1.316 4.149,-1.85 0.4,-0.233 0.967,-0.617 1.7,-1.15 2.033,-1 3.467,-1.833 4.3,-2.5 1.101,-0.867 2.75,-2.217 4.95,-4.05 l 4.15,-3 c 0.1,-0.033 0.25,-0.15 0.45,-0.35 l -13,8.4 h -0.2 c 0.899,-0.6 1.517,-1.05 1.85,-1.35 1.533,-1.367 4.717,-3.55 9.55,-6.55 z M 89.55,3.5 60.6,19.95 c -4.733,2.667 -10.683,6.25 -17.85,10.75 -7,4.366 -12.083,7.517 -15.25,9.45 -0.5,0.267 -0.95,0.533 -1.35,0.8 -0.2,0.1 -0.4,0.217 -0.6,0.35 -0.033,0 -0.066,0.017 -0.1,0.05 l 0.1,0.051 c -0.433,-0.067 -0.867,-0.134 -1.3,-0.2 l 0.6,-0.75 c 0.833,-0.934 1.717,-1.767 2.65,-2.5 1.7,-1.2 3.85,-2.684 6.45,-4.45 l -6.8,4.95 5.5,-3.7 c 4.2,-2.733 7.65,-4.833 10.35,-6.3 2.1,-1.167 4.917,-3.033 8.45,-5.6 4.533,-2.767 8.217,-5.4 11.05,-7.9 l 2.9,-2.6 c 1.8,-1.367 3.133,-2.35 4,-2.95 1.966,-1.367 3.783,-2.6 5.449,-3.7 -0.233,0.133 -0.433,0.25 -0.6,0.35 -0.667,0.3 -1.134,0.534 -1.4,0.7 0.601,-0.633 1.684,-1.5 3.25,-2.6 0.134,-0.133 0.45,-0.45 0.95,-0.95 0.4,-0.4 0.75,-0.7 1.05,-0.9 L 78.7,2.4 h 0.1 l 0.7,0.1 V 2.45 l 2.95,0.35 c -0.767,0.5 -1.483,1 -2.15,1.5 -5.8,3.9 -10.066,6.667 -12.8,8.3 -3.733,2.2 -5.15,3.283 -4.25,3.25 0.866,-0.067 3.3,-1.2 7.3,-3.4 2.834,-1.534 7.8,-4.367 14.9,-8.5 0.399,-0.233 0.8,-0.467 1.2,-0.7 0.233,0.033 0.483,0.067 0.75,0.1 -1.233,0.6 -2.4,1.267 -3.5,2 L 87.95,3.4 c 0.533,0.033 1.067,0.067 1.6,0.1 z M 82.3,6.1 C 79.9,7.4 78.184,8.45 77.15,9.25 78.417,8.983 79.866,8.267 81.5,7.1 82.366,6.4 83.167,5.817 83.9,5.35 Z m -47.65,32.25 0.5,-0.3 -0.35,0.25 c -0.033,0 -0.083,0.016 -0.15,0.05 z M 64.4,21.2 C 55.2,26.8 48.633,30.733 44.7,33 49.933,29.767 55.7,26.283 62,22.55 Z m 5.9,-5.6 -20,11.7 c -0.333,-0.066 -0.75,0.101 -1.25,0.5 -0.7,0.601 -1.066,0.917 -1.1,0.95 -0.5,0.267 -0.884,0.483 -1.15,0.65 -0.5,0.267 -0.816,0.55 -0.95,0.85 0.667,0.1 1.45,-0.05 2.35,-0.45 0.233,-0.1 0.95,-0.5 2.149,-1.2 0.434,-0.267 1.034,-0.75 1.801,-1.449 0.566,-0.4 1.533,-0.9 2.899,-1.5 3.634,-1.934 6.3,-3.434 8,-4.5 C 65.884,19.383 68.3,17.533 70.3,15.6 Z m -46.4,11.5 -0.25,0.351 0.75,-0.25 -0.1,0.05 c -0.933,0.333 -1.883,0.783 -2.85,1.35 0.2,-0.133 0.417,-0.283 0.65,-0.449 0.567,-0.336 1.167,-0.685 1.8,-1.052 z"
         inkscape:connector-curvature="0"
         style="fill:#c29e4f" />
      <path
         id="path5590"
         d="M 2.95,36.35 1.65,37.25 0.1,37 0.3,36.85 0.35,36.8 0.45,36.7 5.55,34.45 C 4.85,34.849 3.933,35.483 2.8,36.349 2.833,36.35 2.883,36.35 2.95,36.35 Z M 71.7,1.6 V 1.55 l 1.4,0.15 z m -1.65,4 c -0.6,0.267 -1,0.483 -1.2,0.65 0.367,0.067 0.967,-0.233 1.801,-0.9 z M 77.7,2.25 78.1,2.3 C 77.8,2.5 77.451,2.8 77.05,3.2 L 76.1,4.15 c -1.566,1.1 -2.649,1.967 -3.25,2.6 0.267,-0.167 0.733,-0.4 1.4,-0.7 0.167,-0.1 0.366,-0.216 0.6,-0.35 -1.666,1.1 -3.483,2.333 -5.449,3.7 -0.867,0.6 -2.2,1.583 -4,2.95 L 65.8,11.95 60,16.4 60.05,16.3 c 1.634,-1.833 4,-4.066 7.101,-6.7 L 56,18.3 H 55.95 C 57.283,17.2 59.3,15.533 62,13.3 66.767,9.367 72,5.683 77.7,2.25 Z M 73.2,4.2 62.85,10.7 c -4.833,3 -8.017,5.183 -9.55,6.55 -0.333,0.3 -0.95,0.75 -1.85,1.35 -0.367,0.066 -0.851,0.3 -1.45,0.7 -0.733,0.534 -1.233,0.867 -1.5,1 -2.267,1.067 -4.317,2.233 -6.15,3.5 l -1.5,0.95 c -0.167,0.2 -0.3,0.366 -0.4,0.5 -4.167,2.434 -8.184,4.917 -12.05,7.45 -3.633,2.399 -7.133,4.85 -10.5,7.35 L 17,39.9 c 0.067,-0.067 0.133,-0.117 0.2,-0.15 4.433,-3.2 8.066,-5.7 10.9,-7.5 0.1,-0.1 0.2,-0.184 0.3,-0.25 0.367,-0.233 0.717,-0.45 1.05,-0.65 2.767,-1.733 6.216,-3.949 10.35,-6.649 3.3,-2.167 6.283,-4.05 8.95,-5.65 1.833,-1.1 5.366,-3.483 10.6,-7.15 1.634,-1.167 3.217,-2.267 4.75,-3.3 3.801,-2.633 7.184,-4.883 10.15,-6.75 l 2.3,0.25 L 76.5,2.15 75.4,2 C 73.167,3.467 71.733,4.467 71.099,5 L 70.65,5.35 C 71.55,4.983 72.4,4.6 73.2,4.2 Z M 85.45,3.15 V 3.1 l 1.2,0.15 c -0.4,0.233 -0.801,0.467 -1.2,0.7 -7.101,4.133 -12.066,6.966 -14.9,8.5 -4,2.2 -6.434,3.333 -7.3,3.4 -0.9,0.033 0.517,-1.05 4.25,-3.25 2.733,-1.633 7,-4.4 12.8,-8.3 0.667,-0.5 1.384,-1 2.15,-1.5 l 1.15,0.1 -6.85,4.9 -3.6,1.8 c -0.3,0.067 -0.65,0.233 -1.05,0.5 -0.433,0.333 -0.767,0.566 -1,0.7 -1.767,1.2 -2.816,1.967 -3.149,2.3 0.566,0.133 1.267,-0.05 2.1,-0.55 0.467,-0.267 1.117,-0.683 1.95,-1.25 0.7,-0.367 1.65,-1.05 2.85,-2.05 C 75.283,8.983 75.934,8.567 76.8,8 77.2,7.8 77.833,7.567 78.7,7.3 81.5,5.933 83.933,4.567 86,3.2 L 85.75,3.15 81.5,5.35 c 0.733,-0.4 1.5,-0.833 2.3,-1.3 0.533,-0.3 1.084,-0.6 1.65,-0.9 z m 5.6,0.5 c -0.066,0 -0.116,0.033 -0.149,0.1 -8.934,4.833 -17.601,9.683 -26,14.55 -5.233,3.034 -11.7,6.9 -19.4,11.601 -9.4,5.767 -15.433,9.449 -18.1,11.05 -0.367,0.233 -0.667,0.416 -0.9,0.55 h -0.2 l -0.75,-0.1 -0.1,-0.051 c 0.033,-0.033 0.066,-0.05 0.1,-0.05 0.2,-0.133 0.4,-0.25 0.6,-0.35 0.4,-0.267 0.85,-0.533 1.35,-0.8 3.167,-1.934 8.25,-5.084 15.25,-9.45 7.167,-4.5 13.116,-8.083 17.85,-10.75 L 89.55,3.5 91.1,3.6 Z M 64.4,21.2 62,22.55 C 55.7,26.283 49.934,29.767 44.7,33 c -1.233,0.7 -2.2,1.25 -2.9,1.65 -1.9,1.066 -4.233,2.283 -7,3.649 L 35.15,38.049 45.9,31.7 c 2.367,-1.3 3.867,-2.101 4.5,-2.4 1.966,-0.967 12.633,-7.333 32,-19.1 0.5,-0.267 1,-0.534 1.5,-0.8 h 0.05 z M 45.9,31.7 c -0.933,0.5 -1.983,1.066 -3.15,1.7 l 4.05,-2.5 c 2.9,-1.7 8.6,-5.1 17.1,-10.2 6.033,-3.6 11.267,-6.6 15.699,-9 z M 71.15,1.95 C 70.983,2.083 70.783,2.25 70.549,2.45 69.416,3.383 68.615,4.166 68.15,4.8 62.816,8.067 57.833,11.1 53.2,13.9 l -2.101,1 c 1.801,-1.167 3.534,-2.367 5.2,-3.6 -6.866,4.2 -12.367,7.367 -16.5,9.5 -2.566,1.3 -5.083,2.7 -7.55,4.2 l -2.95,1.8 4.85,-2.399 c 3.934,-1.967 7.583,-3.934 10.95,-5.9 0.033,0.033 0.083,0.067 0.15,0.1 -2.467,1.4 -4.817,2.733 -7.05,4 -3.9,2.133 -7.034,3.867 -9.4,5.2 -1.5,0.8 -2.7,1.45 -3.6,1.95 -0.034,0 -0.05,0.017 -0.05,0.05 -3.7,2.066 -6.783,4.134 -9.25,6.2 l -3.55,3.05 L 12.3,39.1 11,38.85 c 0.033,-0.033 0.083,-0.066 0.15,-0.1 0.267,-0.267 0.567,-0.533 0.9,-0.8 2.567,-2.2 5.284,-4.367 8.15,-6.5 l 29,-16.4 c 5.3,-3.033 12.616,-7.4 21.95,-13.1 z m -17.5,19 c -2.167,1.433 -4.567,2.916 -7.2,4.45 -1.633,0.966 -3.367,2.05 -5.2,3.25 L 35.3,32.6 c -0.3,0.167 -0.583,0.351 -0.85,0.551 -0.167,0.1 -0.333,0.216 -0.5,0.35 -2.6,1.767 -4.75,3.25 -6.45,4.45 0.133,-0.134 0.283,-0.267 0.45,-0.4 0.833,-0.666 1.7,-1.3 2.6,-1.899 l -4.45,2.3 c -0.5,0.399 -0.934,0.733 -1.3,1 0.267,-0.367 0.133,-0.417 -0.4,-0.15 1.434,-1 3.283,-2.283 5.55,-3.85 3.167,-2.167 5.433,-3.667 6.8,-4.5 5.467,-3.267 11.167,-6.783 17.1,-10.55 0.067,-0.066 0.267,-0.217 0.601,-0.45 -0.267,0.267 -0.467,0.466 -0.601,0.6 -0.8,0.667 -1.416,1.117 -1.85,1.35 -1.4,0.8 -2.233,1.317 -2.5,1.55 0.366,-0.1 0.85,-0.35 1.45,-0.75 0.633,-0.4 1.1,-0.65 1.399,-0.75 0.501,-0.202 0.934,-0.369 1.301,-0.502 z m -29.2,5.35 -0.55,0.8 c -0.633,0.367 -1.233,0.717 -1.8,1.051 -0.233,0.166 -0.45,0.316 -0.65,0.449 l -0.25,0.1 c -0.167,0.066 -0.317,0.149 -0.45,0.25 -0.033,0.033 -0.083,0.066 -0.15,0.1 -3.133,1.9 -5.133,3.167 -6,3.8 -2.1,1.634 -4.483,3.317 -7.15,5.051 l 1.85,-1.95 -0.85,0.6 c -0.567,0.5 -1,0.851 -1.3,1.05 -0.4,0.167 -0.667,0.317 -0.8,0.45 L 5.4,37.9 c 3.667,-2.601 5.717,-4.051 6.15,-4.351 1.934,-1.3 4.567,-2.899 7.9,-4.8 0.066,-0.033 0.15,-0.083 0.25,-0.15 -0.9,0.733 -1.633,1.284 -2.2,1.65 0.4,-0.033 0.933,-0.233 1.6,-0.6 0.367,-0.2 0.867,-0.483 1.5,-0.851 1.3,-0.698 2.583,-1.531 3.85,-2.498 z M 21.9,40.5 c 0.467,-0.3 1.083,-0.717 1.85,-1.25 -0.3,0.233 -0.667,0.517 -1.1,0.85 -0.233,0.167 -0.483,0.3 -0.75,0.4 z"
         inkscape:connector-curvature="0"
         style="fill:#a7863f" />
      <path
         id="path5592"
         d="m 8.55,33.1 h 0.1 l 3.8,-1.699 3.75,-1.7 -0.75,0.399 c -1.034,0.534 -2.567,1.417 -4.6,2.65 -2,1.2 -3.55,2.066 -4.65,2.6 C 5.767,35.583 5.217,35.8 4.55,36 3.85,36.233 3.317,36.35 2.95,36.35 H 2.8 c 1.133,-0.866 2.05,-1.5 2.75,-1.899 L 8.45,33.1 Z M 20.6,29.05 c 0.066,-0.033 0.117,-0.066 0.15,-0.1 0.133,-0.101 0.283,-0.184 0.45,-0.25 l 0.25,-0.101 c 0.966,-0.566 1.917,-1.017 2.85,-1.35 l 0.1,-0.05 -0.75,0.25 0.25,-0.349 0.55,-0.8 v -0.05 c 0.267,-0.1 0.533,-0.217 0.8,-0.35 l 4.2,-2.051 c 5.2,-2.633 12.2,-6.433 21,-11.399 C 55.417,9.65 62.267,6 71,1.5 l 0.45,0.05 c -2.634,1.633 -8.3,4.9 -17,9.8 -7.634,4.267 -12.284,7.017 -13.95,8.25 -2.833,2.066 -7.1,4.2 -12.8,6.4 l -11.1,6.65 0.95,-1 c 0.867,-0.966 1.883,-1.834 3.05,-2.6 z m 30.85,-6.2 2.95,-2.2 5.6,-4.25 5.8,-4.45 -0.399,0.4 -2.9,2.6 c -2.834,2.5 -6.518,5.133 -11.051,7.9 -3.533,2.567 -6.35,4.433 -8.45,5.6 -2.7,1.467 -6.15,3.566 -10.35,6.3 l -5.5,3.7 6.8,-4.95 c 0.167,-0.134 0.333,-0.25 0.5,-0.35 0.267,-0.2 0.55,-0.384 0.85,-0.551 l 5.95,-3.949 c 2.167,-1.334 4.133,-2.45 5.9,-3.351 z M 87.95,3.4 83.9,5.35 c 1.1,-0.733 2.267,-1.4 3.5,-2 V 3.3 L 88,3.35 Z M 82.3,6.1 83.9,5.35 C 83.167,5.817 82.366,6.4 81.5,7.1 79.866,8.267 78.417,8.983 77.15,9.25 78.184,8.45 79.9,7.4 82.3,6.1 Z M 40.45,25.25 c 0.1,-0.134 0.233,-0.3 0.4,-0.5 l 1.5,-0.95 c 1.833,-1.267 3.883,-2.433 6.15,-3.5 0.267,-0.133 0.767,-0.466 1.5,-1 0.6,-0.4 1.083,-0.633 1.45,-0.7 h 0.2 l 13,-8.4 c -0.2,0.2 -0.351,0.316 -0.45,0.35 l -4.15,3 c -2.2,1.833 -3.85,3.184 -4.95,4.05 -0.833,0.667 -2.267,1.5 -4.3,2.5 -0.733,0.533 -1.3,0.917 -1.7,1.15 -1,0.533 -2.383,1.15 -4.149,1.85 -1,0.4 -2.333,1.2 -4,2.4 -1.733,1.233 -3.05,2.05 -3.95,2.45 0.233,-0.367 0.667,-0.733 1.3,-1.101 0.833,-0.5 1.3,-0.8 1.4,-0.899 0.199,-0.167 0.449,-0.4 0.749,-0.7 z M 70.3,15.6 c -2,1.933 -4.416,3.783 -7.25,5.55 -1.7,1.067 -4.366,2.567 -8,4.5 -1.366,0.6 -2.333,1.1 -2.899,1.5 -0.767,0.699 -1.367,1.183 -1.801,1.449 -1.199,0.7 -1.916,1.101 -2.149,1.2 -0.9,0.4 -1.684,0.55 -2.35,0.45 0.133,-0.3 0.45,-0.583 0.95,-0.85 0.267,-0.167 0.65,-0.384 1.15,-0.65 0.033,-0.033 0.399,-0.35 1.1,-0.95 0.5,-0.399 0.917,-0.566 1.25,-0.5 z m -25.05,3 C 45.183,18.567 45.133,18.533 45.1,18.5 l 0.1,-0.05 1.1,-0.65 1.7,-1.3 c 0.134,-0.067 0.417,-0.2 0.85,-0.4 0.367,-0.167 0.634,-0.333 0.801,-0.5 L 51,14.95 c 0.033,-0.034 0.066,-0.05 0.1,-0.05 l 2.101,-1 5.5,-2.75 -1,0.55 c -0.8,0.466 -1.983,1.233 -3.55,2.3 -1.534,1.033 -2.717,1.783 -3.551,2.25 -0.966,0.6 -1.699,1.05 -2.199,1.35 -0.934,0.533 -1.717,0.867 -2.351,1 -0.333,0.067 -0.6,0.067 -0.8,0 z m -31.6,20.7 -1.35,-0.2 0.05,-0.05 c 0.533,-0.434 1.467,-1.1 2.8,-2 1.067,-0.733 1.883,-1.2 2.45,-1.399 0.267,-0.101 0.7,-0.25 1.3,-0.45 l -0.2,0.35 c -0.6,0.566 -1.417,1.217 -2.45,1.95 -1.5,1.033 -2.35,1.616 -2.55,1.75 z m -0.4,-4 -1.1,0.8 c -0.633,0.2 -1.083,0.384 -1.35,0.551 -0.4,0.3 -0.7,0.5 -0.9,0.6 -0.367,0.167 -0.733,0.233 -1.1,0.2 0.133,-0.4 0.55,-0.783 1.25,-1.15 0.367,-0.166 0.9,-0.399 1.6,-0.7 l 4.95,-2.949 c -0.933,0.931 -2.05,1.815 -3.35,2.648 z"
         inkscape:connector-curvature="0"
         style="fill:#d9b25c" />
      <path
         id="path5594"
         d="m 70.05,5.6 0.601,-0.25 c -0.834,0.667 -1.434,0.967 -1.801,0.9 0.2,-0.167 0.6,-0.383 1.2,-0.65 z m 1.65,-4 1.4,0.1 V 1.75 L 72.85,1.9 c -1.966,1.4 -3.399,2.283 -4.3,2.65 l -0.5,0.35 c 0.033,-0.033 0.066,-0.066 0.101,-0.1 0.466,-0.633 1.267,-1.417 2.399,-2.35 0.233,-0.2 0.434,-0.367 0.601,-0.5 0.166,-0.2 0.283,-0.333 0.35,-0.4 z m 7.8,0.85 V 2.5 L 78.8,2.4 Z M 76.75,7.8 81.5,5.35 85.75,3.15 86,3.2 c -2.066,1.367 -4.5,2.733 -7.3,4.1 -0.867,0.267 -1.5,0.5 -1.9,0.7 -0.866,0.567 -1.517,0.983 -1.95,1.25 -1.199,1 -2.149,1.683 -2.85,2.05 -0.833,0.567 -1.483,0.983 -1.95,1.25 -0.833,0.5 -1.533,0.684 -2.1,0.55 0.333,-0.333 1.383,-1.1 3.149,-2.3 0.233,-0.133 0.567,-0.367 1,-0.7 0.4,-0.267 0.75,-0.434 1.051,-0.5 z M 73.2,4.2 C 72.4,4.6 71.55,4.983 70.65,5.35 L 71.1,5 c 0.634,-0.533 2.067,-1.533 4.301,-3 l 1.1,0.15 h 0.3 l -2.2,1.3 C 74.167,3.717 73.7,3.967 73.2,4.2 Z M 23.65,41.1 H 23.6 c -0.333,-0.033 -0.65,-0.066 -0.95,-0.1 0.333,-0.267 0.8,-0.684 1.4,-1.25 0.367,-0.366 0.617,-0.634 0.75,-0.8 0.367,-0.267 0.8,-0.601 1.3,-1 l 4.45,-2.3 c -0.9,0.6 -1.767,1.233 -2.6,1.899 -0.167,0.134 -0.317,0.267 -0.45,0.4 -0.933,0.733 -1.817,1.566 -2.65,2.5 l -0.6,0.75 c -0.2,-0.032 -0.4,-0.065 -0.6,-0.099 z M 60,16.4 54.4,20.65 c -0.233,0.1 -0.483,0.2 -0.75,0.3 -0.367,0.133 -0.801,0.3 -1.301,0.5 -0.3,0.1 -0.767,0.35 -1.399,0.75 -0.601,0.4 -1.084,0.65 -1.45,0.75 0.267,-0.233 1.1,-0.75 2.5,-1.55 0.434,-0.233 1.05,-0.683 1.85,-1.35 0.134,-0.133 0.334,-0.333 0.601,-0.6 0.1,-0.133 0.217,-0.267 0.35,-0.4 0.367,-0.367 0.717,-0.6 1.05,-0.7 H 55.9 c 0.033,0 0.05,-0.017 0.05,-0.05 H 56 L 67.15,9.6 c -3.101,2.633 -5.467,4.867 -7.101,6.7 z m -14.9,2.1 c -3.367,1.967 -7.017,3.933 -10.95,5.9 L 29.3,26.8 32.25,25 c 2.467,-1.5 4.983,-2.9 7.55,-4.2 4.133,-2.133 9.634,-5.3 16.5,-9.5 -1.666,1.233 -3.399,2.434 -5.2,3.6 -0.033,0 -0.066,0.017 -0.1,0.05 l -1.35,0.65 c -0.167,0.167 -0.434,0.333 -0.801,0.5 -0.433,0.2 -0.716,0.333 -0.85,0.4 l -1.7,1.3 -1.1,0.65 z"
         inkscape:connector-curvature="0"
         style="fill:#876e3a" />
      <path
         id="path5596"
         d="m 35.15,38.05 -0.5,0.3 -6.5,3.851 -0.75,0.35 c -0.033,-0.033 -0.066,-0.05 -0.1,-0.05 -0.3,-0.167 -0.583,-0.3 -0.85,-0.4 -0.333,-0.133 -0.633,-0.216 -0.9,-0.25 -0.066,-0.033 -0.117,-0.05 -0.15,-0.05 -0.367,-0.033 -0.667,-0.149 -0.9,-0.35 l -0.25,-0.25 c 0.433,0.066 0.867,0.133 1.3,0.2 l 0.75,0.1 h 0.2 c 0.133,0.033 0.283,0.066 0.45,0.1 l 0.4,0.051 h 0.2 c 0.233,-0.101 3.75,-2.017 10.55,-5.75 1.733,-0.934 3.283,-1.767 4.65,-2.5 1.167,-0.634 2.217,-1.2 3.15,-1.7 l 33.7,-20 7.8,-4.652 -1.9,1.25 c -1.066,0.633 -2.1,1.267 -3.1,1.9 -19.367,11.767 -30.034,18.133 -32,19.1 -0.634,0.3 -2.134,1.101 -4.5,2.4 z M 17,39.9 l 0.9,0.149 3.1,0.5 c 0.3,0.066 0.6,0.05 0.9,-0.05 0.267,-0.1 0.517,-0.233 0.75,-0.4 0.434,-0.333 0.8,-0.616 1.1,-0.85 0.167,-0.1 0.35,-0.217 0.55,-0.35 0.034,-0.034 0.067,-0.067 0.1,-0.101 0.533,-0.267 0.667,-0.217 0.4,0.15 -0.133,0.166 -0.383,0.434 -0.75,0.8 -0.6,0.566 -1.066,0.983 -1.4,1.25 -0.066,0.033 -0.117,0.066 -0.15,0.1 -0.233,0.134 -0.4,0.2 -0.5,0.2 -0.367,0 -1.817,-0.2 -4.35,-0.6 -0.033,-0.033 -0.066,-0.05 -0.1,-0.05 C 17.383,40.614 17.234,40.597 17.1,40.597 17,40.564 16.9,40.547 16.8,40.547 15.4,40.28 13.75,39.981 11.85,39.648 11.617,39.614 11.4,39.581 11.2,39.547 H 11 C 9.767,39.316 8.65,39.1 7.65,38.9 7.383,38.833 7.15,38.783 6.95,38.75 6.583,38.684 6.25,38.616 5.95,38.55 5.016,38.35 4.2,38.184 3.5,38.05 3.133,37.95 2.783,37.866 2.45,37.8 2.35,37.767 2.25,37.734 2.15,37.7 1.75,37.599 1.417,37.516 1.15,37.45 0.983,37.384 0.834,37.333 0.7,37.3 0.367,37.167 0.166,37.067 0.1,37 l 1.55,0.25 3.75,0.65 0.95,0.149 0.8,0.15 3.85,0.651 1.3,0.25 1.35,0.2 z"
         inkscape:connector-curvature="0"
         style="fill:#e2be6e" />
      <path
         id="path5598"
         d="m 4.35,41.6 c 0.4,0.067 0.833,0.15 1.3,0.25 L 5.9,41.9 c 0.1,0 0.217,0.017 0.35,0.05 0.033,0 0.067,0.017 0.1,0.05 -0.733,-0.134 -1.4,-0.267 -2,-0.4 z M 87.3,9.45 C 85.5,10.783 83.401,12.233 81,13.8 74.4,18.133 65.583,23.417 54.55,29.651 43.417,35.95 35.5,40.267 30.8,42.6 l -1,0.5 c 0.767,-0.899 2.383,-2.066 4.85,-3.5 0.667,-0.366 6.033,-3.399 16.1,-9.1 6.934,-3.866 11.684,-6.6 14.25,-8.2 4.333,-2.667 9.5,-6 15.5,-10 l 5.3,-3.5 -4.8,5 1.95,-1.45 c 1.567,-1.133 3.017,-2.1 4.35,-2.9 z"
         inkscape:connector-curvature="0"
         style="fill:#856c37" />
      <path
         id="path5600"
         d="m 16.85,43.85 h -0.2 l 0.15,-3.3 c 0.1,0 0.2,0.017 0.3,0.05 v 0.051 c -0.067,0.733 -0.1,1.166 -0.1,1.3 0,0.665 -0.05,1.299 -0.15,1.899 z m -5,-4.2 c -0.033,0.199 -0.067,0.399 -0.1,0.6 l -0.3,2.7 -0.5,-0.101 L 11,42.45 v -2.9 h 0.2 c 0.2,0.033 0.417,0.066 0.65,0.1 z M 19.7,28.6 c 0.267,-0.233 0.566,-0.466 0.9,-0.699 V 27.85 l 3.85,-1.6 v 0.05 c -1.267,0.967 -2.55,1.8 -3.85,2.5 -0.633,0.367 -1.133,0.65 -1.5,0.851 -0.667,0.366 -1.2,0.566 -1.6,0.6 0.567,-0.367 1.3,-0.918 2.2,-1.651 z m -12.25,9.3 -0.3,0.3 -0.8,-0.15 c 0.133,-0.133 0.4,-0.283 0.8,-0.45 0.3,-0.199 0.733,-0.55 1.3,-1.05 L 9.3,35.95 Z M 6.35,42 C 6.317,41.967 6.283,41.95 6.25,41.95 l -0.2,-0.7 c -0.2,-1.033 -0.267,-1.816 -0.2,-2.35 0.033,-0.134 0.066,-0.25 0.1,-0.351 0.3,0.066 0.633,0.134 1,0.2 v 0.75 c -0.034,0.267 -0.067,0.7 -0.1,1.3 C 6.783,41.3 6.667,41.7 6.5,42 Z m -5.2,-4.55 c 0.267,0.066 0.6,0.149 1,0.25 v 0.899 C 2.083,39 1.867,39.366 1.5,39.7 l -0.35,0.4 z m 22.05,4.6 -0.5,1.25 c -0.127,0.478 -0.194,0.877 -0.2,1.2 v -3.4 c 0.033,-0.033 0.083,-0.066 0.15,-0.1 0.3,0.033 0.617,0.066 0.95,0.1 -0.067,0.167 -0.133,0.351 -0.2,0.551 L 23.25,42 c -0.033,0 -0.05,0.017 -0.05,0.05 z m 3.25,0.05 c 0,0.233 -0.017,0.5 -0.05,0.801 l -0.1,1.05 0.05,1.5 -0.5,-0.101 -0.2,-0.899 -0.15,-1.8 c 0,-0.2 0.017,-0.467 0.05,-0.801 0.267,0.034 0.567,0.117 0.9,0.25 z"
         inkscape:connector-curvature="0"
         style="fill:#786232" />
      <path
         id="path5602"
         d="m 22.65,44.85 c -0.2,-0.033 -0.4,-0.066 -0.6,-0.1 L 17.65,44 16.95,43.9 17,43.1 c 0,-0.966 0.05,-1.633 0.15,-2 l 0.15,-0.4 h 0.2 l 0.05,-0.05 -0.25,0.45 c 0,0.634 -0.05,1.567 -0.15,2.801 l 0.5,0.1 v -3.3 l 2,0.399 c 0.434,0.101 1.067,0.317 1.9,0.65 l 0.1,2.4 -0.05,0.5 0.6,0.1 0.3,-0.95 v 0.7 c 0.006,-0.323 0.073,-0.723 0.2,-1.2 l 0.5,-1.25 0.3,0.05 0.1,0.051 -0.1,0.3 -0.15,-0.101 c -0.167,0.233 -0.283,0.717 -0.35,1.45 0,0.066 -0.067,0.233 -0.2,0.5 -0.1,0.233 -0.15,0.417 -0.15,0.55 l 0.55,0.05 c 0.4,-0.434 0.6,-1.334 0.6,-2.7 0.4,0.066 0.967,0.217 1.7,0.45 v 2.65 h 0.15 l 0.1,-0.35 -0.1,-0.5 0.2,0.899 0.5,0.101 -0.05,-1.5 0.1,-1.05 0.6,0.1 -0.5,0.3 c 0,0.134 -0.017,0.851 -0.05,2.15 l 0.5,0.1 c -0.2,-0.033 -0.4,-0.066 -0.6,-0.1 -1.233,-0.2 -2.467,-0.4 -3.7,-0.6 z m -5.85,-1 h 0.05 L 16.9,43.9 Z M 16,43.75 c -0.367,-0.066 -0.717,-0.134 -1.05,-0.2 -0.133,-0.033 -0.267,-0.05 -0.4,-0.05 l -0.7,-0.15 0.3,0.051 c 0.067,-0.601 0.017,-0.983 -0.15,-1.15 -0.267,0.134 -0.433,0.483 -0.5,1.05 l -0.9,-0.149 h 0.15 c 0.1,-0.367 0.133,-0.867 0.1,-1.5 -0.033,-0.667 -0.05,-1.067 -0.05,-1.2 h -0.65 v 2 l -0.1,0.6 -0.45,-0.1 0.45,-2.65 c 1.467,0 2.784,0.066 3.95,0.2 -0.167,0.3 -0.283,0.733 -0.35,1.3 -0.033,0.334 -0.083,0.767 -0.15,1.3 l -0.1,0.5 z M 8.35,42.4 C 8.05,42.333 7.767,42.266 7.5,42.2 v -0.75 c 0,-0.033 0.05,-0.717 0.15,-2.05 l 0.95,0.25 c 1.1,0.3 1.783,0.466 2.05,0.5 V 42.8 Z M 5.65,41.85 C 5.183,41.75 4.75,41.667 4.35,41.6 L 1.9,40.95 c 0.233,-0.467 0.417,-1.517 0.55,-3.15 0.333,0.066 0.683,0.15 1.05,0.25 0.467,0.134 0.917,0.283 1.35,0.45 l 0.35,0.15 0.05,0.25 c 0.267,1.5 0.4,2.399 0.4,2.699 z M 0.1,37 c 0.066,0.066 0.267,0.167 0.6,0.3 l -0.05,0.15 h 0.2 c 0,1.066 0.066,2 0.2,2.8 -0.133,0.2 -0.2,0.35 -0.2,0.45 L 0.35,40.6 C 0.217,40.533 0.1,40.483 0,40.45 c 0.133,-2.101 0.133,-3.267 0,-3.5 0.033,0 0.067,0.017 0.1,0.05 z m 6.8,5.1 C 6.767,42.067 6.633,42.034 6.5,42 6.667,41.7 6.783,41.3 6.85,40.8 6.883,40.2 6.916,39.767 6.95,39.5 v -0.25 l 0.4,0.1 -0.05,0.1 c 0.034,0.366 0,0.816 -0.1,1.35 -0.067,0.266 -0.167,0.7 -0.3,1.3 z m -0.85,-0.85 0.2,0.7 C 6.117,41.917 6,41.9 5.9,41.9 Z M 14.3,40.6 c 0,0.167 -0.017,0.7 -0.05,1.601 0,0.8 0.1,1.217 0.3,1.25 0.133,-0.267 0.2,-0.7 0.2,-1.3 -0.067,-0.667 -0.1,-1.117 -0.1,-1.351 z m 9.1,1.05 c 0.067,-0.2 0.133,-0.384 0.2,-0.551 h 0.05 C 23.583,41.267 23.5,41.45 23.4,41.65 Z m 3.85,1.8 -0.1,-0.4 h 0.1 z"
         inkscape:connector-curvature="0"
         style="fill:#a88946" />
      <path
         id="path5604"
         d="m 17.1,40.6 c 0.133,0 0.283,0.017 0.45,0.051 L 17.5,40.7 h -0.2 l -0.15,0.4 c -0.1,0.367 -0.15,1.034 -0.15,2 l -0.05,0.8 H 16.9 l -0.05,-0.051 c 0.1,-0.6 0.15,-1.233 0.15,-1.899 0,-0.134 0.033,-0.566 0.1,-1.3 z m 0.55,0.1 c 2.533,0.399 3.983,0.6 4.35,0.6 0.1,0 0.267,-0.066 0.5,-0.2 v 2.7 l -0.3,0.95 -0.6,-0.1 0.05,-0.5 -0.1,-2.4 C 20.717,41.417 20.084,41.2 19.65,41.1 Z M 16,43.75 15.4,43.6 15.5,43.1 c 0.067,-0.533 0.117,-0.966 0.15,-1.3 0.067,-0.566 0.184,-1 0.35,-1.3 -1.167,-0.134 -2.483,-0.2 -3.95,-0.2 l -0.45,2.65 h -0.15 l 0.3,-2.7 c 0.033,-0.2 0.067,-0.4 0.1,-0.6 1.9,0.333 3.55,0.633 4.95,0.899 l -0.15,3.3 z M 13.5,43.3 c 0.067,-0.566 0.233,-0.916 0.5,-1.05 0.167,0.167 0.217,0.55 0.15,1.15 l -0.3,-0.051 z M 7.65,38.9 c 1,0.199 2.117,0.416 3.35,0.649 v 2.9 l -0.05,0.399 -0.3,-0.05 V 40.15 C 10.383,40.116 9.7,39.95 8.6,39.65 L 7.65,39.4 v -0.5 l -0.3,0.449 -0.4,-0.1 v -0.5 c 0.2,0.034 0.433,0.084 0.7,0.151 z M 6.05,41.25 5.9,41.9 5.65,41.85 V 41.6 c 0,-0.3 -0.133,-1.199 -0.4,-2.699 L 5.2,38.65 4.85,38.5 C 4.416,38.333 3.967,38.184 3.5,38.05 c 0.7,0.134 1.517,0.3 2.45,0.5 -0.034,0.101 -0.067,0.217 -0.1,0.351 -0.067,0.533 0,1.316 0.2,2.349 z m -4.9,-3.8 v 2.65 l -0.1,0.15 c -0.133,-0.8 -0.2,-1.733 -0.2,-2.8 H 0.65 L 0.7,37.3 c 0.133,0.033 0.283,0.084 0.45,0.15 z m 24.5,7 0.1,0.5 -0.1,0.35 H 25.5 V 42.65 C 24.767,42.417 24.2,42.266 23.8,42.2 V 41.6 L 23.6,42.151 23.5,42.1 23.2,42.05 C 23.2,42.017 23.217,42 23.25,42 l 0.15,-0.35 c 0.1,-0.2 0.184,-0.384 0.25,-0.551 0.2,0.034 0.4,0.067 0.6,0.101 l 0.25,0.25 c 0.233,0.2 0.533,0.316 0.9,0.35 0.033,0 0.083,0.017 0.15,0.05 -0.033,0.334 -0.05,0.601 -0.05,0.801 z m 0.8,-2.35 c 0.267,0.101 0.55,0.233 0.85,0.4 l -0.05,0.55 h -0.1 v -0.1 L 27,43 26.4,42.9 c 0.033,-0.3 0.05,-0.567 0.05,-0.8 z"
         inkscape:connector-curvature="0"
         style="fill:#8c733b" />
      <path
         id="path5606"
         d="m 27.15,43.05 0.1,0.4 C 27.217,44.283 27.233,45 27.3,45.6 l -0.35,-0.05 -0.5,-0.1 c 0.033,-1.3 0.05,-2.017 0.05,-2.15 L 27,43 27.15,42.95 Z m -15.1,0 0.1,-0.6 v -2 h 0.65 c 0,0.133 0.017,0.533 0.05,1.2 0.033,0.633 0,1.133 -0.1,1.5 H 12.6 Z M 2.45,37.8 C 2.317,39.434 2.133,40.484 1.9,40.95 L 1.85,41 l -1,-0.3 c 0,-0.101 0.066,-0.25 0.2,-0.45 L 1.15,40.1 1.5,39.7 C 1.867,39.366 2.083,39 2.15,38.6 v -0.899 c 0.1,0.032 0.2,0.066 0.3,0.099 z m 5.2,1.6 C 7.55,40.733 7.5,41.417 7.5,41.45 V 42.2 L 6.9,42.1 C 7.033,41.5 7.133,41.067 7.2,40.8 7.3,40.267 7.333,39.817 7.3,39.45 L 7.35,39.349 7.65,38.9 Z m 10,1.3 V 44 l -0.5,-0.1 c 0.1,-1.233 0.15,-2.167 0.15,-2.801 l 0.25,-0.449 c 0.033,0 0.067,0.017 0.1,0.05 z m -3.35,-0.1 0.35,0.2 c 0,0.233 0.033,0.684 0.1,1.351 0,0.6 -0.067,1.033 -0.2,1.3 -0.2,-0.033 -0.3,-0.45 -0.3,-1.25 C 14.283,41.3 14.3,40.767 14.3,40.6 Z m 9.5,1.6 c 0,1.366 -0.2,2.267 -0.6,2.7 l -0.55,-0.051 c 0,-0.133 0.05,-0.316 0.15,-0.55 0.133,-0.267 0.2,-0.434 0.2,-0.5 0.067,-0.733 0.183,-1.217 0.35,-1.45 l 0.15,0.101 0.1,-0.3 0.2,-0.551 z"
         inkscape:connector-curvature="0"
         style="fill:#c4a153" />
    </g>
    <g
       id="g5429"
       transform="matrix(0.26458333,0,0,0.26458333,-289.08816,-50.446212)">
      <g
         id="g5427"
         transform="matrix(0.60287,0,0,0.60287,-136.33,474.99)">
        <path
           id="path5387"
           d="m 295.47,901.34 -3.0305,10.607 c -10.717,13.357 -8.1944,33.844 -1.5152,56.569 l 4.0406,147.48 c 0.83582,30.507 22.162,74.651 93.944,76.266 l 157.08,3.5355 c 51.991,1.1702 96.934,-1.8925 133.85,-14.142 33.205,-11.02 46.271,-26.796 46.972,-43.942 l 6.566,-160.61 c 8.7942,-18.687 9.2982,-35.629 0,-50.508 l 0.50507,-13.132 -22.728,2.0203"
           inkscape:connector-curvature="0" />
        <path
           id="path5389"
           d="m 769.36,245.38 0.63135,25.128 c 0.10365,4.1251 -3.1263,11.321 -8.0812,14.9 l -94.05,-2.6845 c -29.255,-0.83505 -49.475,15.092 -45,50.357 5.0613,39.885 12.314,79.465 17.857,119.29 6.7198,48.278 14.207,96.486 18.929,145 3.974,40.829 7.4885,85.597 7.1429,122.86 -4.7563,4.0544 -12.39,8.4685 -22.533,13.196 l -114.61,20.018 -22.857,-69.643 -88.929,-388.93 88.214,-96.786 266.43,21.429 z"
           inkscape:connector-curvature="0" />
        <path
           id="path5391"
           d="m 194.71,240.2 c 1.4843,10.035 6.9454,22.291 23.739,24.749 18.583,2.7202 40.302,9.1683 40.911,59.599 0.16852,13.951 -4.7957,27.558 -8.8388,40.911 -8.4435,27.886 4.8358,38.666 28.284,39.143 l 74.499,1.5152 38.638,-153.29 -192.69,-23.739"
           inkscape:connector-curvature="0" />
        <rect
           id="rect5393"
           height="96.974998"
           width="70.206001"
           y="-31.316"
           x="-0.75731999"
           transform="matrix(0.99255,0.12187,-0.12187,0.99255,0,0)"
           style="color:#000000" />
        <path
           id="path5395"
           d="m -285.13,-47.954 -54.061,6.6802 -1.5691,12.779 -0.95592,7.7853 -1.5691,12.779 50.839,19.56 13.664,-24.612 3.1638,0.38846 -1.1058,-4.0714 2.0617,-3.7139 -3.1637,-0.38846 -7.3037,-27.186 z"
           inkscape:connector-curvature="0"
           style="fill:#666666" />
        <path
           id="path5397"
           d="m -270.4,-76.905 -12.142,7.8601 c -3.858,9.6442 -6.1455,31.877 -8.8861,50.575 -1.8643,18.805 -5.0196,40.901 -3.6094,51.192 l 9.88,10.564 7.9714,0.97876 19.073,-50.458 4.0382,1.4719 -1.094,-9.2964 3.3105,-8.7556 -4.2744,0.4512 -6.2955,-53.604 -7.9714,-0.97876 z"
           inkscape:connector-curvature="0"
           style="fill:#4d4d4d" />
        <path
           id="path5399"
           d="m -8.483,-110.42 -143.95,-17.392 -5.2174,1.7207 -8.6135,-0.36494 -0.39784,-2.914 -25.372,-1.5726 c -2.0133,-0.12609 -4.145,0.57778 -5.8143,1.7104 l -60.653,41.134 c -3.6029,2.4447 -7.2452,6.1841 -7.7758,10.506 l -4.1398,33.716 -6.7714,55.148 -4.1359,33.685 c -0.53062,4.3215 2.0988,8.8311 5.0032,12.075 l 48.896,54.616 c 1.3457,1.5028 3.2476,2.6705 5.2316,3.0352 l 24.999,4.6123 1.091,-2.7312 8.4459,1.7297 4.6461,2.9318 143.88,17.95 3.8635,-2.2333 9.057,1.1121 3.6263,2.7751 22.146,2.7192 3.3196,-15.24 4.1363,-17.533 8.2806,-65.133 0.21712,0.02666 3.075,-26.07 3.3269,-26.07 -0.21712,-0.02666 7.7223,-65.201 0.22815,-18.013 0.466,-15.591 -22.146,-2.7192 -4.19,1.8154 -9.057,-1.1121 -3.2084,-3.1016 z"
           inkscape:connector-curvature="0" />
        <path
           id="path5401"
           d="m 159.26,-123.99 c -6.7506,-0.73578 -14.49,-0.79884 -20.626,-0.73797 l -77.264,0.77714 c -6.1049,0.0606 -7.4652,0.75729 -7.6693,2.4587 l -6.3329,0.2929 c -3.3428,0.15925 -5.7084,3.862 -6.062,7.1898 l -16.517,134.52 -16.517,134.52 c -0.46199,3.3146 0.93761,7.4796 4.1426,8.4428 l 6.0739,1.8163 c -0.21359,1.7002 0.93778,2.7053 6.8467,4.241 l 74.781,19.446 c 13.575,3.5281 35.441,8.4457 37.127,0.96941 l 1.1823,-5.2702 46.433,5.7012 0.43416,-3.536 20.937,2.5707 38.889,-141.85 -3.4179,-147.04 -20.937,-2.5707 0.43416,-3.5359 -46.433,-5.7012 0.12776,-5.3997 c 0.097,-4.31 -6.9534,-6.3574 -15.633,-7.3033 z"
           inkscape:connector-curvature="0" />
        <path
           id="path5403"
           d="m 270.03,-122.38 c -8.4511,0.004 -15.71,3.7538 -17.688,7.2188 l -18,-1.2188 c -4.4536,-0.59287 -7.9429,2.698 -9.0938,14.125 1.2868,36.337 -12.054,157.66 -21.125,236.06 -4.0542,35.041 -20.832,45.896 -38.75,58.062 l -0.90625,7.125 c -3.7536,29.617 1.5689,41.852 26,44.531 l 84.812,9.2812 c 94.12,10.323 88.548,110.62 51.688,158.47 -7.4814,9.7107 5.3928,14.561 18.031,17.156 16.415,3.3713 33.207,8.8534 35.719,33.562 3.4082,33.53 1.8422,67.54 6.5938,100.91 l 26.406,185.34 4.3125,2.5 v 3.4062 l -1.9688,1.5938 -2.5,20.719 c -0.91524,7.5834 -6.1259,12.634 -14.281,14.281 -13.064,2.6393 -26.566,3.0961 -39.469,6.4375 -16.298,4.2207 -31.585,9.2056 -49.469,24.281 v 20.906 c 10.188,3.3907 22.604,2.9107 30.375,10.531 -6.3861,7.6924 -12.477,15.79 -26.062,15.531 -8.5799,-0.16336 -19.307,5.2 -19.844,12.031 l -1.5938,20.469 5.875,14.469 c 3.5025,8.5971 18.683,14.085 37.875,15.531 l 136.78,10.312 v 26.25 c 0,4.1076 4.7362,8.5938 8.8438,8.5938 h 112.62 c 3.8805,0 8.8438,-3.682 8.8438,-7.5625 v -27.531 c 22.71,0.32367 27.236,-2.482 35.562,-4.4062 36.613,-3.2573 75.293,-5.2103 90.562,-21.906 l -0.375,-4.8125 3.2188,-1.625 v -10.188 l 24.656,0.375 c 28.132,0.4077 49.771,-43.287 10.531,-64.469 -21.083,-11.381 -49.257,-17.087 -73.219,-28.938 -20.697,-10.236 -30.135,-31.979 -33.406,-45 v -2.5 l -1.4062,-1.4062 v -2.3438 l 1.9688,-1.4062 v -24.781 c -13.286,3.1951 -22.288,6.7707 -79.812,6.0625 -29.054,-0.35772 -55.496,-21.375 -63.125,-60.094 l -30.219,-153.38 c -4.4122,-22.393 -13.062,-42.883 1.4375,-68.875 8.2573,-14.802 2.358,-35.471 -1.0312,-52 -10.324,-50.349 -15.462,-74.434 -18.156,-107.59 -4.6812,-57.622 26.488,-69.572 65.656,-67.688 l 199.5,9.5938 c 12.363,0.59468 35.763,0.51656 32.812,47.5 l 47.5,4.5312 c 10.666,1.0212 21.902,-0.46069 31.812,-4.5312 9.5622,-3.9273 17.634,-11.189 24.75,-18.688 31.785,-33.496 64.496,-90.024 68.188,-133.34 1.3864,-16.27 -4.251,-15.792 -8.0938,-21.719 v -16.688 c 9.9483,-12.516 9.7172,-24.173 -3.0312,-35.344 l -4.0312,-16.656 c 5.3316,-16.808 -0.64903,-27.986 -14.156,-35.375 -7.999,-19.998 -16.194,-29.891 -40.406,-34.844 l -15.719,-3.2188 c 0.21413,-36.768 -46.793,-28.5 -53.531,-10.938 l -158.03,-21.875 -0.25,-5.2188 -14.188,-6.7188 c -13.975,1.0289 -26.659,2.5978 -40.594,2.2188 -45.43,-1.2358 -86.048,-7.3802 -114.22,-13.031 -14.613,-2.9314 -26.822,-6.4781 -36.562,-10.656 l -16.375,3.8125 -1.375,6.5312 -126.06,-16.531 c -6.7212,-11.492 -16.361,-15.223 -24.812,-15.219 z m 481.78,969.81 c 8.7868,0 15.906,7.1194 15.906,15.906 0,8.7866 -7.1194,15.906 -15.906,15.906 -8.7866,0 -15.906,-7.1194 -15.906,-15.906 0,-8.7866 7.1194,-15.906 15.906,-15.906 z"
           inkscape:connector-curvature="0"
           style="fill:#efb525" />
        <path
           id="path5405"
           d="m 845.5,260.15 c 0,4.0447 -3.2789,7.3236 -7.3236,7.3236 -4.0447,0 -7.3236,-3.2789 -7.3236,-7.3236 0,-4.0447 3.2789,-7.3236 7.3236,-7.3236 4.0447,0 7.3236,3.2789 7.3236,7.3236 z"
           inkscape:connector-curvature="0"
           style="color:#000000" />
        <path
           id="path5407"
           d="m 250.52,195 c 0,5.021 -4.0704,9.0914 -9.0914,9.0914 -5.021,0 -9.0914,-4.0703 -9.0914,-9.0914 0,-5.0211 4.0704,-9.0914 9.0914,-9.0914 5.021,0 9.0914,4.0703 9.0914,9.0914 z"
           inkscape:connector-curvature="0"
           style="color:#000000" />
        <path
           id="path5409"
           d="m 250.52,195 c 0,5.021 -4.0704,9.0914 -9.0914,9.0914 -5.021,0 -9.0914,-4.0703 -9.0914,-9.0914 0,-5.0211 4.0704,-9.0914 9.0914,-9.0914 5.021,0 9.0914,4.0703 9.0914,9.0914 z"
           transform="matrix(0.84287,0,0,0.84287,70.081,-265.56)"
           inkscape:connector-curvature="0"
           style="color:#000000" />
        <path
           id="path5411"
           d="m 250.52,195 c 0,5.021 -4.0704,9.0914 -9.0914,9.0914 -5.021,0 -9.0914,-4.0703 -9.0914,-9.0914 0,-5.0211 4.0704,-9.0914 9.0914,-9.0914 5.021,0 9.0914,4.0703 9.0914,9.0914 z"
           transform="matrix(0.84287,0,0,0.84287,632.41,-203.71)"
           inkscape:connector-curvature="0"
           style="color:#000000;fill:none" />
        <path
           id="path5413"
           d="m 250.52,195 c 0,5.021 -4.0704,9.0914 -9.0914,9.0914 -5.021,0 -9.0914,-4.0703 -9.0914,-9.0914 0,-5.0211 4.0704,-9.0914 9.0914,-9.0914 5.021,0 9.0914,4.0703 9.0914,9.0914 z"
           transform="matrix(0.72501,0,0,0.72501,526.03,727.77)"
           inkscape:connector-curvature="0"
           style="color:#000000" />
        <path
           id="path5415"
           d="m 250.52,195 c 0,5.021 -4.0704,9.0914 -9.0914,9.0914 -5.021,0 -9.0914,-4.0703 -9.0914,-9.0914 0,-5.0211 4.0704,-9.0914 9.0914,-9.0914 5.021,0 9.0914,4.0703 9.0914,9.0914 z"
           transform="matrix(1.954,0,0,1.954,-82.833,504.17)"
           inkscape:connector-curvature="0"
           style="color:#000000" />
        <path
           id="path5417"
           d="m 461.23,-25.495 -20.497,166.93 263.37,32.337 c 6.2841,0.7716 11.971,-3.6432 12.742,-9.9274 l 17.713,-144.26 c 0.77159,-6.2841 -3.6742,-11.975 -9.9584,-12.746 l -263.37,-32.337 z"
           inkscape:connector-curvature="0"
           style="color:#000000" />
        <rect
           id="rect5419"
           ry="5.5939002"
           rx="5.5939002"
           height="155.06"
           width="18.688"
           y="-74.949997"
           x="429.92999"
           transform="matrix(0.99255,0.12187,-0.12187,0.99255,0,0)"
           style="color:#000000" />
        <path
           id="path5421"
           d="m 754.05,16.158 c -2.126,-0.26104 -4.0573,1.2479 -4.3184,3.3739 l -1.0816,8.8088 c -0.26105,2.126 1.2517,4.0263 3.3777,4.2873 l 54.001,6.6305 c 2.126,0.26104 4.4695,-1.2253 4.3026,-3.5017 -0.77833,-10.614 -21.208,-15.292 -38.26,-17.386 l -18.021,-2.2127 z m -4.5522,34.767 c -1.9787,-0.24296 -3.762,1.1503 -4.0049,3.129 l -1.1463,9.3361 c -0.24295,1.9787 1.1465,3.793 3.1252,4.0359 l 88.864,10.911 c 2.425,0.29776 10.512,0.99054 6.8878,-7.1199 -1.3976,-3.1273 -2.6995,-6.3089 -4.3654,-9.3202 l -89.36,-10.972 z m -4.273,34.801 c -1.9787,-0.24296 -3.762,1.1503 -4.0049,3.129 l -1.1501,9.3672 c -0.24296,1.9787 1.1503,3.762 3.129,4.0049 l 99.193,12.179 c 1.9787,0.24296 3.793,-1.1465 4.036,-3.1252 l 1.1501,-9.3672 c 0.24295,-1.9787 -1.1813,-3.7658 -3.16,-4.0087 l -99.193,-12.179 z m -4.273,34.801 c -1.9787,-0.24296 -3.7658,1.1813 -4.0087,3.16 l -1.1463,9.3361 c -0.24296,1.9787 1.1503,3.762 3.129,4.0049 l 89.36,10.972 c 2.345,-2.5189 4.3779,-5.291 6.4905,-7.9873 5.4791,-6.9926 -2.5357,-8.277 -4.9607,-8.5747 l -88.864,-10.911 z m -3.9977,34.866 c -2.126,-0.26104 -4.0535,1.2168 -4.3146,3.3429 l -1.0816,8.8088 c -0.26104,2.126 1.2479,4.0573 3.3739,4.3184 l 18.021,2.2127 c 17.052,2.0938 38.01,2.466 41.334,-7.6447 0.7127,-2.1685 -1.2054,-4.1466 -3.3314,-4.4076 l -54.001,-6.6305 z"
           inkscape:connector-curvature="0"
           style="color:#000000" />
        <path
           id="path5423"
           d="m 796.65,23.623 -1.7519,14.268 11.135,1.3672 c 0.4775,0.05863 0.9615,-9.6e-4 1.43,-0.10778 l 1.0016,-8.1575 c -2.317,-3.0681 -6.5911,-5.4803 -11.815,-7.3698 z m -4.0026,32.599 -2.0261,16.501 12.531,1.5386 2.0261,-16.501 z m -4.273,34.801 -2.0261,16.501 12.531,1.5386 2.0261,-16.501 z m -4.273,34.801 -2.0261,16.501 12.531,1.5386 2.0261,-16.501 z m -4.2768,34.832 -1.7481,14.237 c 5.5258,-0.57514 10.256,-1.8734 13.247,-4.2926 l 0.99781,-8.1265 c -0.42908,-0.21456 -0.88399,-0.3919 -1.3615,-0.45053 l -11.135,-1.3672 z"
           inkscape:connector-curvature="0"
           style="color:#000000;fill:#b96112" />
        <rect
           id="rect5425"
           ry="22.679001"
           rx="22.679001"
           height="45.356998"
           width="88.929001"
           y="131.35001"
           x="306.45999"
           transform="matrix(0.99255,0.12187,-0.12187,0.99255,0,0)"
           style="color:#000000;fill:none" />
      </g>
    </g>
  </g>
</svg>
