<?xml version="1.0" encoding="UTF-8"?>
<svg width="510.42mm" height="345.12mm" version="1.1" viewBox="0 0 1808.5714 1222.8571" xmlns="http://www.w3.org/2000/svg">
 <g transform="translate(1260 139.07)">
  <rect x="-1260" y="-139.07" width="1808.6" height="1222.9" fill="#fdefba" fill-rule="evenodd"/>
  <path d="m-854.61 498.25-24.177-24.351-12.567 29.295-15.468-30.63-21.005 23.977-5.2461-33.911-27.386 16.313 5.4897-33.872-31.087 7.0517 15.688-30.518-31.744-2.8997 24.351-24.177-29.295-12.567 30.63-15.468-23.977-21.005 33.911-5.2461-16.313-27.386 33.872 5.4897-7.0517-31.087 30.518 15.688 2.8997-31.744 24.177 24.351 12.567-29.295 15.468 30.63 21.005-23.977 5.2461 33.911 27.386-16.313-5.4897 33.872 31.087-7.0517-15.688 30.518 31.744 2.8997-24.351 24.177 29.295 12.567-30.63 15.468 23.977 21.005-33.911 5.2461 16.313 27.386-33.872-5.4897 7.0517 31.087-30.518-15.688z" fill="#fce68d" fill-rule="evenodd"/>
  <path d="m-1260 386.65 37.17-45.048 106.01 128.09 126.23-134.67 122.42 110.83 68.176-67.645 37.591 36.984 58.383-77.143 192.6 195.74 145.71-114.29 77.143 94.286 187.04-127.95 132.96 100.8 139.29-52.681 89.423 122.79 138.92-132.25 149.51 100.72v241.43h-1808.6z" fill="#e1f5fe" fill-rule="evenodd" opacity=".898"/>
  <path d="m-1260 685.79v-226.27l134.35 183.85z" fill="#cfd8dc" fill-rule="evenodd"/>
  <path d="m-1223.4 602.41 128.74-198 155.05 263.15-284.66-64.984z" fill="#cfd8dc" fill-rule="evenodd"/>
  <path d="m-1016 608.83 92.391-116.99 37.266 34.659 100.06-107.97 103.69 176.89-56.172 88.738-252.65 2.4934z" fill="#cfd8dc" fill-rule="evenodd"/>
  <path d="m-728.65 588.78 76.499-128.69 81.079-67.242 27.274-38.386 62.629 84.853 65.66 95.964 90.171 59.257-289.08 78.562z" fill="#cfd8dc" fill-rule="evenodd"/>
  <path d="m-447.32 576.76 109.38-123.31 41.63 84.862 49.497-21.213 97.156 131.18-44.624 59.796z" fill="#cfd8dc" fill-rule="evenodd"/>
  <path d="m179.94 579.49 70.24-58.352 67.68-101.02 28.284-27.274 63.64-43.437 63.212 34.102 47.905-12.889 27.672 23.234v372.79l-356.7-114.73z" fill="#cfd8dc" fill-rule="evenodd"/>
  <path d="m-195.84 585.93 120.75-89.033 88.894 32.325 45.457-94.954 61.619 104.05 120.55 84.054-93.927 110.05-341.79-24.331z" fill="#cfd8dc" fill-rule="evenodd"/>
  <path d="m-1260 609.51 140-27.143 157.14 40 154.29-57.143 208.57 50 187.14-47.143 184.29 55.714 165.71 51.429 222.86-4.2857 81.429-48.571 195.71 21.429 111.43 44.286v78.571h-1808.6z" fill="#b9f6ca" fill-rule="evenodd"/>
  <path d="m-1180 766.65 95.714-64.286 92.857-15.714 108.57-40 102.86 35.714 98.571 4.2857 127.14-25.714 68.951 75.152 171.91-8.3331 119.13-19.676 122.86 20 87.143-22.857 68.571-47.143 75.714 12.857 247.14 61.429 141.43-7.1429v41.429z" fill="#69f0ae" fill-rule="evenodd"/>
  <rect x="-1260" y="766.65" width="1808.6" height="317.14" fill="#2962ff" fill-rule="evenodd"/>
  <path d="m-1043.8 938.33s203.19 27.32 222.23 48.487c19.044 21.167-244.46 96.975-244.46 96.975h-193.95z" fill="#b2ebf2" fill-rule="evenodd"/>
  <path d="m-1260 813.07s86.819 25.035 123.24 46.467 62.482 55.977 92.934 78.792 101.58 34.007 145.46 48.487c43.883 14.48-110.51 35.777-147.48 50.508s-94.832 40.202-131.32 46.467-82.832 0-82.832 0z" fill="#00c853" fill-rule="evenodd"/>
  <path d="m83.503 1083.8s-202.76-37.012-222.23-54.548c-16.274-14.654-40.912-33.473-36.366-56.569s7.1384-24.216 60.609-42.426c53.471-18.21 264.66-12.122 264.66-12.122l200.01 165.67z" fill="#b2ebf2" fill-rule="evenodd"/>
  <path d="m188.56 1083.8s-115.76-23.5-165.66-40.406-110.4-30.887-133.34-58.589c-11.777-14.222 63.646-26.684 107.08-38.386s103.97-21.64 153.54-28.284 103.84-2.5145 143.44-12.122 60.6-30.243 92.934-38.386 71.999-5.7115 98.995-10.101 63.028-14.142 63.028-14.142v240.42z" fill="#00c853" fill-rule="evenodd"/>
  <path d="m-1260 706.65s67.082 6.937 97.857 17.143 33.364 20.154 75.714 23.571c42.35 3.4174 86.35-11.383 158.57-36.429 72.222-25.046 41.314 25.928 102.86 34.286s251.12-48.867 309.29-31.429 144.18-21.866 205.71-11.429 155.71 64.286 155.71 64.286h260s77.476-70.141 131.43-85.714 127.33 12.364 180 2.8572 131.43-51.429 131.43-51.429v134.29h-1808.6v-30z" fill="#00e676" fill-rule="evenodd"/>
  <path transform="translate(-1260 -139.07)" d="m746.02 816.1v89.611h35.504v-89.611h-35.504zm77.791 21.832v67.779h18.135v-67.779h-18.135z" fill="#eceff1" fill-rule="evenodd"/>
  <path transform="translate(-1260 -139.07)" d="m804.23 800.01v105.71h16.092v-105.71h-16.092zm52.273 13.672v92.037h15.217v-92.037h-15.217zm65.055 18.744v73.293h15.656v-73.293h-15.656zm-87.266 11.865v61.428h20.566v-61.428h-20.566zm-98.299 5.291v56.137h16.375v-56.137h-16.375z" fill="#cfd8dc" fill-rule="evenodd"/>
  <path transform="translate(-1260 -139.07)" d="m774.67 786.58v88.57h-44.908v30.562h77.965v-119.13h-33.057zm46.779 6.8613v112.27h12.848v-112.27h-12.848zm26.82 26.531v85.74h32.648v-85.74h-32.648zm45.531 24.615v61.125h32.434v-61.125h-32.434z" fill="#b0bec5" fill-rule="evenodd"/>
  <path d="m86.141 163.37s12.77-14.682 19.347-16.929c6.5766-2.2464 15.961 0.96734 15.961 0.96734s-0.43512-8.6549 5.8041-13.059c6.2392-4.4042 31.439-2.4184 31.439-2.4184" fill="none" opacity=".332" stroke="#000" stroke-linecap="round" stroke-linejoin="round" stroke-width="4.516"/>
  <path d="m-136.43 145.37s8.3548-2.264 11.341-1.4658c2.9867 0.7982 5.6592 4.3096 5.6592 4.3096s1.9822-3.3063 5.3785-3.3891 12.217 6.8906 12.217 6.8906" fill="none" opacity=".212" stroke="#000" stroke-linecap="round" stroke-linejoin="round" stroke-width="2.0089"/>
  <path d="m-57.022 250.44s26.927-7.2969 36.553-4.7243 18.239 13.89 18.239 13.89 6.3885-10.656 17.335-10.923c10.946-0.26686 39.376 22.208 39.376 22.208" fill="none" opacity=".84" stroke="#000" stroke-linecap="round" stroke-linejoin="round" stroke-width="6.4747"/>
  <g transform="matrix(.78243 0 0 .78243 -177.92 181.88)" fill="#e0f7fa" fill-rule="evenodd">
   <g transform="matrix(.46429 0 0 .46429 -547.12 287.64)">
    <path d="m-657 1160.9a37.073 40 0 0 1 -18.537 34.641 37.073 40 0 0 1 -37.073 0 37.073 40 0 0 1 -18.537 -34.641h37.073z"/>
    <path d="m-582.86 1160.9a37.073 40 0 0 1 -18.537 34.641 37.073 40 0 0 1 -37.073 0 37.073 40 0 0 1 -18.537 -34.641h37.073z"/>
   </g>
   <g transform="matrix(.46429 0 0 .46429 -478.27 287.64)">
    <path d="m-657 1160.9a37.073 40 0 0 1 -18.537 34.641 37.073 40 0 0 1 -37.073 0 37.073 40 0 0 1 -18.537 -34.641h37.073z"/>
    <path d="m-582.86 1160.9a37.073 40 0 0 1 -18.537 34.641 37.073 40 0 0 1 -37.073 0 37.073 40 0 0 1 -18.537 -34.641h37.073z"/>
   </g>
  </g>
  <g fill="#e0f7fa" fill-rule="evenodd">
   <g transform="matrix(.46429 0 0 .46429 -334.27 427.64)">
    <path d="m-657 1160.9a37.073 40 0 0 1 -18.537 34.641 37.073 40 0 0 1 -37.073 0 37.073 40 0 0 1 -18.537 -34.641h37.073z"/>
    <path d="m-582.86 1160.9a37.073 40 0 0 1 -18.537 34.641 37.073 40 0 0 1 -37.073 0 37.073 40 0 0 1 -18.537 -34.641h37.073z"/>
   </g>
   <g transform="matrix(.46429 0 0 .46429 -265.42 427.64)">
    <path d="m-657 1160.9a37.073 40 0 0 1 -18.537 34.641 37.073 40 0 0 1 -37.073 0 37.073 40 0 0 1 -18.537 -34.641h37.073z"/>
    <path d="m-582.86 1160.9a37.073 40 0 0 1 -18.537 34.641 37.073 40 0 0 1 -37.073 0 37.073 40 0 0 1 -18.537 -34.641h37.073z"/>
   </g>
  </g>
  <g transform="matrix(.38254 0 0 .38254 -156.2 387.03)" fill="#e0f7fa" fill-rule="evenodd">
   <path d="m-657 1160.9a37.073 40 0 0 1 -18.537 34.641 37.073 40 0 0 1 -37.073 0 37.073 40 0 0 1 -18.537 -34.641h37.073z"/>
   <path d="m-582.86 1160.9a37.073 40 0 0 1 -18.537 34.641 37.073 40 0 0 1 -37.073 0 37.073 40 0 0 1 -18.537 -34.641h37.073z"/>
  </g>
  <g transform="matrix(.38254 0 0 .38254 -99.468 387.03)" fill="#e0f7fa" fill-rule="evenodd">
   <path d="m-657 1160.9a37.073 40 0 0 1 -18.537 34.641 37.073 40 0 0 1 -37.073 0 37.073 40 0 0 1 -18.537 -34.641h37.073z"/>
   <path d="m-582.86 1160.9a37.073 40 0 0 1 -18.537 34.641 37.073 40 0 0 1 -37.073 0 37.073 40 0 0 1 -18.537 -34.641h37.073z"/>
  </g>
  <g transform="matrix(.6753 0 0 .6753 497.86 137.87)" fill="#e0f7fa" fill-rule="evenodd">
   <g transform="matrix(.46429 0 0 .46429 -334.27 427.64)">
    <path d="m-657 1160.9a37.073 40 0 0 1 -18.537 34.641 37.073 40 0 0 1 -37.073 0 37.073 40 0 0 1 -18.537 -34.641h37.073z"/>
    <path d="m-582.86 1160.9a37.073 40 0 0 1 -18.537 34.641 37.073 40 0 0 1 -37.073 0 37.073 40 0 0 1 -18.537 -34.641h37.073z"/>
   </g>
   <g transform="matrix(.46429 0 0 .46429 -265.42 427.64)">
    <path d="m-657 1160.9a37.073 40 0 0 1 -18.537 34.641 37.073 40 0 0 1 -37.073 0 37.073 40 0 0 1 -18.537 -34.641h37.073z"/>
    <path d="m-582.86 1160.9a37.073 40 0 0 1 -18.537 34.641 37.073 40 0 0 1 -37.073 0 37.073 40 0 0 1 -18.537 -34.641h37.073z"/>
   </g>
  </g>
  <path d="m-264.8 194.23h151.29s15.197-5.929 16.81-12.99c1.6133-7.0606-2.5593-15.309-9.9332-19.866s-21.463-2.1752-29.8 0 0 0 0 0 43.406-71.928-25.8-50.564c-14.527 4.4846-33.035 42.969-33.035 42.969s4.4139-16.336-1.5282-26.271c-5.9421-9.9354-22.818-23.075-35.148-21.395-12.33 1.6801-34.442 28.121-36.923 38.451-2.4808 10.33 22.405 29.035 22.405 29.035s-27.346-19.987-37.44-16.046c-10.094 3.9412-13.113 13.251-9.9332 22.159 3.1795 8.9072 29.035 14.518 29.035 14.518z" fill="#f9f9f9" fill-rule="evenodd"/>
  <path transform="translate(-1260 -139.07)" d="m864.7 774.73v130.98h45.621v-130.98h-45.621zm-67.791 38.672v92.312h26.908v-92.312h-26.908zm-37.709 25.15v67.162h34.215v-67.162h-34.215zm75.096 11.025v56.137h26.91v-56.137h-26.91zm83.012 17.24v38.896h29.275v-38.896h-29.275z" fill="#90a4ae" fill-rule="evenodd"/>
  <path d="m-966.87 621.34s0.51275 11.099 1.5166 15.665 4.8396 6.6382 5.5357 11.071 0.31336 8.5245-2.205 14.379-14.532 18.714-14.532 18.714l4.1366-1.524s9.2609-10.07 11.771-15.506 4.1339-11.172 3.5232-16.074-4.9108-7.844-5.896-11.792-0.28597-11.225-0.28597-11.225l0.45227-2.686z" fill="#2962ff" fill-rule="evenodd"/>
  <path d="m-1094.7 404.41 18.531 125.81 27.163 70.21 82.116 20.902z" fill="#e4e9ec" fill-rule="evenodd"/>
  <path d="m-923.62 491.84 27.274 72.731 9.9772-38.074z" fill="#e4e9ec" fill-rule="evenodd"/>
  <path d="m-786.29 418.53-46.437 105.12 0.74381 50.247 149.38 21.525z" fill="#e4e9ec" fill-rule="evenodd"/>
  <path d="m-571.08 392.85-67.609 148.12-13.47-80.873z" fill="#e4e9ec" fill-rule="evenodd"/>
  <path d="m-543.8 354.46 0.95135 142.9 127.34 37.918z" fill="#e4e9ec" fill-rule="evenodd"/>
  <path d="m-337.94 453.45-19.99 80.821 109.03 83.375 43.644 13.382-91.051-92.716z" fill="#e4e9ec" fill-rule="evenodd"/>
  <path d="m-75.091 496.89 46.467 117.18 63.594 59.268-21.168-144.12z" fill="#e4e9ec" fill-rule="evenodd"/>
  <path d="m59.259 434.26 23.234 98.995 158.94 89.105-120.55-84.054z" fill="#e4e9ec" fill-rule="evenodd"/>
  <path d="m409.78 349.41 50.508 223.24 12.704-189.14z" fill="#e4e9ec" fill-rule="evenodd"/>
  <path d="m317.86 420.12-27.219 63.751-40.462 37.264z" fill="#e4e9ec" fill-rule="evenodd"/>
  <path d="m520.9 370.62 27.672 77.782v-54.548z" fill="#e4e9ec" fill-rule="evenodd"/>
  <path d="m-571.08 392.85s1.6929-2.737 3.4521-2.3605 2.2729 4.1015 3.4521 5.6395 2.1252 3.1493 3.4521 3.6395 2.2548 0.0792 3.4521-0.36046c1.1973-0.43963 1.693-2.737 3.4521-2.3605s1.9453 4.8954 3.4521 5.6395 2.1252-0.85067 3.4521-0.36047 3.4521 3.6395 3.4521 3.6395 1.544-5.379 3.2612-5.7808 2.1248 1.827 3.2613 2.2192 1.9909 0.7503 3.2613 0.21922 2.1742-2.5205 3.2612-3.7808c1.0871-1.2603 1.9909-3.2497 3.2613-3.7808s1.8084 1.0035 3.2612 0.21922 1.544-5.379 3.2613-5.7808 3.2612 2.2192 3.2612 2.2192l-26.433-37.256z" fill="#f9f9f9" fill-rule="evenodd"/>
  <path d="m346.14 392.85s9.0716 4.6865 13.89 5.0102 9.5355-2.6374 13.89-2.9898 7.9362-0.25223 11.987 0.6054c4.0508 0.85762 7.9948 2.9631 11.987 4.6054s7.7547 4.8547 11.958 5.2503 7.6399-1.2373 11.958-2.7497 8.7031-6.3978 13.683-6.5727 9.4314 4.6694 13.683 5.4273 7.4012-0.84332 11.19-0.27782c3.7892 0.56549 8.1785 2.1922 11.19 3.7222s4.2446 4.652 6.9043 4.9175c2.6597 0.26549 3.466-1.5466 6.9043-3.0825s8.732-6.0935 13.725-6.1346c4.9931-0.0411 9.4928 5.7323 13.725 5.8654s6.325-3.6579 9.877-3.5049 6.5982 4.508 9.877 4.4951 5.0184-3.8015 7.9998-3.7172 7.9998 4.2828 7.9998 4.2828v-14.142l-27.672-23.234-47.905 12.889-63.212-34.102z" fill="#f9f9f9" fill-rule="evenodd"/>
  <path d="m97.056 54.867h168.05s18.055-5.5505 19.351-15.277c1.2962-9.7268-10.772-25.768-20.37-27.499-9.5979-1.731-20.37 13.24-20.37 13.24s21.269-23.956 22.407-35.647c1.1375-11.691-4.7675-21.109-10.185-26.481-5.4173-5.372-6.9941-5.4314-16.296-6.1109-9.3016-0.67944-30.929-0.54877-37.684 8.1479-6.7554 8.6966-2.9815 17.499-2.9815 17.499s2.5424-34.376-7.2033-43.98c-9.7457-9.6039-17.238-4.5433-26.481-5.0924-9.243-0.54914-22.899-2.9743-28.518 2.037-5.618 5.0113-3.3852 8.4328-3.0554 16.296 0.32974 7.8629 4.1479 19.536 4.1479 19.536s-8.8502-25.68-21.462-37.869c-12.612-12.189-33.381-22.343-45.832-22.407-31.978 11.527-71.049 41.395-30.554 62.127 40.494 20.733-6.5936 3.6793-26.481 23.425-10.669 11.752-17.316 23.691-11.203 34.628 6.1128 10.937 25.116 9.7996 37.684 9.1663 12.568-0.63324 24.628-8.2218 24.628-8.2218s-14.147 14.239-10.37 23.499c3.7773 9.2605 18.171 4.539 25.462 4.0739 7.2908-0.46502 17.314-5.0924 17.314-5.0924z" fill="#fff" fill-rule="evenodd"/>
  <path d="m386.27 189.51h-61.592s-5.173-3.1057-5.9297-5.9297c-0.75669-2.824-0.22216-6.8551 2.3697-8.8439s6.4617-1.0676 10.446 0 12.387 7.1515 12.387 7.1515-7.0679-5.6443-5.8604-10.151c1.2074-4.5063 8.7493-7.432 14.091-8.1352 5.3413-0.7032 12.486 0.21831 15.507 4.1551 3.0208 3.9368 0 13.719 0 13.719s3.3136-6.1491 7.187-7.187c3.8733-1.0379 10.807 0.98127 13.422 3.5965 2.6153 2.6153 2.8228 5.8116 2.147 8.0127-0.67578 2.2011-4.1743 3.6115-4.1743 3.6115z" fill="#f2f2f2" fill-rule="evenodd"/>
  <path d="m405.53 797.54-6.334 82.352-5.7383-74.588-7.6914 100h15.385l-0.5977-7.7637h12.67l-7.6934-100z" fill="#1b5e20" fill-rule="evenodd"/>
  <path d="m480.88 770.43-2.8145 36.582-2.7676-35.973-6.5371 85-0.123-1.5937-3.6582 47.541-0.9004-11.711-5.8457 76.012-2.5996-33.787h3.2246l-7.6914-100-4.2676 55.482-6.5703-85.412-7.6914 100h13.139l-2.3028 29.93h4.5508l-3.4707 45.123-1.9863-25.82-7.6914 100h15.385l-5.291-68.77h11.975l-0.5566 7.2421h2.3887l-0.1856 2.3985h8.416l-2.3945 31.113h6.7129l-3.916 50.891h15.385l-3.914-50.891h1.1172l-3.3614-43.707h4.8555l-7.6934-100-1.5937 20.73-2.291-29.772h13.078l-0.0469-0.6094h5.627l-7.6914-100z" fill="#1b5e20" fill-rule="evenodd"/>
  <path d="m502.68 803.44-7.6933 100h0.7363l-2.957 38.441h15.385l-2.957-38.441h5.1777l-7.6914-100z" fill="#1b5e20" fill-rule="evenodd"/>
  <path d="m363.05 876.46-7.6915 100h15.383l-7.6914-100z" fill="#1b5e20" fill-rule="evenodd"/>
  <path d="m290.89 820.26-7.6933 100h15.209l-5.2383 68.1h15.385l-7.6914-100-2.3672 30.764-7.6035-98.863z" fill="#1b5e20" fill-rule="evenodd"/>
  <path d="m518.94 836.33-7.6934 100h15.385l-7.6914-100z" fill="#1b5e20" fill-rule="evenodd"/>
  <path d="m423.72 844.59-7.6914 100h1.8965l-5.5 71.5h15.385l-1.7793-23.127h5.375l-3.7207-48.373h3.7286l-7.6934-100z" fill="#1b5e20" fill-rule="evenodd"/>
  <path d="m339.36 968.46-7.6914 100h15.385l-7.6934-100z" fill="#1b5e20" fill-rule="evenodd"/>
  <path d="m223.83 875.2-2.8711 37.309-0.6289-8.1856-7.6914 100h15.385l-2.2402-29.123h5.7383l-7.6914-100z" fill="#1b5e20" fill-rule="evenodd"/>
  <path d="m160.5 887.05-7.6171 99.047-2.2754-29.574-0.3789 4.92-3.3477-43.518-7.6914 100h6.6934l-2.9688 38.598h15.385l-1.6231-21.098h11.088l-3.7207-48.375h4.1504l-7.6934-100z" fill="#1b5e20" fill-rule="evenodd"/>
  <path d="m271.49 887.31-7.6933 100h5.1269l-1.9707 25.623h9.5039l-5.5449 72.088h15.385l-5.5469-72.088h1.5879l-7.6914-100-0.5938 7.705-2.5625-33.328z" fill="#1b5e20" fill-rule="evenodd"/>
  <path d="m42.654 913.15-7.6914 100h15.385l-7.6934-100z" fill="#1b5e20" fill-rule="evenodd"/>
  <path d="m26.057 918.04-2.705 35.156-1.6504-21.463-7.6934 100h15.385l-1.0528-13.693h5.4082l-7.6914-100z" fill="#1b5e20" fill-rule="evenodd"/>
  <path d="m-27.691 903.79-7.6933 100h15.385l-7.6914-100z" fill="#1b5e20" fill-rule="evenodd"/>
  <path d="m175.13 966.94-7.6934 100h15.385l-7.6914-100z" fill="#1b5e20" fill-rule="evenodd"/>
  <path d="m152.95 987.05h3.1446l-1.5723 20.439-1.5723-20.439z" fill="#1b5e20" fill-rule="evenodd"/>
  <path d="m107.69 843.79-7.6933 100h15.385l-7.6914-100z" fill="#1b5e20" fill-rule="evenodd"/>
  <path d="m-1020 903.79-7.6934 100h15.385l-7.6914-100z" fill="#1b5e20" fill-rule="evenodd"/>
  <path d="m-1158.2 804.34-4.5996 59.787-0.836-10.865-4.8671 63.291-5.1622-67.09-7.6894 99.98-0.7422-9.6407-1.166 15.16-2.7539-35.81h6.3398l-7.6914-100-5.0586 65.758-5.0527-65.662-7.6914 100h9.9141l-7.5235 97.787h14.744l-1.752 22.768h15.385l-6.9493-90.34h10.318l-0.293 3.7988h6.6075l-4.0489 52.645h6.3184l-3.3789 43.926h15.385l-3.3789-43.926h0.4395l-4.0508-52.645h1.4922l-3.7637-48.922h9.1973l-7.6914-100z" fill="#1b5e20" fill-rule="evenodd"/>
  <path d="m-1249.7 803.65-7.6914 100h9.8653l-2.1504 27.963h15.385l-0.2675-3.4765h12.016l-1.6016 20.809h15.385l-7.6914-100-0.7852 10.211-2.7207-35.367-4.2011 54.617-3.8672-50.27-7.1133 92.459-6.8457-88.982-2.7813 36.162-4.9336-64.125z" fill="#1b5e20" fill-rule="evenodd"/>
  <path d="m-1049.2 854.31-4.4785 58.205-4.1719-54.236-3.6309 47.211-1.7597-22.871-4.9239 64.018-1.7597-22.881-1.7481 22.717-6.6016-85.812-5.9257 77.035-1.6602-21.592-7.6933 100h0.9335l-2.2343 29.031h15.385l-2.2324-29.031h3.5332l-4.2637-55.443h9.668l-4.8535 63.096h15.385l-3.1641-41.137h9.8496l-1.873-24.34h7.2636l-0.3047-3.9688h8.9532l-7.6914-100z" fill="#1b5e20" fill-rule="evenodd"/>
  <path d="m-987.69 883.79-7.6914 100h15.385l-7.6934-100z" fill="#1b5e20" fill-rule="evenodd"/>
  <path d="m-1127.7 963.79-7.6914 100h15.385l-7.6934-100z" fill="#1b5e20" fill-rule="evenodd"/>
  <path d="m-1120.1 871.54-7.6914 100h0.037l-2.1621 28.115h15.385l-2.1621-28.115h4.2852l-7.6915-100z" fill="#1b5e20" fill-rule="evenodd"/>
  <path d="m-1180 823.79-7.6914 100h5.0645l-3.9786 51.727h6.6348l-1.2226 15.894h15.385l-2.5332-32.926h8.0176l-7.6914-100-0.2676 3.4727-0.7558-9.832-1.3633 17.715-3.4024-44.228-3.0273 39.354-3.168-41.176z" fill="#1b5e20" fill-rule="evenodd"/>
  <path d="m-1103.7 893.32-7.6934 100h15.385l-7.6914-100z" fill="#1b5e20" fill-rule="evenodd"/>
  <path d="m-1234 903.79-6.8242 88.719-4.1348-53.75-7.6914 100h15.385l-2.6894-34.969h13.648l-7.6933-100z" fill="#1b5e20" fill-rule="evenodd"/>
  <path d="m-1194.9 919.25h0.3164l-0.1582 2.0605-0.1582-2.0605z" fill="#1b5e20" fill-rule="evenodd"/>
  <path d="m-1224.4 963.36-3.9765 51.713-3.9453-51.285-7.6934 100h15.385l-0.033-0.4277h7.957l-7.6934-100z" fill="#1b5e20" fill-rule="evenodd"/>
  <path d="m-1188.8 999.25h2.0937l-1.0468 13.615-1.0469-13.615z" fill="#1b5e20" fill-rule="evenodd"/>
  <path d="m-1132.3 863.79-7.6934 100h15.385l-7.6914-100z" fill="#1b5e20" fill-rule="evenodd"/>
  <path d="m-1195.3 701.29-2.8574 20h0.6445l-2.1172 14.818h5.7149l-2.1172-14.818h3.5898l-2.8574-20z" fill="#43a047" fill-rule="evenodd"/>
  <path d="m-301.88 701.38-2.8574 20h5.7129l-2.8555-20z" fill="#43a047" fill-rule="evenodd"/>
  <path d="m-1212.8 703.14-2.8574 20h5.7149l-2.8575-20z" fill="#43a047" fill-rule="evenodd"/>
  <path d="m-890.41 704.25-2.8574 20h5.7129l-2.8555-20z" fill="#43a047" fill-rule="evenodd"/>
  <path d="m-283.77 707.04-2.8574 20h5.7129l-2.8555-20z" fill="#43a047" fill-rule="evenodd"/>
  <path d="m-661.92 709.32-2.4316 17.016-0.27343-1.918-2.8574 20h5.7148l-2.1562-15.098h4.8613l-2.8574-20z" fill="#43a047" fill-rule="evenodd"/>
  <path d="m-251.28 712-2.8574 20h5.7148l-2.8574-20z" fill="#43a047" fill-rule="evenodd"/>
  <path d="m-586.59 713.2-2.8574 20h5.7148l-2.8574-20z" fill="#43a047" fill-rule="evenodd"/>
  <path d="m-1187.1 713.48-2.8574 20h5.7129l-2.8555-20z" fill="#43a047" fill-rule="evenodd"/>
  <path d="m-717.86 723.79-2.8555 20h5.7129l-2.8574-20z" fill="#43a047" fill-rule="evenodd"/>
  <path d="m-550.93 714.45-2.8574 20h2.5781l-0.32227 2.25h5.7129l-2.8555-20-0.96679 6.7695-1.2891-9.0195z" fill="#43a047" fill-rule="evenodd"/>
  <path d="m-873.46 716.46-2.8555 20h5.7129l-2.8574-20z" fill="#43a047" fill-rule="evenodd"/>
  <path d="m-626.05 717.54-2.8555 20h5.7129l-2.8574-20z" fill="#43a047" fill-rule="evenodd"/>
  <path d="m-911.11 720.11-2.8574 20h5.7148l-2.8574-20z" fill="#43a047" fill-rule="evenodd"/>
  <path d="m-922.14 738.79-2.8555 20h5.7129l-2.8574-20z" fill="#43a047" fill-rule="evenodd"/>
  <path d="m-1245.1 722.79-2.8575 20h5.7149l-2.8574-20z" fill="#43a047" fill-rule="evenodd"/>
  <path d="m-1238.2 723.8-2.8555 20h5.7129l-2.8574-20z" fill="#43a047" fill-rule="evenodd"/>
  <path d="m-1107.9 728.79-2.8574 20h5.7149l-2.8575-20z" fill="#43a047" fill-rule="evenodd"/>
  <path d="m-238.31 726.92-2.5176 17.623-1.3515-9.459-2.8575 20h5.7149l-1.166-8.1641h5.0351l-2.8574-20z" fill="#43a047" fill-rule="evenodd"/>
  <path d="m-954.52 727.24-2.8574 20h5.7148l-2.8574-20z" fill="#43a047" fill-rule="evenodd"/>
  <path d="m-1253.2 727.98-2.8574 20h5.7129l-2.8555-20z" fill="#43a047" fill-rule="evenodd"/>
  <path d="m-985.09 718.88-2.8574 20h5.2324l-1.6269 11.389h5.5586l-1.9297 13.518h5.7129l-2.8574-20-0.8477 5.9356-2.7793-19.453-0.9883 6.9238-2.6172-18.312z" fill="#43a047" fill-rule="evenodd"/>
  <path d="m-1207.3 736.93-2.8574 20h5.7148l-2.8574-20z" fill="#43a047" fill-rule="evenodd"/>
  <path d="m-568.85 737.87-2.8574 20h5.7148l-2.8574-20z" fill="#43a047" fill-rule="evenodd"/>
  <path d="m-1178.4 738-2.8555 20h5.7129l-2.8574-20z" fill="#43a047" fill-rule="evenodd"/>
  <path d="m-784.63 738.04-2.8574 20h5.7148l-2.8574-20z" fill="#43a047" fill-rule="evenodd"/>
  <path d="m-1151.5 738.68-2.8574 20h5.7148l-2.8574-20z" fill="#43a047" fill-rule="evenodd"/>
  <path d="m-1258.4 739.06-2.8574 20h5.7149l-2.8575-20z" fill="#43a047" fill-rule="evenodd"/>
  <path d="m-207.98 739.73-2.8574 20h5.7149l-2.8575-20z" fill="#43a047" fill-rule="evenodd"/>
  <path d="m-808.3 740.79-2.8574 20h5.7148l-2.8574-20z" fill="#43a047" fill-rule="evenodd"/>
  <path d="m-828.42 741.9-2.8574 20h5.7148l-2.8574-20z" fill="#43a047" fill-rule="evenodd"/>
  <path d="m-1073.4 742.37-2.8574 20h5.7148l-2.8574-20z" fill="#43a047" fill-rule="evenodd"/>
  <path d="m-1214.5 744.42-2.8574 20h5.7148l-2.8574-20z" fill="#43a047" fill-rule="evenodd"/>
  <path d="m-682.57 745.7-2.8574 20h5.7148l-2.8574-20z" fill="#43a047" fill-rule="evenodd"/>
  <path d="m-224.33 746.42-2.8574 20h5.7148l-2.8574-20z" fill="#43a047" fill-rule="evenodd"/>
  <path d="m-1236 746.99-2.8555 20.002h5.7129l-2.8574-20.002z" fill="#43a047" fill-rule="evenodd"/>
  <path d="m-187.14 743.79-2.8574 20h5.7148l-2.8574-20z" fill="#43a047" fill-rule="evenodd"/>
  <path d="m-610 743.79-2.8574 20h5.7148l-2.8574-20z" fill="#43a047" fill-rule="evenodd"/>
  <path d="m-1022.1 743.79-2.8574 20h5.7148l-2.8574-20z" fill="#43a047" fill-rule="evenodd"/>
  <path d="m-282.14 738.79-2.8574 20h5.7148l-2.8574-20z" fill="#43a047" fill-rule="evenodd"/>
  <path d="m-1122.1 743.79-2.8574 20h5.7149l-2.8575-20z" fill="#43a047" fill-rule="evenodd"/>
  <path d="m519.83 665.12-2.8554 20h5.7129l-2.8575-20z" fill="#43a047" fill-rule="evenodd"/>
  <path d="m498.34 670.21-2.8574 20h5.7148l-2.8574-20z" fill="#43a047" fill-rule="evenodd"/>
  <path d="m516.52 682.93-2.8574 20h5.7149l-2.8575-20z" fill="#43a047" fill-rule="evenodd"/>
  <path d="m260.61 687.51-2.8555 20h5.7129l-2.8574-20z" fill="#43a047" fill-rule="evenodd"/>
  <path d="m269.65 688.5-2.8554 20h0.4961l-0.4453 3.1133h5.7128l-0.4453-3.1133h0.3946l-2.8575-20z" fill="#43a047" fill-rule="evenodd"/>
  <path d="m349.89 689.96-2.8574 20h5.7148l-2.8574-20z" fill="#43a047" fill-rule="evenodd"/>
  <path d="m461.84 690.21-2.8574 20h5.7148l-2.8574-20z" fill="#43a047" fill-rule="evenodd"/>
  <path d="m200.19 706.64-2.8574 20h0.1171l-2.4492 17.148h5.7149l-2.4492-17.148h4.7812l-2.8574-20z" fill="#43a047" fill-rule="evenodd"/>
  <path d="m343.21 694.6-2.8574 20h5.7148l-2.8574-20z" fill="#43a047" fill-rule="evenodd"/>
  <path d="m380.21 695.92-2.8574 20.002h5.7149l-2.8575-20.002z" fill="#43a047" fill-rule="evenodd"/>
  <path d="m249.81 699.93-2.8574 20h5.7149l-2.8575-20z" fill="#43a047" fill-rule="evenodd"/>
  <path d="m222.37 700.09-2.8554 20h5.7129l-2.8575-20z" fill="#43a047" fill-rule="evenodd"/>
  <path d="m439.2 700.79-2.8574 20h5.7129l-2.8555-20z" fill="#43a047" fill-rule="evenodd"/>
  <path d="m358.32 701.42-2.8574 20h5.7148l-2.8574-20z" fill="#43a047" fill-rule="evenodd"/>
  <path d="m289.26 703.01-2.8574 20h5.7148l-2.8574-20z" fill="#43a047" fill-rule="evenodd"/>
  <path d="m349.99 713.92-2.8574 20h5.7148l-2.8574-20z" fill="#43a047" fill-rule="evenodd"/>
  <path d="m320.07 717.75-2.8555 20h5.5352l-1.2949 9.0644h5.7148l-2.8574-20-1.4727 10.314-2.7695-19.379z" fill="#43a047" fill-rule="evenodd"/>
  <path d="m343.48 718.06-2.8575 20h5.7149l-2.8574-20z" fill="#43a047" fill-rule="evenodd"/>
  <path d="m414.55 722.83-2.8574 20h5.7148l-2.8574-20z" fill="#43a047" fill-rule="evenodd"/>
  <path d="m510.36 726.87-2.8574 20h5.7148l-2.8574-20z" fill="#43a047" fill-rule="evenodd"/>
  <path d="m427.53 727.45-2.8574 20h5.7149l-2.8575-20z" fill="#43a047" fill-rule="evenodd"/>
  <path d="m477.86 708.79-2.8574 20h5.7149l-2.8575-20z" fill="#43a047" fill-rule="evenodd"/>
  <path d="m383.38 733.5-2.8575 20h5.7149l-2.8574-20z" fill="#43a047" fill-rule="evenodd"/>
  <path d="m236.56 725.32-2.8575 20h3.9356l-2.6387 18.475h5.7149l-2.6387-18.475h1.3418l-2.8574-20z" fill="#43a047" fill-rule="evenodd"/>
  <path d="m268.67 734.77-2.8555 20h3.1953l-0.0215 0.15039h0.2832l-0.6992 4.8945h5.7149l-0.6993-4.8945h1.1153l-2.8574-20-1.5782 11.039-1.5976-11.189z" fill="#43a047" fill-rule="evenodd"/>
  <path d="m537.86 738.79-2.8574 20h5.7149l-2.8575-20z" fill="#43a047" fill-rule="evenodd"/>
  <path d="m437.24 735.04-2.8574 20h5.7149l-2.8575-20z" fill="#43a047" fill-rule="evenodd"/>
  <path d="m476.62 742.44-2.8555 20h5.7129l-2.8574-20z" fill="#43a047" fill-rule="evenodd"/>
  <path d="m169.58 744.59-2.8574 20h5.7149l-2.8575-20z" fill="#43a047" fill-rule="evenodd"/>
  <path d="m-882.97 655.07-1.4297 10h2.8574l-1.4277-10z" fill="#43a047" fill-rule="evenodd"/>
  <path d="m-872.7 657.98-1.4297 10h2.8574l-1.4277-10z" fill="#43a047" fill-rule="evenodd"/>
  <path d="m-828.48 658.75-1.4297 10h2.8574l-1.4277-10z" fill="#43a047" fill-rule="evenodd"/>
  <path d="m89.096 661.3-1.4297 10h1.4551l-0.8828 6.1816h2.8555l-0.8829-6.1816h0.3125l-1.4277-10z" fill="#43a047" fill-rule="evenodd"/>
  <path d="m-887.57 662.28-1.4277 10h2.8574l-1.4297-10z" fill="#43a047" fill-rule="evenodd"/>
  <path d="m-551.37 662.61-1.4297 10h2.8574l-1.4277-10z" fill="#43a047" fill-rule="evenodd"/>
  <path d="m59.863 664.99-1.4278 10h2.8555l-1.4277-10z" fill="#43a047" fill-rule="evenodd"/>
  <path d="m104.14 665.41-1.4277 10h0.2109l-0.2988 2.0879-1.0645-7.4512-1.4277 10h2.8574l-0.1562-1.0957h2.4414l-0.5059-3.541h0.8008l-1.4297-10z" fill="#43a047" fill-rule="evenodd"/>
  <path d="m-896.54 667.93-1.4297 10.002h2.8574l-1.4277-10.002z" fill="#43a047" fill-rule="evenodd"/>
  <path d="m-858.99 667.98-1.4277 10h2.8555l-1.4277-10z" fill="#43a047" fill-rule="evenodd"/>
  <path d="m-918.61 668.28-1.4277 10h2.8574l-1.4297-10z" fill="#43a047" fill-rule="evenodd"/>
  <path d="m74.555 670.74-1.4297 10h2.8574l-1.4277-10z" fill="#43a047" fill-rule="evenodd"/>
  <path d="m120.14 670.79-1.4297 10h2.8575l-1.4278-10z" fill="#43a047" fill-rule="evenodd"/>
  <path d="m-936.82 670.83-1.4277 10h2.8574l-1.4297-10z" fill="#43a047" fill-rule="evenodd"/>
  <path d="m85.373 671.29-1.4277 10h0.7344l-1.3281 9.2832h2.8574l-1.3262-9.2832h1.9199l-1.4297-10z" fill="#43a047" fill-rule="evenodd"/>
  <path d="m-831.1 671.46-1.4297 10h2.8574l-1.4277-10z" fill="#43a047" fill-rule="evenodd"/>
  <path d="m-578.12 671.68-1.4297 10h2.8574l-1.4277-10z" fill="#43a047" fill-rule="evenodd"/>
  <path d="m113.46 671.77-1.4297 10h2.6211l-0.164 1.1484h2.8574l-1.4277-10-1.1465 8.0254-1.3106-9.1738z" fill="#43a047" fill-rule="evenodd"/>
  <path d="m-561.5 671.82-1.4297 10h1.3574l-0.47852 3.3476h2.5234l-1.3359 9.3418h2.8574l-1.334-9.3418h0.14648l-1.4277-10.002-0.20117 1.4043-0.67774-4.75z" fill="#43a047" fill-rule="evenodd"/>
  <path d="m-966.97 671.83-1.4277 10.002h2.8555l-1.4277-10.002z" fill="#43a047" fill-rule="evenodd"/>
  <path d="m-592.06 671.92-1.4297 10h2.8574l-1.4277-10z" fill="#43a047" fill-rule="evenodd"/>
  <path d="m122.83 672.07-1.4297 10h2.8575l-1.4278-10z" fill="#43a047" fill-rule="evenodd"/>
  <path d="m-556.12 672.67-1.4277 10h2.8574l-1.4297-10z" fill="#43a047" fill-rule="evenodd"/>
  <path d="m-925.81 673.82-1.4297 10h2.8574l-1.4277-10z" fill="#43a047" fill-rule="evenodd"/>
  <path d="m161.15 674.21-1.4277 10h2.4492l-0.6894 4.8281h2.8574l-1.4277-10-0.5352 3.748-1.2266-8.5762z" fill="#43a047" fill-rule="evenodd"/>
  <path d="m-916.09 674.48-1.4297 10h2.8574l-1.4277-10z" fill="#43a047" fill-rule="evenodd"/>
  <path d="m-813.45 675-1.4277 10h2.8574l-1.4297-10z" fill="#43a047" fill-rule="evenodd"/>
  <path d="m138.71 675.15-1.4297 10h2.8575l-1.4278-10z" fill="#43a047" fill-rule="evenodd"/>
  <path d="m-880.41 676.69-1.4297 10.002h2.8574l-1.4277-10.002z" fill="#43a047" fill-rule="evenodd"/>
  <path d="m-998.57 688.79-1.4297 10.002h2.8574l-1.4277-10.002z" fill="#43a047" fill-rule="evenodd"/>
  <path d="m181.73 677.12-1.4278 10h2.8575l-1.4297-10z" fill="#43a047" fill-rule="evenodd"/>
  <path d="m-833.28 677.57-1.4297 10h2.8574l-1.4277-10z" fill="#43a047" fill-rule="evenodd"/>
  <path d="m-816.58 679.57-1.4277 10h2.8574l-1.4297-10z" fill="#43a047" fill-rule="evenodd"/>
  <path d="m-640.64 680.36-1.4297 10.002h2.8574l-1.4277-10.002z" fill="#43a047" fill-rule="evenodd"/>
  <path d="m-928.22 680.45-1.4297 10h2.8574l-1.4277-10z" fill="#43a047" fill-rule="evenodd"/>
  <path d="m-944.74 681.76-1.4277 10h1.2402l-2e-3 0.0176h2.8574l-1.4277-10-0.61914 4.3281-0.62109-4.3457z" fill="#43a047" fill-rule="evenodd"/>
  <path d="m-956.59 682.08-0.7461 5.2246-0.54297-3.8066-1.4297 10h2.8574l-0.20313-1.416h0.52735l-0.4961 3.4688h2.8574l-1.4297-10-0.44922 3.1445-0.94531-6.6152z" fill="#43a047" fill-rule="evenodd"/>
  <path d="m53.762 682.17-1.4297 10h2.8575l-1.4278-10z" fill="#43a047" fill-rule="evenodd"/>
  <path d="m-908.73 682.24-1.4277 10h2.8574l-1.4297-10z" fill="#43a047" fill-rule="evenodd"/>
  <path d="m110.05 682.42-1.4277 10h2.8574l-1.4297-10z" fill="#43a047" fill-rule="evenodd"/>
  <path d="m-811.38 682.44-1.4297 10h2.8574l-1.4277-10z" fill="#43a047" fill-rule="evenodd"/>
  <path d="m102.06 682.77-1.4277 10h2.8574l-1.4297-10z" fill="#43a047" fill-rule="evenodd"/>
  <path d="m-647.45 683-1.4277 10h2.8574l-1.4297-10z" fill="#43a047" fill-rule="evenodd"/>
  <path d="m-541.01 683.61-1.4277 10h2.8574l-1.4297-10z" fill="#43a047" fill-rule="evenodd"/>
  <path d="m-611.84 683.89-1.4297 10h1.3828l-0.8125 5.6797h1.457l-0.96875 6.7695h2.8574l-0.9668-6.7695h0.47852l-0.81055-5.6797h0.24023l-1.4277-10z" fill="#43a047" fill-rule="evenodd"/>
  <path d="m-882.8 684.12-1.4277 10h2.8574l-1.4297-10z" fill="#43a047" fill-rule="evenodd"/>
  <path d="m-971.93 684.49-1.4277 10h0.61719l-0.35937 2.5156h2.8574l-0.30078-2.1055h1.1172l-1.4297-10-0.50782 3.5566-0.5664-3.9668z" fill="#43a047" fill-rule="evenodd"/>
  <path d="m-983.1 686.04-1.4297 10h1.9141l-0.42383 2.9668h2.8574l-1.4297-10-0.5332 3.7285-0.95508-6.6953z" fill="#43a047" fill-rule="evenodd"/>
  <path d="m-568.12 686.51-1.4277 10h2.8574l-1.4297-10z" fill="#43a047" fill-rule="evenodd"/>
  <path d="m-653.13 686.96-1.4277 10h2.8574l-1.4297-10z" fill="#43a047" fill-rule="evenodd"/>
  <path d="m-786.55 687.15-1.4277 10h2.8555l-1.4277-10z" fill="#43a047" fill-rule="evenodd"/>
  <path d="m-792.56 687.88-1.4277 10h0.0723l-0.0156 0.10547h2.8574l-1.4297-10-0.0215 0.14453-0.0351-0.25z" fill="#43a047" fill-rule="evenodd"/>
  <path d="m172.5 688.05-1.4278 10h2.8574l-1.4296-10z" fill="#43a047" fill-rule="evenodd"/>
  <path d="m-858.12 688.13-1.4297 10h2.8574l-1.4277-10z" fill="#43a047" fill-rule="evenodd"/>
  <path d="m-594.74 688.5-1.4277 10h0.0391l-0.60547 4.2344h2.8574l-0.60547-4.2344h1.1699l-1.4277-10z" fill="#43a047" fill-rule="evenodd"/>
  <path d="m192.34 689.39-1.4277 10h2.8574l-1.4297-10z" fill="#43a047" fill-rule="evenodd"/>
  <path d="m-804.32 689.74-1.4277 10h2.8574l-1.4297-10z" fill="#43a047" fill-rule="evenodd"/>
  <path d="m-669.94 689.84-1.4277 10h2.8574l-1.4297-10z" fill="#43a047" fill-rule="evenodd"/>
  <path d="m130.15 690.99-1.4296 10h2.8574l-1.4278-10z" fill="#43a047" fill-rule="evenodd"/>
  <path d="m-659.12 692.02-1.4277 10h2.8574l-1.4297-10z" fill="#43a047" fill-rule="evenodd"/>
  <path d="m-536.27 692.34-0.37304 2.6074-0.20313-1.4258-1.4297 10h2.8574l-0.16796-1.1816h0.74414l-1.4277-10z" fill="#43a047" fill-rule="evenodd"/>
  <path d="m-777.6 692.39-1.4277 10h2.8555l-1.4277-10z" fill="#43a047" fill-rule="evenodd"/>
  <path d="m-974.07 692.68-1.4297 10h2.8574l-1.4277-10z" fill="#43a047" fill-rule="evenodd"/>
  <path d="m-885.97 692.82-1.4297 10h2.8574l-1.4277-10z" fill="#43a047" fill-rule="evenodd"/>
  <path d="m-650.45 693.44-1.4277 10h2.8574l-1.4297-10z" fill="#43a047" fill-rule="evenodd"/>
  <path d="m-701.1 694.08-1.4277 10h2.8574l-1.4297-10z" fill="#43a047" fill-rule="evenodd"/>
  <path d="m-762.86 694.12-1.4297 10h2.8574l-1.4277-10z" fill="#43a047" fill-rule="evenodd"/>
  <path d="m122 694.21-1.4297 10h2.8574l-1.4277-10z" fill="#43a047" fill-rule="evenodd"/>
  <path d="m73.068 694.48-1.4297 10h2.8574l-1.4277-10z" fill="#43a047" fill-rule="evenodd"/>
  <path d="m-748.44 694.78-1.4277 10h2.8574l-1.4297-10z" fill="#43a047" fill-rule="evenodd"/>
  <path d="m-1020.8 694.8-1.4277 10h2.8574l-1.4297-10z" fill="#43a047" fill-rule="evenodd"/>
  <path d="m-518.66 695.01-1.4297 10h2.8574l-1.4277-10z" fill="#43a047" fill-rule="evenodd"/>
  <path d="m85.957 695.33-1.4297 10h0.8868l-0.9649 6.748h2.8574l-0.0214-0.14648h0.3515l-0.9433-6.6016h0.6914l-1.4278-10z" fill="#43a047" fill-rule="evenodd"/>
  <path d="m44.467 695.98-1.4277 10h2.8574l-1.4297-10z" fill="#43a047" fill-rule="evenodd"/>
  <path d="m-712.25 696.15-1.4277 10h2.8574l-1.4297-10z" fill="#43a047" fill-rule="evenodd"/>
  <path d="m-962.67 696.5-1.4277 10h2.8574l-1.4297-10z" fill="#43a047" fill-rule="evenodd"/>
  <path d="m-753.5 696.55-1.4297 10h2.8574l-1.4277-10z" fill="#43a047" fill-rule="evenodd"/>
  <path d="m-823.08 696.59-1.4277 10h2.8555l-1.4277-10z" fill="#43a047" fill-rule="evenodd"/>
  <path d="m66.141 696.96-1.4277 10h2.8574l-1.4297-10z" fill="#43a047" fill-rule="evenodd"/>
  <path d="m-723.9 696.99-1.4297 10h2.8574l-1.4277-10z" fill="#43a047" fill-rule="evenodd"/>
  <path d="m-623.17 697.03-1.4277 10.002h2.8555l-1.4277-10.002z" fill="#43a047" fill-rule="evenodd"/>
  <path d="m-1010.8 697.1-1.4297 10h2.8574l-1.4277-10z" fill="#43a047" fill-rule="evenodd"/>
  <path d="m139.88 697.38-1.4278 10h2.8574l-1.4296-10z" fill="#43a047" fill-rule="evenodd"/>
  <path d="m168.17 697.63-1.4297 10h2.8574l-1.4277-10z" fill="#43a047" fill-rule="evenodd"/>
  <path d="m110.23 698.82-1.1289 7.9062-0.3242-2.2715-1.4297 10h2.8574l-0.8047-5.6348h2.2578l-1.4277-10z" fill="#43a047" fill-rule="evenodd"/>
  <path d="m-648.12 698.83-1.4297 10h2.8574l-1.4277-10z" fill="#43a047" fill-rule="evenodd"/>
  <path d="m82.738 698.83-1.4278 10.002h2.8575l-1.4297-10.002z" fill="#43a047" fill-rule="evenodd"/>
  <path d="m-769.78 698.98-1.4297 10h2.8574l-1.4277-10z" fill="#43a047" fill-rule="evenodd"/>
  <path d="m136.33 699.01-1.4277 10h2.8555l-1.4278-10z" fill="#43a047" fill-rule="evenodd"/>
  <path d="m-714.91 699.6-1.4277 10h2.8574l-1.4297-10z" fill="#43a047" fill-rule="evenodd"/>
  <path d="m-539.87 699.82-1.4297 10.002h2.8574l-1.4277-10.002z" fill="#43a047" fill-rule="evenodd"/>
  <path d="m-812.3 700.37-1.4277 10h2.6465l-0.98438 6.8828h0.30859l-0.51367 3.5957h2.8555l-0.0859-0.60352h2.4902l-1.4297-10-0.88476 6.1914-1.3106-9.1836-0.33985 2.3789-1.3242-9.2617z" fill="#43a047" fill-rule="evenodd"/>
  <path d="m-936.62 700.48-1.4297 10h2.8574l-1.4277-10z" fill="#43a047" fill-rule="evenodd"/>
  <path d="m-869.47 700.54-1.4297 10.002h2.8574l-1.4277-10.002z" fill="#43a047" fill-rule="evenodd"/>
  <path d="m54.643 700.75-1.4297 10.002h2.8574l-1.4277-10.002z" fill="#43a047" fill-rule="evenodd"/>
  <path d="m117.47 700.94-1.0157 7.1055-0.6035-4.2266-1.4297 10h2.8574l-0.4101-2.8789h2.0293l-1.4277-10z" fill="#43a047" fill-rule="evenodd"/>
  <path d="m-947.32 701.47-1.4277 10.002h2.8574l-1.4297-10.002z" fill="#43a047" fill-rule="evenodd"/>
  <path d="m-988.68 701.73-1.4277 10h2.8574l-1.4297-10z" fill="#43a047" fill-rule="evenodd"/>
  <path d="m-757.39 701.85-1.4277 10h2.8574l-1.4297-10z" fill="#43a047" fill-rule="evenodd"/>
  <path d="m-1092 702.52-1.4277 10h1.4589l-0.6523 4.5625h2.8574l-1.4277-10-0.078 0.54688-0.7305-5.1094z" fill="#43a047" fill-rule="evenodd"/>
  <path d="m-795.68 702.54-1.4297 10h2.8574l-1.4277-10z" fill="#43a047" fill-rule="evenodd"/>
  <path d="m-799.58 702.57-1.4277 10h2.8574l-1.4297-10z" fill="#43a047" fill-rule="evenodd"/>
  <path d="m-1074.5 702.63-1.4277 10h2.8574l-1.4297-10z" fill="#43a047" fill-rule="evenodd"/>
  <path d="m-590.64 702.68-1.4277 10h2.8574l-1.4297-10z" fill="#43a047" fill-rule="evenodd"/>
  <path d="m156.94 703.11-1.4296 10h2.8574l-1.4278-10z" fill="#43a047" fill-rule="evenodd"/>
  <path d="m-1070 703.77-1.4278 10h2.8575l-1.4297-10z" fill="#43a047" fill-rule="evenodd"/>
  <path d="m-740.61 704.02-1.4277 10h2.8574l-1.4297-10z" fill="#43a047" fill-rule="evenodd"/>
  <path d="m-865.17 704.15-1.4297 10h2.8574l-1.4277-10z" fill="#43a047" fill-rule="evenodd"/>
  <path d="m-1048.4 704.8-1.4297 10h2.8574l-1.4277-10z" fill="#43a047" fill-rule="evenodd"/>
  <path d="m78.602 704.94-1.0918 7.6504-0.3926-2.7461-1.4297 10h2.8574l-0.7011-4.9043h2.1874l-1.4296-10z" fill="#43a047" fill-rule="evenodd"/>
  <path d="m-1059.4 705.08-1.4278 10h2.8575l-1.4297-10z" fill="#43a047" fill-rule="evenodd"/>
  <path d="m-636.73 705.42-1.4297 10h2.8574l-1.4277-10z" fill="#43a047" fill-rule="evenodd"/>
  <path d="m104.44 705.72-1.4297 10h2.8574l-1.4277-10z" fill="#43a047" fill-rule="evenodd"/>
  <path d="m146.31 706.61-1.4278 10h2.8555l-1.4277-10z" fill="#43a047" fill-rule="evenodd"/>
  <path d="m153.38 706.67-1.4297 10h2.8574l-1.4277-10z" fill="#43a047" fill-rule="evenodd"/>
  <path d="m-835.67 706.89-1.4277 10h2.8574l-1.4297-10z" fill="#43a047" fill-rule="evenodd"/>
  <path d="m-1022.8 707.01-1.4297 10h0.623l-1.4121 9.8828h2.8575l-1.4102-9.8828h2.1992l-1.4277-10z" fill="#43a047" fill-rule="evenodd"/>
  <path d="m-802.67 707.53-1.4277 10h2.8574l-1.4297-10z" fill="#43a047" fill-rule="evenodd"/>
  <path d="m45.428 708.26-1.4297 10h1.9571l-0.4942 3.4629h2.8575l-1.4278-10.002-0.4844 3.3906-0.9785-6.8516z" fill="#43a047" fill-rule="evenodd"/>
  <path d="m67.309 708.52-1.4277 10h2.8574l-1.4297-10z" fill="#43a047" fill-rule="evenodd"/>
  <path d="m-792.84 708.63-1.4297 10h2.8574l-1.4277-10z" fill="#43a047" fill-rule="evenodd"/>
  <path d="m-764.23 708.8-1.4277 10h1.9473l-1.4082 9.8438h2.8574l-1.4062-9.8438h0.86718l-1.4297-10z" fill="#43a047" fill-rule="evenodd"/>
  <path d="m-607.73 708.93-1.4297 10h2.8574l-1.4277-10z" fill="#43a047" fill-rule="evenodd"/>
  <path d="m-1025.6 709.3-1.4297 10h2.8574l-1.4277-10z" fill="#43a047" fill-rule="evenodd"/>
  <path d="m-999.3 709.58-1.4277 10h2.8554l-1.4277-10z" fill="#43a047" fill-rule="evenodd"/>
  <path d="m-872.27 709.74-1.4297 10h1.2695l-0.66406 4.6445h2.8574l-0.66406-4.6445h0.0586l-1.4277-10z" fill="#43a047" fill-rule="evenodd"/>
  <path d="m92.646 709.74-1.4277 10h2.8554l-1.4277-10z" fill="#43a047" fill-rule="evenodd"/>
  <path d="m-1052.5 709.92-1.4297 10h2.8575l-1.4278-10z" fill="#43a047" fill-rule="evenodd"/>
  <path d="m-689.15 711.05-1.4277 10.002h2.8574l-1.4297-10.002z" fill="#43a047" fill-rule="evenodd"/>
  <path d="m-1003.4 711.54-0.7148 5-0.4375-3.0664-1.4278 10.002h2.8575l-0.2774-1.9355h1.4297l-1.4297-10z" fill="#43a047" fill-rule="evenodd"/>
  <path d="m-669.02 712.24-1.4297 10h2.8574l-1.4277-10z" fill="#43a047" fill-rule="evenodd"/>
  <path d="m-973.56 712.34-1.4277 10h2.8555l-1.4277-10z" fill="#43a047" fill-rule="evenodd"/>
  <path d="m-844.73 713.07-1.4277 10h2.5644l-0.73242 5.1348h2.8574l-0.36718-2.5684h1.3926l-0.54687 3.8301h2.8574l-1.4277-10-0.53321 3.7324-1.0801-7.5625-1.0469 7.3164-0.67773-4.748-0.54883 3.8418-1.2832-8.9766z" fill="#43a047" fill-rule="evenodd"/>
  <path d="m5.8711 713.27-1.4297 10h2.8574l-1.4277-10z" fill="#43a047" fill-rule="evenodd"/>
  <path d="m13.637 713.51-1.4297 10h2.8575l-1.4278-10z" fill="#43a047" fill-rule="evenodd"/>
  <path d="m-705.25 713.87-1.4297 10h2.8574l-1.4277-10z" fill="#43a047" fill-rule="evenodd"/>
  <path d="m-1104.8 713.89-1.4297 10h2.8574l-1.4277-10z" fill="#43a047" fill-rule="evenodd"/>
  <path d="m-215.61 714.47-1.4297 10h1.2226l-1.3417 9.4043h2.8554l-1.3418-9.4043h1.4629l-1.4277-10z" fill="#43a047" fill-rule="evenodd"/>
  <path d="m-1112.1 714.57-1.4277 10h2.8574l-1.4297-10z" fill="#43a047" fill-rule="evenodd"/>
  <path d="m-775.97 714.72-1.4277 10h2.8574l-1.4297-10z" fill="#43a047" fill-rule="evenodd"/>
  <path d="m-192.98 715.02-1.4277 10.002h2.8574l-1.4297-10.002z" fill="#43a047" fill-rule="evenodd"/>
  <path d="m-714.4 715.41-1.4277 10h2.8574l-1.4297-10z" fill="#43a047" fill-rule="evenodd"/>
  <path d="m-1094 715.89-1.4278 10h2.8555l-1.4277-10z" fill="#43a047" fill-rule="evenodd"/>
  <path d="m-1126.4 723.79-1.4297 10h2.8574l-1.4277-10z" fill="#43a047" fill-rule="evenodd"/>
  <path d="m-180.58 716.28-1.4297 10h2.8575l-1.4278-10z" fill="#43a047" fill-rule="evenodd"/>
  <path d="m-210.1 716.53-1.4296 10h2.8574l-1.4278-10z" fill="#43a047" fill-rule="evenodd"/>
  <path d="m122.03 716.66-1.4296 10h2.8574l-1.4278-10z" fill="#43a047" fill-rule="evenodd"/>
  <path d="m-243.64 717.06-1.4297 10h2.8574l-1.4277-10z" fill="#43a047" fill-rule="evenodd"/>
  <path d="m-809.93 717.25h0.48828l-0.24414 1.707-0.24414-1.707z" fill="#43a047" fill-rule="evenodd"/>
  <path d="m-855.23 717.75-1.4297 10h2.8574l-1.4277-10z" fill="#43a047" fill-rule="evenodd"/>
  <path d="m-728.25 717.87-1.4297 10h2.8574l-1.4277-10z" fill="#43a047" fill-rule="evenodd"/>
  <path d="m-163.16 718.03-1.4277 10h2.8555l-1.4278-10z" fill="#43a047" fill-rule="evenodd"/>
  <path d="m-155.23 718.51-1.2207 8.5488-0.2089-1.4648-1.4278 10h2.8555l-1.0117-7.084h2.4414l-1.4278-10z" fill="#43a047" fill-rule="evenodd"/>
  <path d="m-1060 728.79-1.4278 10h2.8575l-1.4297-10z" fill="#43a047" fill-rule="evenodd"/>
  <path d="m-176.42 719.21-1.4297 10h2.8575l-1.4278-10z" fill="#43a047" fill-rule="evenodd"/>
  <path d="m126.42 719.21-1.4297 10h2.8575l-1.4278-10z" fill="#43a047" fill-rule="evenodd"/>
  <path d="m3.2715 719.49-1.4277 10h2.832l-1.0469 7.3281h2.8555l-1.4278-10-0.3691 2.5801-1.416-9.9082z" fill="#43a047" fill-rule="evenodd"/>
  <path d="m-1074.8 720.06-1.4297 10h2.8574l-1.4277-10z" fill="#43a047" fill-rule="evenodd"/>
  <path d="m-819.74 720.35-1.4277 10.002h2.6836l-0.0488 0.33594h2.8574l-1.4297-10-1.293 9.0527-1.3418-9.3906z" fill="#43a047" fill-rule="evenodd"/>
  <path d="m-30.688 720.62-1.4277 10h2.8574l-1.4297-10z" fill="#43a047" fill-rule="evenodd"/>
  <path d="m-42.709 721.28-0.9883 6.9199-0.375-2.625-1.4277 10h2.2852l-0.252 1.7559h2.8574l-0.8633-6.0508h0.1934l-1.4297-10z" fill="#43a047" fill-rule="evenodd"/>
  <path d="m-168.59 721.61-1.4297 10h2.8574l-1.4277-10z" fill="#43a047" fill-rule="evenodd"/>
  <path d="m-239.65 721.7-1.4297 10h2.8574l-1.4277-10z" fill="#43a047" fill-rule="evenodd"/>
  <path d="m-15.832 721.79-1.4297 10h2.8574l-1.4277-10z" fill="#43a047" fill-rule="evenodd"/>
  <path d="m-140.93 721.86-1.4278 10h2.8574l-1.4296-10z" fill="#43a047" fill-rule="evenodd"/>
  <path d="m-1015.2 721.9-1.4277 10h2.8574l-1.4297-10z" fill="#43a047" fill-rule="evenodd"/>
  <path d="m-792.08 722.41-1.4277 10h2.8574l-1.4297-10z" fill="#43a047" fill-rule="evenodd"/>
  <path d="m-1041.7 722.51-1.4277 10h2.8574l-1.4297-10z" fill="#43a047" fill-rule="evenodd"/>
  <path d="m-149.4 722.65-1.4278 10h2.8574l-1.4296-10z" fill="#43a047" fill-rule="evenodd"/>
  <path d="m-1107.4 723.55-1.4277 10h2.1504l-1.3614 9.5312h2.8575l-1.3633-9.5312h0.5742l-1.4297-10z" fill="#43a047" fill-rule="evenodd"/>
  <path d="m-1118.8 723.6-1.4277 10h2.8574l-1.4297-10z" fill="#43a047" fill-rule="evenodd"/>
  <path d="m-787.97 723.67-1.4297 10.002h2.8574l-1.4277-10.002z" fill="#43a047" fill-rule="evenodd"/>
  <path d="m-808.22 723.93-1.4297 10h2.8574l-1.4277-10z" fill="#43a047" fill-rule="evenodd"/>
  <path d="m29.328 724.31-1.4297 10h2.8575l-1.4278-10z" fill="#43a047" fill-rule="evenodd"/>
  <path d="m54.217 724.98-1.4277 10h2.8574l-1.4297-10z" fill="#43a047" fill-rule="evenodd"/>
  <path d="m-101.42 726.35-1.4278 10h2.8555l-1.4277-10z" fill="#43a047" fill-rule="evenodd"/>
  <path d="m-171.88 726.7-1.4297 10.002h2.8574l-1.4277-10.002z" fill="#43a047" fill-rule="evenodd"/>
  <path d="m-848.54 726.72-1.4297 10.002h2.8574l-1.4277-10.002z" fill="#43a047" fill-rule="evenodd"/>
  <path d="m-25.582 727.07-1.4297 10.002h2.8574l-1.4277-10.002z" fill="#43a047" fill-rule="evenodd"/>
  <path d="m101.62 727.16-1.4277 10h2.8574l-1.4297-10z" fill="#43a047" fill-rule="evenodd"/>
  <path d="m32.342 727.26-1.4277 10h2.8554l-1.4277-10z" fill="#43a047" fill-rule="evenodd"/>
  <path d="m-165.43 728.5-1.4278 10.002h0.2598l-0.7051 4.9434h2.8574l-0.1738-1.2226h1.5039l-1.4297-10-0.1758 1.2383-0.7089-4.9609z" fill="#43a047" fill-rule="evenodd"/>
  <path d="m-38.535 728.68-1.4277 10h2.8574l-1.4297-10z" fill="#43a047" fill-rule="evenodd"/>
  <path d="m-181.23 728.8-1.4296 10h2.8574l-1.4278-10z" fill="#43a047" fill-rule="evenodd"/>
  <path d="m-61.76 729.69-1.4297 10h2.8575l-1.4278-10z" fill="#43a047" fill-rule="evenodd"/>
  <path d="m-133.63 729.83-1.4277 10h2.8574l-1.4297-10z" fill="#43a047" fill-rule="evenodd"/>
  <path d="m-93.387 729.83-1.3399 9.3691-1.0175-7.1289-1.4297 10h2.8574l-0.3203-2.2402h2.6777l-1.4277-10z" fill="#43a047" fill-rule="evenodd"/>
  <path d="m130.08 730.59-1.4297 10h2.8574l-1.4277-10z" fill="#43a047" fill-rule="evenodd"/>
  <path d="m-1044.4 730.93-1.4297 10h2.8574l-1.4277-10z" fill="#43a047" fill-rule="evenodd"/>
  <path d="m26.043 731.07-1.4278 10h2.8575l-1.4297-10z" fill="#43a047" fill-rule="evenodd"/>
  <path d="m-1091.5 731.81-1.4296 10h2.8574l-1.4278-10z" fill="#43a047" fill-rule="evenodd"/>
  <path d="m-83.48 732.05-1.4277 10h2.8574l-1.4297-10z" fill="#43a047" fill-rule="evenodd"/>
  <path d="m96.701 733.04-1.4297 10h2.8574l-1.4277-10z" fill="#43a047" fill-rule="evenodd"/>
  <path d="m109.72 733.36-1.2148 8.5156-0.8282-5.7949-1.4297 10h2.8575l-0.3887-2.7207h2.4316l-1.4277-10z" fill="#43a047" fill-rule="evenodd"/>
  <path d="m-1071.4 733.79-1.4277 10.002h2.8574l-1.4297-10.002z" fill="#43a047" fill-rule="evenodd"/>
  <path d="m-22.463 734.15-0.1348 0.93945-0.0293-0.20898-1.4277 10h2.8574l-0.1035-0.73047h0.2656l-1.4277-10z" fill="#43a047" fill-rule="evenodd"/>
  <path d="m-1098.7 734.77-1.4297 10h2.8574l-1.4277-10z" fill="#43a047" fill-rule="evenodd"/>
  <path d="m-56.902 734.84-1.4297 10h2.8574l-1.4277-10z" fill="#43a047" fill-rule="evenodd"/>
  <path d="m-802.38 735.83-1.4297 10h2.8574l-1.4277-10z" fill="#43a047" fill-rule="evenodd"/>
  <path d="m57.91 736.06-1.4278 10h1.8438l-0.8731 6.1133h0.1153l-0.2852 1.9941h2.8555l-0.2852-1.9941h0.457l-1.4277-10-0.0488 0.3457-0.9238-6.459z" fill="#43a047" fill-rule="evenodd"/>
  <path d="m-192.59 736.38-1.4297 10h2.8574l-1.4277-10z" fill="#43a047" fill-rule="evenodd"/>
  <path d="m82.846 736.9-1.4297 10h0.3028l-0.6133 4.2949h2.8574l-0.6133-4.2949h0.9238l-1.4277-10z" fill="#43a047" fill-rule="evenodd"/>
  <path d="m-2.4258 737.36-1.4277 10h2.8574l-1.4297-10z" fill="#43a047" fill-rule="evenodd"/>
  <path d="m-113.34 737.59-1.4277 10.002h2.8574l-1.4297-10.002z" fill="#43a047" fill-rule="evenodd"/>
  <path d="m-1088 737.75-1.4297 10h2.8575l-1.4278-10z" fill="#43a047" fill-rule="evenodd"/>
  <path d="m70.76 739.3-1.4278 10h2.8575l-1.4297-10z" fill="#43a047" fill-rule="evenodd"/>
  <path d="m-6.4336 739.78-1.4277 10h2.8574l-1.4297-10z" fill="#43a047" fill-rule="evenodd"/>
  <path d="m-119.22 740.21-1.4277 10h2.8574l-1.4297-10z" fill="#43a047" fill-rule="evenodd"/>
  <path d="m-128.08 741.64-1.4278 10h0.3379l-0.1758 1.2285h2l-1.2441 8.7188h2.8574l-1.2461-8.7188h0.4903l-0.1758-1.2285h0.0137l-1.4297-10z" fill="#43a047" fill-rule="evenodd"/>
  <path d="m-64.174 742.31-1.4278 10h2.8575l-1.4297-10z" fill="#43a047" fill-rule="evenodd"/>
  <path d="m-150.73 743.24-1.4277 10h2.8574l-1.4297-10z" fill="#43a047" fill-rule="evenodd"/>
  <path d="m-165.37 743.81-1.4278 10h2.8575l-1.4297-10z" fill="#43a047" fill-rule="evenodd"/>
  <path d="m24.566 743.94-1.4277 10h2.8554l-1.4277-10z" fill="#43a047" fill-rule="evenodd"/>
  <path d="m-70.193 744.31-1.4277 10.002h2.8555l-1.4278-10.002z" fill="#43a047" fill-rule="evenodd"/>
  <path d="m-162.22 744.33-1.4277 10h2.8574l-1.4297-10z" fill="#43a047" fill-rule="evenodd"/>
  <path d="m63.488 745.04-1.4297 10h0.6836l-0.4277 2.9961h2.8574l-0.4278-2.9961h0.1719l-1.4277-10z" fill="#43a047" fill-rule="evenodd"/>
  <path d="m90.816 746.52-1.1621 8.1406-1.0625-7.4316-1.4277 10h2.8574l-0.1016-0.70899h2.3242l-1.4277-10z" fill="#43a047" fill-rule="evenodd"/>
  <path d="m36.191 746.78-1.4277 10h2.8574l-1.4297-10z" fill="#43a047" fill-rule="evenodd"/>
  <path d="m-16.879 747.45-1.4277 10h2.8574l-1.4297-10z" fill="#43a047" fill-rule="evenodd"/>
  <path d="m32.918 747.66-1.4278 10h2.8575l-1.4297-10z" fill="#43a047" fill-rule="evenodd"/>
  <path d="m-37.537 748.72-1.4277 10h2.8574l-1.4297-10z" fill="#43a047" fill-rule="evenodd"/>
  <path d="m-142.59 749.39-1.4297 10h2.8574l-1.4277-10z" fill="#43a047" fill-rule="evenodd"/>
  <path d="m48.606 750.25-1.4278 10.002h2.8575l-1.4297-10.002z" fill="#43a047" fill-rule="evenodd"/>
  <path d="m-58.994 750.68-1.4278 10h2.8574l-1.4296-10z" fill="#43a047" fill-rule="evenodd"/>
  <path d="m-94.266 751-1.4278 10h2.8575l-1.4297-10z" fill="#43a047" fill-rule="evenodd"/>
  <path d="m-68.199 751.24-1.4278 10h2.8555l-1.4277-10z" fill="#43a047" fill-rule="evenodd"/>
  <path d="m94.508 752.46-1.4277 10h2.8574l-1.4297-10z" fill="#43a047" fill-rule="evenodd"/>
  <path d="m-110.26 752.65-1.4297 10.002h2.8574l-1.4277-10.002z" fill="#43a047" fill-rule="evenodd"/>
  <path d="m-35.041 752.72-1.4297 10h2.8574l-1.4277-10z" fill="#43a047" fill-rule="evenodd"/>
  <path d="m69.094 752.89-1.4278 10.002h2.8574l-1.4296-10.002z" fill="#43a047" fill-rule="evenodd"/>
  <path d="m-21.93 753.42-1.4297 10h2.8574l-1.4277-10z" fill="#43a047" fill-rule="evenodd"/>
  <path d="m51.176 753.63-1.4297 10h2.8574l-1.4277-10z" fill="#43a047" fill-rule="evenodd"/>
  <path d="m-148.62 753.68-1.4277 10h2.8574l-1.4297-10z" fill="#43a047" fill-rule="evenodd"/>
  <path d="m-49.049 756.23-1.4278 10h2.8575l-1.4297-10z" fill="#43a047" fill-rule="evenodd"/>
  <path d="m-14.723 756.32-1.4277 10h2.8574l-1.4297-10z" fill="#43a047" fill-rule="evenodd"/>
  <path d="m-135.27 753.88-1.4278 10h2.8575l-1.4297-10z" fill="#43a047" fill-rule="evenodd"/>
  <path d="m-140 738.79-1.4277 10h2.8574l-1.4297-10z" fill="#43a047" fill-rule="evenodd"/>
  <path d="m-655 1223.8 2.5-5 2.5 5z" fill="#43a047" fill-rule="evenodd"/>
  <path transform="translate(-1260 -139.07)" d="m539.71 737.35-2.5 5h5zm-5.7656 0.74218-2.5 5h5zm290.75-8.8926-2.5 5h5zm30.994 7.3184-2.5 5h5zm-42.645 3.8613-2.5 5h5zm-349.43 0.12696-2.5 5h5zm-61.994 5.7402l-2.5 5h5zm-329.97 0.11133-2.5 5h5zm695.49 0.24609-2.5 5h5zm42.387 2.8359-2.5 5h5zm-247.66 0.3418-2.5 5h5zm276.81 0.084-2.5 5h5zm-433.8 0.0566-2.5 5h5zm483.11 0.10742-2.5 5h5zm-110.18 0.0625-2.5 5h5zm185.74 0.50586-2.5 5h5zm-40.291 0.27149-2.5 5h5zm-887.71 0.97851-2.5 5h5zm337.84 2.1309-2.5 5h5zm565.79 1.3398-2.5 5h5zm-782.17 0.17382-2.5 5h5zm838.58 2.0391-2.5 5h5zm-323.67 0.30468-2.5 5h4.6758l-2.3066 4.6152h5l-2.5-5-0.0312 0.0605zm-233.08 0.14649-2.5 5h5zm-230.08 0.37695-2.5 5h5zm-116.73 1.209-2.5 5h5zm518.81 1.0996-2.5 5h5zm380.3 3.1992-2.5 5h5zm-513.03 1.5449-2.5 5h5zm292.1 1.8906-2.5 5h5zm-466.74 1.0332-2.5 5h5zm363.27 2.123-2.5 5h5zm-46.078 1.9531-2.5 5h4.2402l-1.8066 3.6133h5l-2.5-5-0.31445 0.62695zm-273.25 3.7617-2.5 5h5zm482.55 0.61329-2.5 5h5zm832.81 1.7285-2.5 5h5zm-820.75 0.0508-2.5 5h5zm-110.93 1.1641-2.5 5h5zm297.44 1.0859-2.5 5h5zm-790.97 0.77149-2.5 5h5.002zm55.17 0.16015-2.5 5h5zm1280.1 0.63086-2.5 5h5zm-855.93 0.45703-2.5 5h5zm994.82 0.76563-2.5 5h5zm-1010.1 0.94726-2.5 5h5zm-630.28 0.71485-2.5 5h5zm1411.5 0.26758-2.5 5h5zm-451.9 1.4043-2.5 5h5zm-490.3 0.06055l-2.5 5h5zm955.58 0.60547-2.5 5h5zm-943.92 0.0801-2.5 5h5zm1084.2 4.041-2.5 5h5zm-1354.7 0.49219-2.5 5h5zm817.12 1.7812l-2.5 5h5zm-921.65 0.60352-2.5 5h5zm914.46 1.1875-2.5 5h5zm-853.79 1.3476-2.5 5h5zm-112.29 1.3438-2.5 5h5zm1344.7 0.22461-2.5 5h5zm218.73 2.6309-2.5 5h5zm-224.83 0.14844-2.5 5h5zm-444.54 1.002-2.5 5h5zm-63.414 2.4316-2.5 5h5zm687.97 0.39063-2.5 5h5.0019zm-1607 0.12304-2.5 5h5zm1468.9 1.3418-2.5 5h5zm99.59 0.16797-2.5019 5h5.0019zm-689.56 2.2266-2.5 5h5zm625.63 0.79492-2.5 5h5zm140.35 0.32227-2.5 5h5zm-105.48 8e-3 -2.5 5h5zm-82.992 0.19141-2.5 5h5zm-17.732 0.0684-2.5 5h5zm-346.53 0.29297-2.5 5h5zm-961.93 4.9336-2.5 5h5zm-150.77 0.8418-2.5 5h5zm3.0352 4.7832-2.5 5h5zm1137.1 5.0801-2.5 5h5zm-1080.4 1.2559-2.5 5h5zm1001 3.4668-2.5019 5h5.0019zm181.17 0.60938-2.5 5h5zm9.4512 2.6621-2.5 5h5zm-20.668 6.5-2.5 5h5zm-1116 1.5234-2.5 5h5zm1036.3 3.4238-2.5 5h5z" fill="#43a047" fill-rule="evenodd"/>
  <path d="m-747.12 106.67h-61.592s-5.173-3.1057-5.9296-5.9297c-0.7567-2.824-0.2222-6.8551 2.3697-8.8439s6.4617-1.0676 10.446 0 12.387 7.1515 12.387 7.1515-7.0679-5.6443-5.8604-10.151c1.2074-4.5063 8.7493-7.432 14.091-8.1352 5.3414-0.7032 12.486 0.21831 15.507 4.1551 3.0207 3.9368 0 13.719 0 13.719s3.3136-6.1491 7.1869-7.187c3.8734-1.0379 10.807 0.98127 13.422 3.5965 2.6153 2.6153 2.8228 5.8116 2.147 8.0127s-4.1743 3.6115-4.1743 3.6115z" fill="#f2f2f2" fill-rule="evenodd"/>
  <path d="m-389.53 326.89h-61.592s-5.173-3.1057-5.9296-5.9297c-0.7567-2.824-0.2222-6.8551 2.3697-8.8439s6.4617-1.0676 10.446 0 12.387 7.1515 12.387 7.1515-7.0679-5.6443-5.8604-10.151c1.2074-4.5063 8.7493-7.432 14.091-8.1352 5.3414-0.7032 12.486 0.21831 15.507 4.1551 3.0207 3.9368 0 13.719 0 13.719s3.3136-6.1491 7.1869-7.187c3.8734-1.0379 10.807 0.98127 13.422 3.5965 2.6153 2.6153 2.8228 5.8116 2.147 8.0127s-4.1743 3.6115-4.1743 3.6115z" fill="#f2f2f2" fill-rule="evenodd"/>
  <path d="m-1109.6 79.153h151.29s15.197-5.929 16.81-12.99c1.6133-7.0606-2.5593-15.309-9.9332-19.866-7.3738-4.5573-21.463-2.1752-29.8 0s0 0 0 0 43.406-71.928-25.8-50.564c-14.527 4.4846-29.035 40.969-29.035 40.969s0.4139-14.336-5.5282-24.271c-5.9421-9.9354-22.818-23.075-35.148-21.395-12.33 1.6801-34.442 28.121-36.923 38.451-2.4808 10.33 22.405 29.035 22.405 29.035s-27.346-19.987-37.44-16.046c-10.094 3.9412-13.113 13.251-9.9332 22.159 3.1795 8.9072 29.035 14.518 29.035 14.518z" fill="#f9f9f9" fill-rule="evenodd"/>
  <g transform="matrix(.125 0 0 .125 335.61 710.39)" fill="none" stroke="#666" stroke-linecap="round" stroke-linejoin="round" stroke-width="4.516">
   <path d="m-680-256.21 40-80 20-100 20-240 20 240 20 100 40 80"/>
   <path d="m-680-256.21 140-40-100-40 60-100-36-40h32l-36 40 60 100-100 40 140 40"/>
   <path d="m-600-676.21v200l-10-50 18-50h-16l18 50-10 50"/>
  </g>
  <circle cx="260.61" cy="625.86" r="2.5" fill="#d50000" fill-rule="evenodd"/>
  <rect x="250.61" y="678.36" width="20" height="0" fill="none" stroke="#666" stroke-linecap="round" stroke-linejoin="round" stroke-width="4.516"/>
  <path d="m250.61 678.36h20" fill="#e6e6e6" fill-rule="evenodd" stroke="#e6e6e6" stroke-linecap="round" stroke-linejoin="round" stroke-width="4.516"/>
  <rect x="277.37" y="671.15" width="9.3672" height="6.7505" fill="#3d5afe" fill-rule="evenodd" stroke="#3d5afe" stroke-linecap="round" stroke-linejoin="round" stroke-width="4.516"/>
  <rect x="276.12" y="673.22" width="4.7142" height="3.4285" fill="#b3b3b3" fill-rule="evenodd"/>
  <rect x="282.02" y="673.33" width="4.7142" height="6.7505" fill="#b3b3b3" fill-rule="evenodd"/>
  <path d="m409.78 349.41v-6.7798" fill="#b3b3b3" fill-rule="evenodd"/>
  <path d="m409.78 349.41v-14.637" fill="#b3b3b3" fill-rule="evenodd"/>
  <g fill="#b3b3b3" fill-rule="evenodd" stroke="#b3b3b3" stroke-linecap="round" stroke-linejoin="round" stroke-width=".51289">
   <path d="m407.28 343.12h5.0831"/>
   <path d="m409.78 349.41v-8.881"/>
  </g>
  <path d="m-1067.5 747.71c6.3278 6.154 12.566 12.316 13.772 18.936h13.214c-3.6306-6.6105-7.229-13.221-15.04-19.831l-11.39 0.87189z" fill="#2962ff" fill-rule="evenodd"/>
  <path d="m-1052.2 762.5-0.8587-4.1817-2.0587-3.082z" fill="#b2ebf2" fill-rule="evenodd"/>
  <path d="m-1051 755.01-2.3527-3.562-3.0576-2.0949z" fill="#b2ebf2" fill-rule="evenodd"/>
  <path d="m-1046.2 764.65-0.8587-4.1817-2.0587-3.082z" fill="#b2ebf2" fill-rule="evenodd"/>
  <path d="m-1058.8 752.8-2.6138-3.3752-3.2062-1.8592z" fill="#b2ebf2" fill-rule="evenodd"/>
  <path d="m-958.81 647.7-0.25254 1.2627 1.1364-0.25254z" fill="#b2ebf2" fill-rule="evenodd"/>
  <path d="m-960.96 643.03-0.25254 1.2627 1.1364-0.25254z" fill="#b2ebf2" fill-rule="evenodd"/>
  <path d="m-960.96 658.94-0.25254 1.2627 1.1364-0.25254z" fill="#b2ebf2" fill-rule="evenodd"/>
  <path d="m-964.87 668.15-0.25254 1.2627 1.1364-0.25254z" fill="#b2ebf2" fill-rule="evenodd"/>
  <path d="m-971.69 676.11-0.25254 1.2627 1.1364-0.25254z" fill="#b2ebf2" fill-rule="evenodd"/>
  <path d="m-971.69 676.11-0.25254 1.2627 1.1364-0.25254z" fill="#b2ebf2" fill-rule="evenodd"/>
  <path d="m-964.37 635.32-0.25254 1.2627 1.1364-0.25254z" fill="#b2ebf2" fill-rule="evenodd"/>
  <path d="m-965.5 626.61-0.25254 1.2627 1.1364-0.25254z" fill="#b2ebf2" fill-rule="evenodd"/>
  <path d="m-948.21 574.33 1.7857 3.75 2.8571-1.25 2.5-2.1429-5.8929-1.0714z" fill="#808080" fill-rule="evenodd"/>
  <path d="m-946.43 578.08v38.201l6.0908-2.2559-0.73368-39.338-2.5 2.1429-4.6429-2.5z" fill="#2962ff" fill-rule="evenodd"/>
  <path d="m-948.21 574.33 1.7857 3.75v3.2143l-5.1786 2.6786z" fill="#e4e9ec" fill-rule="evenodd"/>
  <path d="m-945.06 577.48 0.82074 5.4927-1.5962 5.9978 1.2714 6.6599-0.68543 7.9874 1.0733 5.6821-0.62798 4.4727" fill="#e4e9ec" fill-rule="evenodd"/>
  <path d="m-943.44 577.54 0.82074 5.4927-1.5962 5.9978 1.2714 6.6599-0.68543 7.9874 1.0733 5.6821-0.62798 4.4727" fill="#e4e9ec" fill-rule="evenodd"/>
  <path d="m-942.07 577.42 0.82074 5.4927-1.5962 5.9978 1.2714 6.6599-0.68543 7.9874 1.0733 5.6821-0.62798 4.4727" fill="#e4e9ec" fill-rule="evenodd"/>
  <path d="m-922.39 930.02 0.35179 27.883" fill="#efebe9" fill-rule="evenodd" stroke="#4e342e" stroke-linecap="round" stroke-linejoin="round" stroke-width="4"/>
  <path d="m-954.39 942.02 0.35179 27.883" fill="#efebe9" fill-rule="evenodd" stroke="#4e342e" stroke-linecap="round" stroke-linejoin="round" stroke-width="4"/>
  <path d="m-981.51 964.2 67.222-22.548 23.571 4.2857-65.539 25.036z" fill="#6d4c41" fill-rule="evenodd"/>
  <path d="m-918.13 948.54-26.286 9.7857 33.571-14.286z" fill="#3e2723" fill-rule="evenodd"/>
  <path d="m-911.42 951.04-34.286 11.786 45.1-18.691z" fill="#3e2723" fill-rule="evenodd"/>
  <path d="m-929.86 946.86 0.35179 27.883" fill="#efebe9" fill-rule="evenodd" stroke="#4e342e" stroke-linecap="round" stroke-linejoin="round" stroke-width="4"/>
  <path d="m-932.31 903.79-7.6914 100h15.385l-7.6934-100z" fill="#1b5e20" fill-rule="evenodd"/>
  <path d="m-897.86 934.86 0.35179 27.883" fill="#6d4c41" fill-rule="evenodd" stroke="#000" stroke-linecap="round" stroke-linejoin="round" stroke-width="4"/>
  <path d="m-897.86 934.86 0.35179 27.883" fill="#efebe9" fill-rule="evenodd" stroke="#4e342e" stroke-linecap="round" stroke-linejoin="round" stroke-width="4"/>
  <path d="m-978.06 964.64 42.286-13.786-33.571 14.286z" fill="#3e2723" fill-rule="evenodd"/>
 </g>
</svg>
