<?xml version="1.0" encoding="UTF-8" standalone="no"?>
<!-- Created with Inkscape (http://www.inkscape.org/) -->

<svg
   xmlns:dc="http://purl.org/dc/elements/1.1/"
   xmlns:cc="http://creativecommons.org/ns#"
   xmlns:rdf="http://www.w3.org/1999/02/22-rdf-syntax-ns#"
   xmlns:svg="http://www.w3.org/2000/svg"
   xmlns="http://www.w3.org/2000/svg"
   xmlns:sodipodi="http://sodipodi.sourceforge.net/DTD/sodipodi-0.dtd"
   xmlns:inkscape="http://www.inkscape.org/namespaces/inkscape"
   width="95.030266mm"
   height="22.647274mm"
   viewBox="0 0 95.030266 22.647274"
   version="1.1"
   id="svg5672"
   inkscape:version="0.92.1 r15371"
   sodipodi:docname="logo-text.svg">
  <defs
     id="defs5666" />
  <sodipodi:namedview
     id="base"
     pagecolor="#ffffff"
     bordercolor="#666666"
     borderopacity="1.0"
     inkscape:pageopacity="0.0"
     inkscape:pageshadow="2"
     inkscape:zoom="1.4"
     inkscape:cx="43.848882"
     inkscape:cy="148.37823"
     inkscape:document-units="mm"
     inkscape:current-layer="Layer1000"
     showgrid="false"
     fit-margin-top="0"
     fit-margin-left="0"
     fit-margin-right="0"
     fit-margin-bottom="0"
     inkscape:window-width="1920"
     inkscape:window-height="1018"
     inkscape:window-x="-8"
     inkscape:window-y="-8"
     inkscape:window-maximized="1" />
  <metadata
     id="metadata5669">
    <rdf:RDF>
      <cc:Work
         rdf:about="">
        <dc:format>image/svg+xml</dc:format>
        <dc:type
           rdf:resource="http://purl.org/dc/dcmitype/StillImage" />
        <dc:title></dc:title>
      </cc:Work>
    </rdf:RDF>
  </metadata>
  <g
     inkscape:label="Camada 1"
     inkscape:groupmode="layer"
     id="layer1"
     transform="translate(-58.504623,-71.801869)">
    <g
       transform="translate(-56.696428,27.214286)"
       id="layer1-6"
       inkscape:label="Camada 1">
      <g
         id="Layer1000"
         transform="matrix(0.26458333,0,0,0.26458333,23.184525,13.535925)">
        <path
           d="m 347.779,150.889 c 0,-9.7107 3.8651,-17.8913 11.5789,-24.5263 6.9569,-6.0067 14.4774,-9.0021 22.5293,-9.0021 h 8.6962 v 8.5028 h -7.2145 c -8.4064,0 -14.9607,2.7379 -19.6468,8.1971 -4.1227,4.7828 -6.1841,10.5802 -6.1841,17.4083 0,5.8458 1.5139,10.9991 4.5253,15.4597 4.3804,6.4416 11.4015,9.6626 21.0641,9.6626 h 7.456 v 8.5028 h -9.0664 c -9.8236,0 -17.8916,-3.2529 -24.1883,-9.759 -6.361,-6.5061 -9.5497,-14.6547 -9.5497,-24.4459 z m 46.6504,10.4516 c 0,-6.6993 2.5122,-12.3841 7.5366,-17.0381 4.7831,-4.3641 10.2423,-6.5542 16.4101,-6.5542 6.2483,0 11.7398,1.9967 16.4422,5.9905 5.2821,4.5253 7.9231,10.4516 7.9231,17.7949 0,6.0552 -1.8682,11.466 -5.6042,16.2168 -4.3159,5.5397 -9.9845,8.3095 -17.0218,8.3095 -7.5689,0 -13.769,-2.3512 -18.6162,-7.0373 -4.8313,-4.7184 -7.2629,-10.4836 -7.2629,-17.3119 z m 8.8894,-0.1933 c 0,4.4931 1.0951,8.2291 3.3014,11.1762 2.7698,3.7522 6.8925,5.6201 12.3679,5.6201 4.4929,0 8.0035,-1.2881 10.5158,-3.8648 2.8343,-2.8988 4.2515,-7.3274 4.2515,-13.3019 0,-4.4769 -1.4172,-8.0842 -4.2515,-10.854 -2.8827,-2.7056 -6.522,-4.0582 -10.9024,-4.0582 -4.8955,0 -8.7766,1.6748 -11.5949,5.0406 -2.4638,2.8987 -3.6878,6.3127 -3.6878,10.242 z m 48.0578,23.9468 v -31.8863 c 0,-4.1707 1.6008,-7.8378 4.8151,-10.9345 5.1379,-4.9481 13.7018,-6.1449 19.7723,-2.2065 1.6139,1.047 3.1563,2.4481 4.5735,4.2357 1.2882,-1.8523 3.0205,-3.3824 5.1855,-4.5255 6.519,-3.4415 12.8019,-2.5991 18.2229,2.4963 3.2363,3.0418 4.8633,6.701 4.8633,10.9345 v 31.8863 h -8.5026 l -0.0487,-29.2771 c -0.004,-2.577 -0.4853,-4.7813 -1.5943,-6.5059 -3.0134,-4.6859 -8.6955,-4.5808 -11.9422,-0.1453 -1.2168,1.6623 -1.8357,3.8815 -1.8357,6.6512 v 29.2771 h -8.6961 l -0.0487,-28.7136 c -0.005,-3.1405 -0.7351,-5.691 -2.2061,-7.6171 -3.1589,-4.1351 -9.8816,-3.9318 -12.493,0.6922 -1.0182,1.8025 -1.5626,4.3019 -1.5626,7.5366 v 28.1019 z m 107.4018,-22.1109 23.1093,-12.7706 c -1.3528,-1.3526 -2.4478,-2.2545 -3.3013,-2.6894 -1.9808,-1.111 -4.4769,-1.6585 -7.4883,-1.6585 -4.6541,0 -8.3741,1.7392 -11.144,5.2337 -2.5123,3.1402 -3.7684,7.0213 -3.7684,11.611 0,3.9938 1.3206,7.4723 3.9618,10.4192 2.8987,3.2047 6.6669,4.815 11.3211,4.815 4.6861,0 8.2612,-1.2881 10.7091,-3.8648 2.2061,-2.2386 3.7682,-5.8135 4.7184,-10.7092 l 8.535,1.1757 c 0,5.0082 -2.029,9.6623 -6.0872,13.9621 -4.8312,5.1692 -10.9991,7.746 -18.4713,7.746 -6.2967,0 -11.7882,-2.2868 -16.5066,-6.8443 -4.7184,-4.5573 -7.0696,-10.0327 -7.0696,-16.4259 0,-8.052 2.6572,-14.4291 7.9716,-19.1477 4.5573,-4.0582 9.8394,-6.0872 15.8301,-6.0872 5.2499,0 9.7268,1.1917 13.3986,3.5911 3.6071,2.4478 6.7151,6.1678 9.2919,11.1278 l -31.3222,17.36 z m 45.6644,-34.9295 c 0,-1.3528 0.5153,-2.4963 1.5619,-3.4462 1.0468,-0.9664 2.2385,-1.4655 3.5914,-1.4655 1.2883,0 2.4478,0.4991 3.4944,1.4655 1.0146,0.9499 1.5139,2.1739 1.5139,3.6878 0,1.5299 -0.4511,2.7536 -1.3206,3.6233 -0.9824,0.9824 -2.1418,1.4655 -3.4946,1.4655 -1.4171,0 -2.657,-0.4831 -3.6878,-1.4655 -1.1111,-0.8697 -1.6586,-2.1741 -1.6586,-3.8649 z m 0.8051,57.0402 v -46.3795 h 8.503 v 46.3795 z m 22.4295,-14.4774 v -43.69 h 8.4064 v 11.7879 h 16.6515 v 8.1164 h -16.6515 v 25.3798 c 0,1.2884 0.5153,2.3997 1.5619,3.3014 0.9664,0.9824 2.4801,1.4655 4.5253,1.4655 h 10.5643 v 8.1164 h -10.7576 c -4.976,0 -8.664,-1.4493 -11.0956,-4.348 -2.1419,-2.5123 -3.2047,-5.8941 -3.2047,-10.1294 z m 30.9591,-9.2759 c 0,-6.6993 2.5123,-12.3841 7.5366,-17.0381 4.7831,-4.3641 10.2423,-6.5542 16.4101,-6.5542 6.2483,0 11.7398,1.9967 16.4422,5.9905 5.2821,4.5253 7.9231,10.4516 7.9231,17.7949 0,6.0552 -1.8682,11.466 -5.6042,16.2168 -4.3159,5.5397 -9.9845,8.3095 -17.0218,8.3095 -7.5689,0 -13.769,-2.3512 -18.6162,-7.0373 -4.8313,-4.7184 -7.2629,-10.4836 -7.2629,-17.3119 z m 8.8894,-0.1933 c 0,4.4931 1.0951,8.2291 3.3014,11.1762 2.7698,3.7522 6.8925,5.6201 12.3679,5.6201 4.4929,0 8.0035,-1.2881 10.5158,-3.8648 2.8343,-2.8988 4.2516,-7.3274 4.2516,-13.3019 0,-4.4769 -1.4173,-8.0842 -4.2516,-10.854 -2.8827,-2.7056 -6.522,-4.0582 -10.9024,-4.0582 -4.8955,0 -8.7766,1.6748 -11.5949,5.0406 -2.4638,2.8987 -3.6878,6.3127 -3.6878,10.242 z M 526.6172,119.7511 h 9.0826 v 60.9817 c 0,6.0379 -1.3155,10.886 -3.9613,14.4938 -3.7822,5.1557 -10.095,7.73 -18.826,7.73 h -13.6356 v -8.5028 h 14.8755 c 3.8007,0 6.8474,-1.0738 9.083,-3.2045 2.2439,-2.1392 3.3818,-5.2341 3.3818,-9.2928 z"
           style="fill:#1b1918;fill-rule:evenodd"
           id="path4495"
           inkscape:connector-curvature="0" />
      </g>
    </g>
  </g>
</svg>
