<?xml version="1.0" encoding="UTF-8" standalone="no"?>
<!-- Created with Inkscape (http://www.inkscape.org/) -->

<svg
   xmlns:dc="http://purl.org/dc/elements/1.1/"
   xmlns:cc="http://creativecommons.org/ns#"
   xmlns:rdf="http://www.w3.org/1999/02/22-rdf-syntax-ns#"
   xmlns:svg="http://www.w3.org/2000/svg"
   xmlns="http://www.w3.org/2000/svg"
   xmlns:sodipodi="http://sodipodi.sourceforge.net/DTD/sodipodi-0.dtd"
   xmlns:inkscape="http://www.inkscape.org/namespaces/inkscape"
   width="151.34358mm"
   height="47.403919mm"
   viewBox="0 0 151.34358 47.403919"
   version="1.1"
   id="svg4594"
   inkscape:version="0.92.1 r15371"
   sodipodi:docname="logo-white.svg">
  <defs
     id="defs4588" />
  <sodipodi:namedview
     id="base"
     pagecolor="#ffffff"
     bordercolor="#666666"
     borderopacity="1.0"
     inkscape:pageopacity="0.0"
     inkscape:pageshadow="2"
     inkscape:zoom="0.49497475"
     inkscape:cx="-369.91574"
     inkscape:cy="-150.1858"
     inkscape:document-units="mm"
     inkscape:current-layer="Layer1000"
     showgrid="false"
     fit-margin-top="0"
     fit-margin-left="0"
     fit-margin-right="0"
     fit-margin-bottom="0"
     inkscape:window-width="1920"
     inkscape:window-height="1018"
     inkscape:window-x="-8"
     inkscape:window-y="-8"
     inkscape:window-maximized="1"
     inkscape:pagecheckerboard="true"
     inkscape:showpageshadow="false" />
  <metadata
     id="metadata4591">
    <rdf:RDF>
      <cc:Work
         rdf:about="">
        <dc:format>image/svg+xml</dc:format>
        <dc:type
           rdf:resource="http://purl.org/dc/dcmitype/StillImage" />
        <dc:title></dc:title>
      </cc:Work>
    </rdf:RDF>
  </metadata>
  <g
     inkscape:label="Camada 1"
     inkscape:groupmode="layer"
     id="layer1"
     transform="translate(-58.887733,-40.464706)">
    <g
       transform="matrix(0.26458333,0,0,0.26458333,23.184525,13.535925)"
       id="Layer1000">
      <path
         inkscape:connector-curvature="0"
         id="path4487"
         style="fill:#ffffff;fill-rule:evenodd;fill-opacity:1"
         d="m 139.8627,141.5641 11.3605,-20.3182 0.0213,-0.0318 c 3.5413,-6.1597 8.5192,-10.9541 14.2566,-14.2363 5.9774,-3.4197 12.7976,-5.2079 19.6874,-5.1997 l 92.9797,0.1172 c 6.9029,0.008 13.7757,1.7696 19.7903,5.1301 5.7665,3.222 10.7547,7.9085 14.2423,13.9225 v 0.011 l 11.8052,20.4639 0.005,-0.003 c 3.5544,6.1307 5.2133,12.8408 5.187,19.4666 -0.0268,6.9008 -1.8851,13.704 -5.3305,19.6551 L 277.276,261.006 c -3.4553,5.968 -8.4183,11.0384 -14.3404,14.5693 -5.6684,3.3791 -12.2214,5.3546 -19.1818,5.3672 h -0.011 l -23.1705,-0.1539 c -7.0903,0.011 -13.7226,-1.9026 -19.4322,-5.2292 -5.9571,-3.4706 -10.919,-8.4841 -14.3573,-14.4554 l -46.3883,-80.5819 c -3.4416,-5.9785 -5.3519,-12.8135 -5.4494,-19.7098 -0.092,-6.5809 1.4678,-13.2248 4.9204,-19.2465 z m 16.1286,-17.6664 0.002,0.001 -11.3605,20.3183 -0.0214,0.0318 c -2.9563,5.1437 -4.291,10.8412 -4.2116,16.4987 0.0838,5.962 1.7394,11.877 4.7221,17.058 l 46.3882,80.5819 c 2.9569,5.1356 7.2315,9.4518 12.3682,12.4443 4.9171,2.8649 10.6206,4.5134 16.7047,4.5019 h 0.011 l 23.1656,0.1539 c 5.9242,-0.012 11.5193,-1.7038 16.3728,-4.5972 5.1224,-3.0544 9.4195,-7.4473 12.4159,-12.6228 l 46.5914,-80.4642 c 2.9755,-5.1394 4.5802,-11.0023 4.6032,-16.9386 0.0225,-5.6772 -1.4037,-11.4355 -4.4597,-16.7063 v -0.011 l -11.8052,-20.4639 -0.005,0.003 c -2.9772,-5.1339 -7.2392,-9.1369 -12.1678,-11.8906 -5.2116,-2.912 -11.1638,-4.4389 -17.1373,-4.4455 l -92.9797,-0.1172 c -5.9253,-0.007 -11.8047,1.5384 -16.9709,4.4942 -4.9307,2.8206 -9.2004,6.9205 -12.2263,12.1705 z" />
      <path
         inkscape:connector-curvature="0"
         id="path4489"
         style="fill:#d0ce6b;fill-opacity:1;fill-rule:evenodd"
         d="m 237.7091,201.8782 0.6238,18.4551 -75.4261,-36.5767 C 150.1087,177.5504 144.5957,160.7471 151.7276,148.34 l 11.6535,-20.2723 c 7.375,-12.8288 24.2325,-16.4708 36.4178,-8.2091 l 22.5215,15.2703 -16.4549,11.1327 -15.2643,-9.5044 c -3.9893,-2.4837 -8.9896,-1.78 -11.424,2.4415 l -10.1364,17.5761 c -2.1853,3.7894 0.3341,8.6664 3.8994,10.5674 z" />
      <path
         inkscape:connector-curvature="0"
         id="path4491"
         style="fill:#0fe1d6;fill-opacity:1;fill-rule:evenodd"
         d="m 247.3203,165.852 15.6707,-9.7678 6.0365,83.6094 c 1.0263,14.2128 -10.7466,27.362 -25.082,27.3894 l -23.3831,0.0438 c -14.7561,0.0279 -26.3767,-12.7926 -25.3175,-27.4342 l 1.9629,-27.1396 17.8691,8.6834 -0.5992,17.9731 c -0.1566,4.6892 2.9629,8.6741 7.8269,8.6719 l 20.2892,-0.01 c 4.371,-0.002 7.3383,-4.6191 7.202,-8.6605 z" />
      <path
         inkscape:connector-curvature="0"
         id="path4493"
         style="fill:#fa59ae;fill-opacity:1;fill-rule:evenodd"
         d="m 211,175.4752 -16.294,-8.6867 69.3896,-47.0329 c 7.7025,-5.2204 18.0591,-5.5512 26.2825,-1.3445 4.1541,2.125 7.6324,5.3261 9.9781,9.3713 l 11.7296,20.2284 c 3.3759,5.8219 4.2522,12.6623 2.5122,19.1561 -1.9327,7.213 -6.8903,13.2281 -13.6119,16.4868 l -24.485,11.8698 -1.4141,-19.8172 15.8645,-8.4671 c 4.1388,-2.2093 6.0305,-6.9034 3.5966,-11.114 l -10.1534,-17.5656 c -2.1885,-3.7867 -7.6707,-4.0452 -11.1008,-1.9081 z" />
      <path
         inkscape:connector-curvature="0"
         id="path4495"
         style="fill:#ffffff;fill-rule:evenodd;fill-opacity:1"
         d="m 347.779,150.889 c 0,-9.7107 3.8651,-17.8913 11.5789,-24.5263 6.9569,-6.0067 14.4774,-9.0021 22.5293,-9.0021 h 8.6962 v 8.5028 h -7.2145 c -8.4064,0 -14.9607,2.7379 -19.6468,8.1971 -4.1227,4.7828 -6.1841,10.5802 -6.1841,17.4083 0,5.8458 1.5139,10.9991 4.5253,15.4597 4.3804,6.4416 11.4015,9.6626 21.0641,9.6626 h 7.456 v 8.5028 h -9.0664 c -9.8236,0 -17.8916,-3.2529 -24.1883,-9.759 -6.361,-6.5061 -9.5497,-14.6547 -9.5497,-24.4459 z m 46.6504,10.4516 c 0,-6.6993 2.5122,-12.3841 7.5366,-17.0381 4.7831,-4.3641 10.2423,-6.5542 16.4101,-6.5542 6.2483,0 11.7398,1.9967 16.4422,5.9905 5.2821,4.5253 7.9231,10.4516 7.9231,17.7949 0,6.0552 -1.8682,11.466 -5.6042,16.2168 -4.3159,5.5397 -9.9845,8.3095 -17.0218,8.3095 -7.5689,0 -13.769,-2.3512 -18.6162,-7.0373 -4.8313,-4.7184 -7.2629,-10.4836 -7.2629,-17.3119 z m 8.8894,-0.1933 c 0,4.4931 1.0951,8.2291 3.3014,11.1762 2.7698,3.7522 6.8925,5.6201 12.3679,5.6201 4.4929,0 8.0035,-1.2881 10.5158,-3.8648 2.8343,-2.8988 4.2515,-7.3274 4.2515,-13.3019 0,-4.4769 -1.4172,-8.0842 -4.2515,-10.854 -2.8827,-2.7056 -6.522,-4.0582 -10.9024,-4.0582 -4.8955,0 -8.7766,1.6748 -11.5949,5.0406 -2.4638,2.8987 -3.6878,6.3127 -3.6878,10.242 z m 48.0578,23.9468 v -31.8863 c 0,-4.1707 1.6008,-7.8378 4.8151,-10.9345 5.1379,-4.9481 13.7018,-6.1449 19.7723,-2.2065 1.6139,1.047 3.1563,2.4481 4.5735,4.2357 1.2882,-1.8523 3.0205,-3.3824 5.1855,-4.5255 6.519,-3.4415 12.8019,-2.5991 18.2229,2.4963 3.2363,3.0418 4.8633,6.701 4.8633,10.9345 v 31.8863 h -8.5026 l -0.0487,-29.2771 c -0.004,-2.577 -0.4853,-4.7813 -1.5943,-6.5059 -3.0134,-4.6859 -8.6955,-4.5808 -11.9422,-0.1453 -1.2168,1.6623 -1.8357,3.8815 -1.8357,6.6512 v 29.2771 h -8.6961 l -0.0487,-28.7136 c -0.005,-3.1405 -0.7351,-5.691 -2.2061,-7.6171 -3.1589,-4.1351 -9.8816,-3.9318 -12.493,0.6922 -1.0182,1.8025 -1.5626,4.3019 -1.5626,7.5366 v 28.1019 z m 107.4018,-22.1109 23.1093,-12.7706 c -1.3528,-1.3526 -2.4478,-2.2545 -3.3013,-2.6894 -1.9808,-1.111 -4.4769,-1.6585 -7.4883,-1.6585 -4.6541,0 -8.3741,1.7392 -11.144,5.2337 -2.5123,3.1402 -3.7684,7.0213 -3.7684,11.611 0,3.9938 1.3206,7.4723 3.9618,10.4192 2.8987,3.2047 6.6669,4.815 11.3211,4.815 4.6861,0 8.2612,-1.2881 10.7091,-3.8648 2.2061,-2.2386 3.7682,-5.8135 4.7184,-10.7092 l 8.535,1.1757 c 0,5.0082 -2.029,9.6623 -6.0872,13.9621 -4.8312,5.1692 -10.9991,7.746 -18.4713,7.746 -6.2967,0 -11.7882,-2.2868 -16.5066,-6.8443 -4.7184,-4.5573 -7.0696,-10.0327 -7.0696,-16.4259 0,-8.052 2.6572,-14.4291 7.9716,-19.1477 4.5573,-4.0582 9.8394,-6.0872 15.8301,-6.0872 5.2499,0 9.7268,1.1917 13.3986,3.5911 3.6071,2.4478 6.7151,6.1678 9.2919,11.1278 l -31.3222,17.36 z m 45.6644,-34.9295 c 0,-1.3528 0.5153,-2.4963 1.5619,-3.4462 1.0468,-0.9664 2.2385,-1.4655 3.5914,-1.4655 1.2883,0 2.4478,0.4991 3.4944,1.4655 1.0146,0.9499 1.5139,2.1739 1.5139,3.6878 0,1.5299 -0.4511,2.7536 -1.3206,3.6233 -0.9824,0.9824 -2.1418,1.4655 -3.4946,1.4655 -1.4171,0 -2.657,-0.4831 -3.6878,-1.4655 -1.1111,-0.8697 -1.6586,-2.1741 -1.6586,-3.8649 z m 0.8051,57.0402 v -46.3795 h 8.503 v 46.3795 z m 22.4295,-14.4774 v -43.69 h 8.4064 v 11.7879 h 16.6515 v 8.1164 h -16.6515 v 25.3798 c 0,1.2884 0.5153,2.3997 1.5619,3.3014 0.9664,0.9824 2.4801,1.4655 4.5253,1.4655 h 10.5643 v 8.1164 h -10.7576 c -4.976,0 -8.664,-1.4493 -11.0956,-4.348 -2.1419,-2.5123 -3.2047,-5.8941 -3.2047,-10.1294 z m 30.9591,-9.2759 c 0,-6.6993 2.5123,-12.3841 7.5366,-17.0381 4.7831,-4.3641 10.2423,-6.5542 16.4101,-6.5542 6.2483,0 11.7398,1.9967 16.4422,5.9905 5.2821,4.5253 7.9231,10.4516 7.9231,17.7949 0,6.0552 -1.8682,11.466 -5.6042,16.2168 -4.3159,5.5397 -9.9845,8.3095 -17.0218,8.3095 -7.5689,0 -13.769,-2.3512 -18.6162,-7.0373 -4.8313,-4.7184 -7.2629,-10.4836 -7.2629,-17.3119 z m 8.8894,-0.1933 c 0,4.4931 1.0951,8.2291 3.3014,11.1762 2.7698,3.7522 6.8925,5.6201 12.3679,5.6201 4.4929,0 8.0035,-1.2881 10.5158,-3.8648 2.8343,-2.8988 4.2516,-7.3274 4.2516,-13.3019 0,-4.4769 -1.4173,-8.0842 -4.2516,-10.854 -2.8827,-2.7056 -6.522,-4.0582 -10.9024,-4.0582 -4.8955,0 -8.7766,1.6748 -11.5949,5.0406 -2.4638,2.8987 -3.6878,6.3127 -3.6878,10.242 z M 526.6172,119.7511 h 9.0826 v 60.9817 c 0,6.0379 -1.3155,10.886 -3.9613,14.4938 -3.7822,5.1557 -10.095,7.73 -18.826,7.73 h -13.6356 v -8.5028 h 14.8755 c 3.8007,0 6.8474,-1.0738 9.083,-3.2045 2.2439,-2.1392 3.3818,-5.2341 3.3818,-9.2928 z" />
      <path
         inkscape:connector-curvature="0"
         id="path4497"
         style="fill:#ffffff;fill-rule:evenodd;fill-opacity:1"
         d="m 499.4054,241.7133 0.0912,-21.3346 h -0.002 c 0,-1.6955 0.2632,-3.2472 0.7885,-4.6536 0.5273,-1.4117 1.3172,-2.6712 2.3682,-3.7764 l 0.002,-0.002 c 1.0632,-1.1053 2.2552,-1.9366 3.5757,-2.4921 1.32,-0.5554 2.7612,-0.8336 4.323,-0.8336 1.6963,0 3.238,0.2775 4.6263,0.8312 1.3929,0.5556 2.6244,1.3872 3.6959,2.493 l 0.005,0.005 c 1.0534,1.1236 1.8445,2.4787 2.3713,4.0626 0.5222,1.5701 0.784,3.3598 0.784,5.367 v 20.335 0.4016 h -0.4017 -4.2833 -0.4016 v -0.4016 -14.179 h -10.7196 -0.1713 v -4.9299 h 0.1713 10.7168 c -0.0417,-3.0352 -0.5618,-5.3156 -1.5591,-6.8402 -1.0056,-1.5374 -2.5212,-2.3063 -4.5452,-2.3063 -1.126,0 -2.1046,0.2109 -2.9372,0.6325 -0.8267,0.4185 -1.5182,1.0496 -2.0754,1.8924 l -3e-4,-1e-4 c -0.4128,0.6363 -0.7241,1.3196 -0.9324,2.0503 -0.2086,0.732 -0.3136,1.5134 -0.3136,2.3442 v 21.3361 0.4016 h -0.4017 -4.3745 -0.4017 z m 55.1264,0.001 v 0.4016 h -0.4016 -4.0099 -0.3995 l -6e-4,-0.4016 -0.0228,-13.8929 h -10e-4 c 0,-0.5832 -0.0586,-1.1158 -0.1757,-1.5964 -0.1143,-0.4696 -0.2858,-0.8956 -0.5138,-1.2764 -0.3178,-0.4847 -0.7078,-0.8463 -1.1686,-1.0847 -0.4685,-0.2425 -1.0196,-0.3635 -1.6516,-0.3635 -0.6983,0 -1.3032,0.1174 -1.8153,0.353 h -10e-4 c -0.5016,0.2307 -0.9219,0.5798 -1.2609,1.0473 l -0.002,0.002 c -0.2602,0.3547 -0.4558,0.771 -0.5865,1.2477 -0.1338,0.4881 -0.2009,1.0459 -0.2009,1.6714 v 13.8929 0.4016 h -0.4017 -4.101 -0.3994 l -7e-4,-0.4016 -0.0228,-13.6254 h -10e-4 c 0,-0.7076 -0.082,-1.3448 -0.2448,-1.9106 -0.1598,-0.5553 -0.3983,-1.0433 -0.7142,-1.4625 l 2e-4,-10e-5 c -0.309,-0.4051 -0.683,-0.7081 -1.1207,-0.9088 -0.4455,-0.2043 -0.9659,-0.3065 -1.5594,-0.3065 -0.7399,0 -1.3624,0.1273 -1.865,0.3825 -0.4855,0.2464 -0.8668,0.6178 -1.1418,1.1145 l -0.003,0.006 c -0.2255,0.3874 -0.3947,0.8575 -0.508,1.4096 -0.1161,0.5653 -0.1739,1.2207 -0.1739,1.9659 v 13.3351 0.4016 h -0.4016 -4.0099 -0.4016 v -0.4016 -15.1308 c 0,-1.0438 0.2014,-2.0257 0.6031,-2.9434 0.3996,-0.9134 0.9967,-1.7585 1.7901,-2.5325 l 10e-4,-0.002 c 0.7812,-0.7539 1.693,-1.3203 2.7333,-1.6979 1.0319,-0.3746 2.186,-0.5624 3.4606,-0.5624 0.768,0 1.4936,0.0969 2.176,0.2908 0.6819,0.1938 1.3196,0.4854 1.9122,0.8741 0.4064,0.2589 0.7981,0.5641 1.1733,0.9138 0.2584,0.2408 0.51,0.5029 0.7544,0.7856 0.2464,-0.3034 0.5195,-0.5867 0.8183,-0.8492 0.4319,-0.3794 0.9168,-0.7144 1.4516,-1.0036 l 0.003,-0.001 c 0.6378,-0.3369 1.3213,-0.5899 2.0493,-0.7581 0.7256,-0.1678 1.4925,-0.2519 2.2994,-0.2519 1.0826,0 2.095,0.1896 3.0379,0.5677 0.9408,0.3772 1.8068,0.9409 2.5984,1.6895 v 0.002 c 0.804,0.7607 1.4085,1.5986 1.8119,2.5112 0.4054,0.9172 0.6087,1.9074 0.6087,2.9679 z m 3.7071,-32.5432 h 4.01 0.4017 v 0.4016 20.6864 c 0,1.0819 0.1577,2.0791 0.4718,2.9912 0.3134,0.9097 0.7834,1.7374 1.4087,2.483 l -9e-4,7e-4 c 0.613,0.7279 1.3196,1.2744 2.1203,1.6381 0.8024,0.3647 1.7045,0.5476 2.7071,0.5476 1.0952,0 2.0718,-0.1996 2.9291,-0.5994 l 6e-4,0.001 c 0.8534,-0.3983 1.5946,-0.9978 2.2231,-1.7991 0.5486,-0.7009 0.96,-1.4596 1.234,-2.2745 0.2741,-0.8155 0.4112,-1.6926 0.4112,-2.6298 0,-1.2025 -0.1806,-2.2616 -0.5423,-3.1768 -0.3569,-0.903 -0.8925,-1.6696 -1.6071,-2.2991 l -0.002,-0.002 c -0.6149,-0.5467 -1.2935,-0.9569 -2.034,-1.2296 -0.7438,-0.2738 -1.5546,-0.4108 -2.4307,-0.4108 -0.5589,0 -1.0906,0.0438 -1.5961,0.1322 -0.5068,0.0886 -0.987,0.2209 -1.4419,0.3974 l -0.009,0.003 c -0.3106,0.1113 -0.6708,0.2748 -1.0772,0.4893 -0.3822,0.2015 -0.8028,0.4475 -1.2593,0.7372 v -5.1416 c 0.2658,-0.1474 0.5393,-0.2814 0.82,-0.4018 0.4671,-0.2001 0.9568,-0.3637 1.4682,-0.4912 v 2e-4 c 0.4816,-0.1259 0.9572,-0.2204 1.4263,-0.2834 0.4787,-0.0641 0.9468,-0.0963 1.4035,-0.0963 1.6109,0 3.0946,0.2492 4.4509,0.7472 1.3596,0.4994 2.5886,1.2482 3.6868,2.2465 l -6e-4,7e-4 c 1.1859,1.0591 2.0752,2.2854 2.6683,3.6773 0.5931,1.3925 0.8894,2.9455 0.8894,4.6578 0,1.6918 -0.2468,3.2548 -0.7402,4.6864 -0.4944,1.4349 -1.2366,2.7365 -2.2262,3.9021 -1.077,1.2701 -2.3386,2.2235 -3.7842,2.8593 -1.442,0.6343 -3.0623,0.9516 -4.8607,0.9516 -1.6578,0 -3.1775,-0.292 -4.5584,-0.8756 -1.3808,-0.5834 -2.6169,-1.458 -3.708,-2.6232 h -10e-4 c -1.0822,-1.16 -1.8953,-2.4392 -2.4382,-3.8369 -0.5428,-1.397 -0.8142,-2.9068 -0.8142,-4.5287 v -21.1374 -0.4016 z m 27.0228,5.4757 c 0,-0.376 0.0729,-0.7267 0.2193,-1.0524 v -0.001 c 0.145,-0.3224 0.3613,-0.615 0.6491,-0.8779 l 2e-4,1e-4 c 0.2806,-0.2599 0.5838,-0.4587 0.9101,-0.5935 0.3323,-0.1374 0.6832,-0.2071 1.0532,-0.2071 0.3568,0 0.6978,0.0704 1.0236,0.2087 0.3175,0.1348 0.6164,0.3341 0.8974,0.5949 l 0.002,0.001 c 0.2821,0.2658 0.4931,0.571 0.6335,0.916 0.1386,0.3403 0.2074,0.7154 0.2074,1.1259 0,0.4072 -0.0615,0.7791 -0.1819,1.1119 -0.1244,0.3435 -0.3115,0.6413 -0.5587,0.8899 -0.268,0.2698 -0.5636,0.4725 -0.887,0.6088 -0.3266,0.1375 -0.6746,0.2059 -1.0448,0.2059 -0.3849,0 -0.7494,-0.0677 -1.0909,-0.2042 -0.3292,-0.1316 -0.6326,-0.3269 -0.9073,-0.5863 -0.309,-0.2463 -0.5406,-0.5529 -0.6957,-0.9167 -0.1532,-0.3591 -0.2292,-0.7683 -0.2292,-1.224 z m 0.3797,27.0675 v -22.0085 -0.4017 h 0.4016 4.0099 0.4016 v 0.4017 22.0085 0.4016 h -0.4016 -4.0099 -0.4016 z m 16.0269,-11.2067 9.7902,-5.4341 c -0.1625,-0.1526 -0.3146,-0.2873 -0.4564,-0.4037 -0.2376,-0.1953 -0.4436,-0.3385 -0.6179,-0.4277 l -0.0143,-0.008 c -0.4318,-0.2437 -0.9231,-0.4265 -1.4734,-0.5489 -0.5556,-0.1234 -1.1763,-0.1848 -1.8619,-0.1848 -1.0398,0 -1.9711,0.1937 -2.7924,0.5818 -0.8175,0.3862 -1.534,0.9689 -2.1476,1.748 l -0.002,0.001 c -0.5621,0.707 -0.9839,1.4973 -1.2648,2.3683 -0.2829,0.877 -0.4244,1.8421 -0.4244,2.8921 0,1.7939 0.5888,3.3556 1.7662,4.6777 0.6443,0.7164 1.383,1.2537 2.2162,1.6107 0.8382,0.359 1.7792,0.5392 2.8232,0.5392 1.0602,0 1.9892,-0.1447 2.7853,-0.4337 0.7819,-0.284 1.4401,-0.7085 1.9733,-1.2733 l 0.006,-0.006 c 0.4854,-0.4956 0.9027,-1.1452 1.2531,-1.9472 0.3578,-0.8188 0.6454,-1.7956 0.8638,-2.929 l 0.0721,-0.3738 0.3767,0.0521 4.0251,0.5579 0.3467,0.0481 v 0.3488 c 0,1.2409 -0.2508,2.44 -0.7521,3.5973 -0.4976,1.1485 -1.2406,2.2497 -2.2284,3.3027 -1.1759,1.2657 -2.5173,2.2157 -4.0215,2.8505 -1.5054,0.6351 -3.1666,0.9523 -4.9813,0.9523 -1.5373,0 -2.9785,-0.2819 -4.3252,-0.8443 -1.3435,-0.5609 -2.5892,-1.4009 -3.7387,-2.518 -1.151,-1.1187 -2.0144,-2.3526 -2.591,-3.7008 -0.5772,-1.3504 -0.8655,-2.8111 -0.8655,-4.381 0,-1.9613 0.3238,-3.724 0.9712,-5.2886 0.6499,-1.5702 1.6245,-2.9354 2.9232,-4.0957 1.111,-0.9954 2.3117,-1.7426 3.6008,-2.2415 1.2933,-0.5002 2.6711,-0.7506 4.1314,-0.7506 1.2737,0 2.4568,0.1465 3.5466,0.4404 1.0913,0.2944 2.0895,0.7379 2.992,1.3313 l 0.006,0.003 c 0.8827,0.6027 1.7026,1.3597 2.4572,2.2691 0.748,0.9014 1.4339,1.9552 2.0552,3.1588 l 0.1777,0.3442 -0.3393,0.1893 -14.1337,7.8733 -0.355,0.1979 -0.1926,-0.3595 -1.7391,-3.2478 -0.1857,-0.3467 z m 19.7667,11.2067 v -13.4267 c 0,-1.32 0.2389,-2.545 0.7165,-3.6745 0.4769,-1.128 1.1905,-2.1541 2.1399,-3.0776 0.9486,-0.9265 2.0064,-1.6216 3.1736,-2.0859 1.1663,-0.4641 2.4347,-0.6957 3.8043,-0.6957 1.0954,0 2.1516,0.1797 3.1666,0.5379 1.011,0.3567 1.9793,0.8914 2.9033,1.6025 l -4e-4,5e-4 c 1.2249,0.9299 2.1435,2.0428 2.7562,3.3387 0.6118,1.2944 0.9173,2.7652 0.9173,4.4133 v 13.0675 0.4016 h -0.4016 -4.0101 -0.4016 v -0.4016 -12.9759 c 0,-0.7297 -0.1162,-1.4069 -0.3477,-2.0301 -0.2317,-0.6238 -0.5815,-1.2015 -1.0481,-1.732 v -0.002 c -0.4593,-0.5257 -0.9806,-0.918 -1.5642,-1.1771 -0.5846,-0.2595 -1.241,-0.3889 -1.9697,-0.3889 -0.6915,0 -1.3267,0.1229 -1.9061,0.3692 -0.5812,0.2471 -1.1129,0.62 -1.5951,1.1194 -0.4775,0.4982 -0.8358,1.0373 -1.0737,1.6167 -0.2364,0.5757 -0.355,1.1976 -0.355,1.8652 v 13.3351 0.4016 h -0.4016 -4.1012 -0.4016 z m 23.422,-6.87 v -20.7324 -0.4016 h 0.4016 3.9645 0.4016 v 0.4016 5.1922 h 7.4513 0.4017 v 0.4017 3.8515 0.4016 h -0.4017 -7.4513 v 11.6419 c 0,0.2498 0.0484,0.4792 0.1455,0.6859 0.098,0.2085 0.2485,0.4019 0.4515,0.5779 l 0.0251,0.0236 c 0.1808,0.1849 0.419,0.3251 0.7131,0.4205 0.3138,0.1018 0.6924,0.1525 1.1339,0.1525 h 4.9822 0.4017 v 0.4016 3.8515 0.4016 h -0.4017 -5.0732 c -1.2229,0 -2.2932,-0.1814 -3.2123,-0.544 -0.9334,-0.3683 -1.7082,-0.9226 -2.3258,-1.6626 l -7e-4,6e-4 c -0.5391,-0.6364 -0.9425,-1.3815 -1.2103,-2.2332 -0.2648,-0.8423 -0.3967,-1.7869 -0.3967,-2.8324 z m 20.1387,-4.339 9.7645,-5.4318 c -0.1626,-0.1526 -0.3148,-0.2873 -0.4564,-0.4037 -0.2376,-0.1953 -0.4436,-0.3385 -0.618,-0.4277 l -0.0142,-0.008 c -0.4317,-0.2437 -0.9231,-0.4265 -1.4736,-0.5489 -0.5556,-0.1234 -1.1763,-0.1848 -1.8618,-0.1848 -1.0399,0 -1.971,0.1937 -2.7923,0.5818 -0.8175,0.3862 -1.534,0.9689 -2.1477,1.748 l -0.002,0.001 c -0.5623,0.7071 -0.9841,1.4975 -1.265,2.3684 -0.2827,0.877 -0.4244,1.842 -0.4244,2.892 0,0.9008 0.147,1.7406 0.4407,2.5181 0.2933,0.7764 0.7354,1.4969 1.3256,2.1596 0.6444,0.7164 1.3831,1.2537 2.2163,1.6107 0.8381,0.359 1.7791,0.5392 2.8231,0.5392 1.0603,0 1.9893,-0.1447 2.7854,-0.4337 0.7819,-0.284 1.4401,-0.7085 1.9733,-1.2733 l 0.006,-0.006 c 0.4853,-0.4956 0.9027,-1.1452 1.2531,-1.9472 0.3578,-0.8188 0.6454,-1.7956 0.8638,-2.929 l 0.072,-0.3738 0.3767,0.0521 4.0252,0.5579 0.3467,0.0481 v 0.3488 c 0,1.2409 -0.2508,2.44 -0.7522,3.5973 -0.4975,1.1485 -1.2405,2.2497 -2.2283,3.3027 -1.176,1.2657 -2.5173,2.2157 -4.0215,2.8505 -1.5054,0.6351 -3.1666,0.9523 -4.9814,0.9523 -1.5372,0 -2.9785,-0.2819 -4.3251,-0.8443 -1.3435,-0.5609 -2.5892,-1.4009 -3.7387,-2.518 -1.151,-1.1187 -2.0145,-2.3526 -2.591,-3.7008 -0.5772,-1.3504 -0.8656,-2.8111 -0.8656,-4.381 0,-1.9613 0.3239,-3.7241 0.9713,-5.2886 0.6499,-1.5702 1.6245,-2.9354 2.9232,-4.0957 1.1109,-0.9954 2.3117,-1.7426 3.6008,-2.2415 1.2933,-0.5002 2.6709,-0.7506 4.1313,-0.7506 1.2737,0 2.4569,0.1465 3.5467,0.4404 1.0913,0.2944 2.0895,0.7379 2.9919,1.3313 l 0.006,0.003 c 0.8826,0.6025 1.7025,1.3597 2.457,2.2691 0.748,0.9014 1.4339,1.9552 2.0553,3.1588 l 0.1776,0.3442 -0.3393,0.1893 -14.1077,7.8709 -0.3551,0.1979 -0.1925,-0.3595 -1.7391,-3.2478 -0.1857,-0.3467 z m 19.4287,7.0475 h 10.9667 0.0477 l 0.0574,0.0158 0.2553,0.0701 c 0.3376,-0.0424 0.6222,-0.0897 0.854,-0.1409 0.2342,-0.0518 0.4198,-0.1071 0.5572,-0.1649 0.2525,-0.1364 0.4396,-0.3062 0.5603,-0.5098 0.1218,-0.2049 0.1827,-0.4543 0.1827,-0.7485 0,-0.4564 -0.2387,-0.8851 -0.7167,-1.2859 -0.534,-0.4478 -1.3472,-0.8538 -2.4392,-1.2177 l -2e-4,9e-4 c -0.7814,-0.2227 -1.5684,-0.4503 -2.3419,-0.6765 -0.7232,-0.2114 -1.3487,-0.3979 -1.8718,-0.557 l -0.0158,-0.005 c -1.0957,-0.3817 -2.0334,-0.7707 -2.8125,-1.1685 v -10e-4 c -0.8007,-0.4087 -1.4428,-0.8296 -1.9262,-1.2635 l 7e-4,-8e-4 c -0.5877,-0.5254 -1.028,-1.1445 -1.3216,-1.8554 -0.292,-0.7074 -0.4377,-1.5004 -0.4377,-2.3776 0,-1.148 0.2225,-2.1495 0.6685,-3.0052 l -10e-4,-6e-4 c 0.4488,-0.8608 1.1208,-1.5649 2.0168,-2.1123 l 0.003,-0.002 c 0.6717,-0.4006 1.4441,-0.7013 2.3147,-0.9006 0.8611,-0.1969 1.817,-0.2961 2.8653,-0.2961 h 9.4327 0.4017 v 0.4016 3.8515 0.4016 h -0.4017 -10.2073 c -1.4047,0 -2.1066,0.5194 -2.1122,1.5578 0.0421,0.3284 0.2197,0.638 0.5333,0.9273 0.3584,0.3306 0.8849,0.6318 1.58,0.9021 l 2e-4,-6e-4 c 0.2321,0.0853 0.703,0.2243 1.4129,0.4157 0.7125,0.1921 1.6355,0.4295 2.7674,0.7105 l 0.0157,0.005 c 1.3174,0.382 2.4543,0.8196 3.41,1.3121 0.9718,0.501 1.7618,1.061 2.369,1.68 l 0.003,0.003 c 0.5737,0.5934 1.0031,1.2633 1.289,2.011 0.2846,0.7439 0.4265,1.5615 0.4265,2.4545 0,1.1938 -0.2328,2.222 -0.6989,3.0842 -0.4714,0.872 -1.1762,1.5662 -2.1147,2.0815 h -0.002 c -0.5969,0.3246 -1.2917,0.5676 -2.0839,0.7286 -0.7827,0.159 -1.6557,0.2387 -2.6187,0.2387 h -1.3519 -9.5161 -0.4016 v -0.4016 -3.7599 -0.4016 z" />
    </g>
  </g>
</svg>
