<?xml version="1.0" encoding="UTF-8" standalone="no"?>
<!-- Created with Inkscape (http://www.inkscape.org/) -->

<svg
   xmlns:dc="http://purl.org/dc/elements/1.1/"
   xmlns:cc="http://creativecommons.org/ns#"
   xmlns:rdf="http://www.w3.org/1999/02/22-rdf-syntax-ns#"
   xmlns:svg="http://www.w3.org/2000/svg"
   xmlns="http://www.w3.org/2000/svg"
   xmlns:sodipodi="http://sodipodi.sourceforge.net/DTD/sodipodi-0.dtd"
   xmlns:inkscape="http://www.inkscape.org/namespaces/inkscape"
   width="74.078911mm"
   height="77.079933mm"
   viewBox="0 0 74.078911 77.079933"
   version="1.1"
   id="svg5759"
   inkscape:version="0.92.1 r15371"
   sodipodi:docname="logo-alt-white.svg">
  <defs
     id="defs5753" />
  <sodipodi:namedview
     id="base"
     pagecolor="#ffffff"
     bordercolor="#666666"
     borderopacity="1.0"
     inkscape:pageopacity="0.0"
     inkscape:pageshadow="2"
     inkscape:zoom="1.4"
     inkscape:cx="231.75019"
     inkscape:cy="207.04043"
     inkscape:document-units="mm"
     inkscape:current-layer="Layer1001"
     showgrid="false"
     fit-margin-top="0"
     fit-margin-left="0"
     fit-margin-right="0"
     fit-margin-bottom="0"
     inkscape:showpageshadow="false"
     borderlayer="false"
     inkscape:pagecheckerboard="true"
     inkscape:window-width="1920"
     inkscape:window-height="1018"
     inkscape:window-x="-8"
     inkscape:window-y="-8"
     inkscape:window-maximized="1" />
  <metadata
     id="metadata5756">
    <rdf:RDF>
      <cc:Work
         rdf:about="">
        <dc:format>image/svg+xml</dc:format>
        <dc:type
           rdf:resource="http://purl.org/dc/dcmitype/StillImage" />
        <dc:title></dc:title>
      </cc:Work>
    </rdf:RDF>
  </metadata>
  <g
     inkscape:label="Camada 1"
     inkscape:groupmode="layer"
     id="layer1"
     transform="translate(-37.043877,-21.846939)">
    <g
       transform="matrix(0.26458333,0,0,0.26458333,-37.322507,-63.622306)"
       id="Layer1001">
      <path
         inkscape:connector-curvature="0"
         id="path4500"
         style="fill:#ffffff;fill-rule:evenodd;fill-opacity:1"
         d="m 281.0698,542.816 c 0,-7.5698 3.013,-13.9469 9.0261,-19.119 5.4231,-4.6824 11.2855,-7.0174 17.5623,-7.0174 h 6.7789 v 6.6282 h -5.6239 c -6.553,0 -11.6623,2.1342 -15.3153,6.3898 -3.2137,3.7284 -4.8207,8.2477 -4.8207,13.5703 0,4.557 1.1802,8.5741 3.5276,12.0513 3.4147,5.0215 8.8879,7.5323 16.4201,7.5323 h 5.8122 v 6.6282 h -7.0675 c -7.6578,0 -13.9471,-2.5358 -18.8555,-7.6074 -4.9586,-5.0717 -7.4443,-11.4238 -7.4443,-19.0563 z m 36.3653,8.1473 c 0,-5.2223 1.9584,-9.6538 5.8751,-13.2817 3.7285,-3.402 7.9841,-5.1092 12.7922,-5.1092 4.8707,0 9.1515,1.5565 12.8171,4.6698 4.1176,3.5276 6.1763,8.1473 6.1763,13.8716 0,4.7202 -1.4563,8.9381 -4.3686,12.6415 -3.3644,4.3183 -7.7832,6.4775 -13.269,6.4775 -5.9002,0 -10.7334,-1.8328 -14.5119,-5.4858 -3.7662,-3.6781 -5.6617,-8.1723 -5.6617,-13.4951 z m 6.9296,-0.1507 c 0,3.5025 0.8537,6.4148 2.5735,8.7122 2.1592,2.925 5.3729,4.381 9.6412,4.381 3.5023,0 6.239,-1.0041 8.1974,-3.0127 2.2094,-2.2597 3.3142,-5.7119 3.3142,-10.3692 0,-3.4899 -1.1048,-6.3019 -3.3142,-8.4611 -2.2472,-2.1091 -5.0841,-3.1635 -8.4988,-3.1635 -3.8162,0 -6.8416,1.3056 -9.0385,3.9293 -1.9207,2.2597 -2.8748,4.921 -2.8748,7.984 z m 37.4625,18.6672 v -24.8563 c 0,-3.2511 1.2479,-6.1097 3.7535,-8.5237 4.0052,-3.8572 10.681,-4.7902 15.4132,-1.7201 1.258,0.8162 2.4603,1.9084 3.5651,3.3019 1.0042,-1.4439 2.3546,-2.6367 4.0423,-3.5277 5.0817,-2.6828 9.9794,-2.0262 14.2053,1.9459 2.5227,2.3712 3.791,5.2236 3.791,8.5237 v 24.8563 h -6.628 l -0.0379,-22.8223 c -0.003,-2.0089 -0.3784,-3.7272 -1.2429,-5.0715 -2.349,-3.6529 -6.7784,-3.5709 -9.3093,-0.1133 -0.9485,1.2958 -1.4309,3.0258 -1.4309,5.1848 v 22.8223 h -6.7789 l -0.038,-22.3831 c -0.004,-2.4481 -0.573,-4.4363 -1.7197,-5.9377 -2.4625,-3.2234 -7.703,-3.0649 -9.7387,0.5396 -0.7937,1.4051 -1.218,3.3535 -1.218,5.875 v 21.9062 z m 83.7229,-17.2361 18.0144,-9.955 c -1.0545,-1.0544 -1.9082,-1.7575 -2.5735,-2.0964 -1.5441,-0.8661 -3.4898,-1.293 -5.8373,-1.293 -3.628,0 -6.5279,1.3558 -8.6871,4.0799 -1.9584,2.4479 -2.9376,5.4733 -2.9376,9.0511 0,3.1133 1.0295,5.8249 3.0883,8.1221 2.2597,2.4981 5.1971,3.7534 8.8252,3.7534 3.653,0 6.4399,-1.0041 8.3481,-3.0127 1.7197,-1.745 2.9374,-4.5318 3.6781,-8.3481 l 6.6533,0.9165 c 0,3.904 -1.5817,7.532 -4.7451,10.8838 -3.7662,4.0296 -8.5742,6.0382 -14.399,6.0382 -4.9085,0 -9.1892,-1.7826 -12.8674,-5.3353 -3.6781,-3.5525 -5.5109,-7.8208 -5.5109,-12.8045 0,-6.2767 2.0713,-11.2479 6.214,-14.9262 3.5526,-3.1635 7.6701,-4.7451 12.3401,-4.7451 4.0925,0 7.5823,0.9289 10.4446,2.7994 2.8118,1.9081 5.2346,4.808 7.2433,8.6744 l -24.4166,13.5327 z m 35.5968,-27.2285 c 0,-1.0545 0.4017,-1.9459 1.2175,-2.6864 0.8161,-0.7534 1.745,-1.1424 2.7996,-1.1424 1.0043,0 1.9082,0.389 2.724,1.1424 0.7909,0.7405 1.1802,1.6946 1.1802,2.8747 0,1.1926 -0.3517,2.1465 -1.0295,2.8245 -0.7658,0.7658 -1.6696,1.1424 -2.7242,1.1424 -1.1046,0 -2.0712,-0.3766 -2.8747,-1.1424 -0.8661,-0.678 -1.2929,-1.6948 -1.2929,-3.0128 z m 0.6276,44.4645 v -36.1542 h 6.6283 v 36.1542 z m 17.4845,-11.2856 v -34.0576 h 6.553 v 9.189 h 12.9803 v 6.327 H 505.812 v 19.7843 c 0,1.0043 0.4017,1.8706 1.2175,2.5735 0.7534,0.7658 1.9333,1.1424 3.5276,1.1424 h 8.2352 v 6.327 h -8.3859 c -3.8789,0 -6.7538,-1.1298 -8.6493,-3.3894 -1.6696,-1.9584 -2.4981,-4.5946 -2.4981,-7.8962 z m 24.1334,-7.2308 c 0,-5.2223 1.9585,-9.6538 5.8751,-13.2817 3.7285,-3.402 7.9842,-5.1092 12.7922,-5.1092 4.8707,0 9.1515,1.5565 12.8171,4.6698 4.1176,3.5276 6.1763,8.1473 6.1763,13.8716 0,4.7202 -1.4563,8.9381 -4.3686,12.6415 -3.3644,4.3183 -7.7832,6.4775 -13.269,6.4775 -5.9002,0 -10.7333,-1.8328 -14.5119,-5.4858 -3.7661,-3.6781 -5.6617,-8.1723 -5.6617,-13.4951 z m 6.9297,-0.1507 c 0,3.5025 0.8536,6.4148 2.5735,8.7122 2.1591,2.925 5.3729,4.381 9.6411,4.381 3.5023,0 6.239,-1.0041 8.1974,-3.0127 2.2094,-2.2597 3.3142,-5.7119 3.3142,-10.3692 0,-3.4899 -1.1048,-6.3019 -3.3142,-8.4611 -2.2471,-2.1091 -5.0841,-3.1635 -8.4988,-3.1635 -3.8161,0 -6.8416,1.3056 -9.0385,3.9293 -1.9207,2.2597 -2.8747,4.921 -2.8747,7.984 z M 420.4795,518.5431 h 7.0802 v 47.537 c 0,4.7067 -1.0255,8.4859 -3.088,11.2983 -2.9484,4.019 -7.8693,6.0258 -14.6754,6.0258 h -10.6294 v -6.6282 h 11.5959 c 2.9628,0 5.3378,-0.837 7.0805,-2.498 1.7492,-1.6676 2.6362,-4.0802 2.6362,-7.244 z" />
      <path
         inkscape:connector-curvature="0"
         id="path4502"
         style="fill:#ffffff;fill-rule:evenodd;fill-opacity:1"
         d="m 399.2671,613.6161 0.0711,-16.6309 h -10e-4 c 0,-1.3217 0.2052,-2.5312 0.6147,-3.6276 0.411,-1.1004 1.0268,-2.0823 1.8461,-2.9438 l 10e-4,-0.001 c 0.8287,-0.8616 1.7579,-1.5096 2.7873,-1.9427 1.0289,-0.4329 2.1524,-0.6498 3.3699,-0.6498 1.3223,0 2.5241,0.2163 3.6064,0.648 1.0857,0.4331 2.0457,1.0813 2.881,1.9433 l 0.004,0.004 c 0.8211,0.8758 1.4378,1.9322 1.8484,3.1668 0.4071,1.224 0.6112,2.6191 0.6112,4.1838 v 15.8517 0.3131 h -0.3131 -3.339 -0.3131 v -0.3131 -11.0529 h -8.3562 -0.1336 v -3.843 h 0.1336 8.354 c -0.0324,-2.3661 -0.4379,-4.1437 -1.2153,-5.3321 -0.7839,-1.1985 -1.9654,-1.7979 -3.5431,-1.7979 -0.8778,0 -1.6406,0.1644 -2.2897,0.493 -0.6444,0.3263 -1.1834,0.8183 -1.6178,1.4753 l -2e-4,-10e-5 c -0.3218,0.496 -0.5645,1.0286 -0.7269,1.5982 -0.1626,0.5707 -0.2444,1.1798 -0.2444,1.8274 v 16.6321 0.3131 h -0.3131 -3.4101 -0.3132 z m 42.9727,0.001 v 0.3131 h -0.3131 -3.1258 -0.3115 l -5e-4,-0.3131 -0.0177,-10.8299 h -0.001 c 0,-0.4546 -0.0456,-0.8698 -0.1369,-1.2444 -0.0891,-0.3661 -0.2228,-0.6982 -0.4005,-0.995 -0.2478,-0.3779 -0.5518,-0.6597 -0.911,-0.8456 -0.3652,-0.1891 -0.7948,-0.2834 -1.2875,-0.2834 -0.5443,0 -1.0159,0.0916 -1.4151,0.2752 h -0.001 c -0.391,0.1798 -0.7187,0.452 -0.983,0.8164 l -10e-4,10e-4 c -0.2028,0.2764 -0.3553,0.601 -0.4572,0.9726 -0.1043,0.3805 -0.1566,0.8153 -0.1566,1.3029 v 10.8299 0.3131 h -0.3131 -3.1969 -0.3113 l -6e-4,-0.3131 -0.0178,-10.6214 h -10e-4 c 0,-0.5515 -0.0639,-1.0483 -0.1908,-1.4893 -0.1245,-0.4329 -0.3105,-0.8134 -0.5567,-1.1401 l 2e-4,-10e-5 c -0.2409,-0.3158 -0.5325,-0.5519 -0.8736,-0.7084 -0.3474,-0.1593 -0.753,-0.239 -1.2157,-0.239 -0.5768,0 -1.062,0.0992 -1.4538,0.2982 -0.3784,0.1921 -0.6757,0.4816 -0.8901,0.8688 l -0.002,0.005 c -0.1758,0.302 -0.3077,0.6684 -0.396,1.0988 -0.0905,0.4407 -0.1356,0.9516 -0.1356,1.5326 v 10.395 0.3131 h -0.3131 -3.1258 -0.3131 v -0.3131 -11.7949 c 0,-0.8136 0.1571,-1.5791 0.4701,-2.2944 0.3116,-0.7121 0.7771,-1.3708 1.3955,-1.9742 l 10e-4,-10e-4 c 0.6089,-0.5877 1.3197,-1.0293 2.1307,-1.3236 0.8044,-0.292 1.704,-0.4384 2.6976,-0.4384 0.5987,0 1.1643,0.0756 1.6963,0.2267 0.5315,0.1511 1.0286,0.3784 1.4906,0.6813 0.3168,0.2019 0.6221,0.4398 0.9146,0.7124 0.2014,0.1877 0.3976,0.3921 0.5881,0.6124 0.1921,-0.2365 0.4049,-0.4574 0.6378,-0.662 0.3368,-0.2957 0.7147,-0.5569 1.1317,-0.7823 l 0.002,-10e-4 c 0.4972,-0.2626 1.03,-0.4598 1.5975,-0.5909 0.5656,-0.1308 1.1634,-0.1964 1.7925,-0.1964 0.8439,0 1.6331,0.1478 2.3681,0.4425 0.7333,0.2941 1.4085,0.7335 2.0255,1.317 v 10e-4 c 0.6268,0.593 1.098,1.2462 1.4124,1.9575 0.3161,0.715 0.4746,1.4869 0.4746,2.3136 z m 2.8898,-25.3684 h 3.1259 0.3131 v 0.3131 16.1257 c 0,0.8433 0.123,1.6206 0.3678,2.3317 0.2443,0.7091 0.6107,1.3543 1.0981,1.9355 l -7e-4,6e-4 c 0.4779,0.5674 1.0287,0.9934 1.6529,1.277 0.6254,0.2842 1.3287,0.4268 2.1102,0.4268 0.8537,0 1.6151,-0.1556 2.2833,-0.4673 l 5e-4,0.001 c 0.6653,-0.3104 1.243,-0.7778 1.733,-1.4024 0.4276,-0.5464 0.7483,-1.1378 0.9619,-1.7731 0.2137,-0.6357 0.3205,-1.3193 0.3205,-2.0499 0,-0.9374 -0.1407,-1.763 -0.4227,-2.4764 -0.2782,-0.7039 -0.6957,-1.3015 -1.2528,-1.7923 l -10e-4,-10e-4 c -0.4793,-0.4262 -1.0083,-0.7459 -1.5856,-0.9585 -0.5798,-0.2135 -1.2118,-0.3203 -1.8948,-0.3203 -0.4357,0 -0.8501,0.0342 -1.2442,0.1031 -0.395,0.0691 -0.7694,0.1722 -1.124,0.3098 l -0.007,0.002 c -0.2421,0.0867 -0.5229,0.2142 -0.8397,0.3814 -0.298,0.1571 -0.6258,0.3489 -0.9817,0.5747 v -4.0081 c 0.2072,-0.1149 0.4204,-0.2193 0.6392,-0.3131 0.3641,-0.1561 0.7458,-0.2836 1.1445,-0.383 v 2e-4 c 0.3754,-0.0981 0.7462,-0.1719 1.1119,-0.2209 0.3731,-0.05 0.738,-0.0751 1.094,-0.0751 1.2558,0 2.4123,0.1942 3.4696,0.5825 1.0599,0.3892 2.0179,0.973 2.874,1.7512 l -5e-4,5e-4 c 0.9245,0.8256 1.6177,1.7815 2.08,2.8666 0.4624,1.0855 0.6933,2.2961 0.6933,3.6309 0,1.3188 -0.1923,2.5372 -0.577,3.6532 -0.3854,1.1185 -0.9639,2.1331 -1.7354,3.0418 -0.8395,0.9901 -1.8229,1.7332 -2.9498,2.2289 -1.1241,0.4944 -2.3872,0.7417 -3.7891,0.7417 -1.2923,0 -2.4769,-0.2276 -3.5534,-0.6825 -1.0763,-0.4548 -2.0399,-1.1366 -2.8905,-2.0448 h -0.001 c -0.8437,-0.9043 -1.4775,-1.9015 -1.9007,-2.991 -0.4231,-1.089 -0.6347,-2.266 -0.6347,-3.5303 v -16.4772 -0.3131 z m 21.065,4.2685 c 0,-0.2931 0.0568,-0.5664 0.171,-0.8204 v -0.001 c 0.113,-0.2514 0.2817,-0.4795 0.506,-0.6844 l 10e-5,10e-5 c 0.2188,-0.2026 0.4551,-0.3575 0.7095,-0.4627 0.259,-0.107 0.5325,-0.1614 0.821,-0.1614 0.2781,0 0.5439,0.0549 0.7979,0.1627 0.2475,0.105 0.4805,0.2604 0.6996,0.4638 l 10e-4,10e-4 c 0.2199,0.2072 0.3844,0.4451 0.4938,0.714 0.1081,0.2653 0.1617,0.5577 0.1617,0.8778 0,0.3174 -0.0479,0.6073 -0.1418,0.8667 -0.097,0.2677 -0.2428,0.4999 -0.4355,0.6937 -0.209,0.2103 -0.4394,0.3683 -0.6914,0.4746 -0.2546,0.1072 -0.5259,0.1605 -0.8145,0.1605 -0.3001,0 -0.5842,-0.0528 -0.8504,-0.1592 -0.2566,-0.1026 -0.4932,-0.2548 -0.7073,-0.4571 -0.2409,-0.192 -0.4214,-0.4309 -0.5423,-0.7146 -0.1194,-0.2799 -0.1787,-0.5989 -0.1787,-0.9541 z m 0.296,21.0999 v -17.1563 -0.3131 h 0.3131 3.1258 0.3131 v 0.3131 17.1563 0.3131 h -0.3131 -3.1258 -0.3131 z m 12.4934,-8.7359 7.6318,-4.2361 c -0.1267,-0.1189 -0.2452,-0.2239 -0.3558,-0.3147 -0.1852,-0.1522 -0.3457,-0.2638 -0.4817,-0.3334 l -0.011,-0.006 c -0.3367,-0.19 -0.7196,-0.3325 -1.1486,-0.4279 -0.4332,-0.0962 -0.917,-0.1441 -1.4514,-0.1441 -0.8106,0 -1.5366,0.1511 -2.1768,0.4536 -0.6372,0.3011 -1.1958,0.7553 -1.6741,1.3626 l -10e-4,0.001 c -0.4382,0.5511 -0.767,1.1671 -0.986,1.8461 -0.2205,0.6837 -0.3308,1.436 -0.3308,2.2545 0,1.3984 0.459,2.6158 1.3767,3.6464 0.5024,0.5584 1.0782,0.9773 1.7277,1.2556 0.6534,0.2799 1.3869,0.4203 2.2007,0.4203 0.8265,0 1.5507,-0.1128 2.1713,-0.3381 0.6095,-0.2213 1.1226,-0.5523 1.5382,-0.9925 l 0.005,-0.005 c 0.3784,-0.3863 0.7037,-0.8927 0.9769,-1.5179 0.2789,-0.6382 0.5031,-1.3997 0.6733,-2.2832 l 0.0562,-0.2914 0.2936,0.0406 3.1377,0.4349 0.2703,0.0375 v 0.272 c 0,0.9673 -0.1955,1.902 -0.5863,2.8042 -0.3879,0.8952 -0.967,1.7536 -1.7371,2.5745 -0.9166,0.9867 -1.9623,1.7272 -3.1348,2.222 -1.1736,0.4951 -2.4685,0.7424 -3.8831,0.7424 -1.1984,0 -2.3219,-0.2198 -3.3716,-0.6582 -1.0473,-0.4372 -2.0184,-1.092 -2.9145,-1.9629 -0.8972,-0.872 -1.5703,-1.8338 -2.0197,-2.8849 -0.45,-1.0526 -0.6747,-2.1913 -0.6747,-3.415 0,-1.5289 0.2524,-2.903 0.757,-4.1226 0.5067,-1.2241 1.2664,-2.2883 2.2788,-3.1928 0.866,-0.7759 1.802,-1.3584 2.8069,-1.7473 1.0082,-0.3899 2.0822,-0.5851 3.2206,-0.5851 0.9928,0 1.9151,0.1142 2.7646,0.3433 0.8508,0.2295 1.6289,0.5752 2.3324,1.0378 l 0.005,0.002 c 0.6881,0.4699 1.3272,1.06 1.9154,1.7689 0.5831,0.7026 1.1178,1.5241 1.6021,2.4624 l 0.1385,0.2683 -0.2645,0.1475 -11.0176,6.1375 -0.2768,0.1543 -0.15,-0.2803 -1.3557,-2.5317 -0.1448,-0.2702 z m 15.4088,8.7359 v -10.4665 c 0,-1.029 0.1862,-1.9839 0.5585,-2.8644 0.3718,-0.8793 0.9281,-1.6791 1.6682,-2.399 0.7394,-0.7223 1.564,-1.2641 2.4738,-1.6261 0.9093,-0.3618 1.898,-0.5423 2.9656,-0.5423 0.854,0 1.6773,0.1401 2.4685,0.4193 0.7881,0.2781 1.5429,0.6949 2.2632,1.2492 l -3e-4,4e-4 c 0.9548,0.7249 1.6709,1.5924 2.1485,2.6026 0.477,1.0091 0.7151,2.1556 0.7151,3.4403 v 10.1865 0.3131 h -0.3131 -3.1259 -0.3131 v -0.3131 -10.115 c 0,-0.5689 -0.0906,-1.0968 -0.2711,-1.5826 -0.1806,-0.4862 -0.4532,-0.9366 -0.817,-1.3501 v -10e-4 c -0.358,-0.4098 -0.7644,-0.7156 -1.2193,-0.9176 -0.4557,-0.2022 -0.9674,-0.3031 -1.5355,-0.3031 -0.539,0 -1.0342,0.0958 -1.4858,0.2877 -0.4531,0.1927 -0.8675,0.4834 -1.2434,0.8726 -0.3723,0.3884 -0.6516,0.8087 -0.837,1.2603 -0.1843,0.4488 -0.2768,0.9336 -0.2768,1.4541 v 10.395 0.3131 h -0.3131 -3.197 -0.313 z m 18.2581,-5.3554 v -16.1615 -0.3131 h 0.3131 3.0904 0.3131 v 0.3131 4.0475 h 5.8086 0.313 v 0.3131 3.0024 0.3131 h -0.313 -5.8086 v 9.0752 c 0,0.1947 0.0377,0.3735 0.1135,0.5347 0.0763,0.1625 0.1936,0.3132 0.3519,0.4505 l 0.0196,0.0183 c 0.1409,0.1442 0.3266,0.2534 0.5558,0.3278 0.2446,0.0794 0.5398,0.1189 0.8839,0.1189 h 3.8839 0.313 v 0.313 3.0024 0.3131 h -0.313 -3.9548 c -0.9533,0 -1.7876,-0.1414 -2.5041,-0.4241 -0.7275,-0.2871 -1.3315,-0.7192 -1.813,-1.296 l -5e-4,4e-4 c -0.4203,-0.496 -0.7347,-1.0769 -0.9435,-1.7408 -0.2064,-0.6566 -0.3093,-1.393 -0.3093,-2.208 z m 15.6988,-3.3824 7.6117,-4.2342 c -0.1267,-0.1189 -0.2454,-0.2239 -0.3558,-0.3147 -0.1852,-0.1522 -0.3458,-0.2638 -0.4817,-0.3334 l -0.0111,-0.006 c -0.3365,-0.19 -0.7196,-0.3325 -1.1487,-0.4279 -0.4331,-0.0962 -0.917,-0.1441 -1.4514,-0.1441 -0.8106,0 -1.5364,0.1511 -2.1766,0.4536 -0.6373,0.3011 -1.1958,0.7553 -1.6742,1.3626 l -10e-4,0.001 c -0.4383,0.5512 -0.7671,1.1673 -0.986,1.8462 -0.2205,0.6837 -0.3309,1.4359 -0.3309,2.2544 0,0.7022 0.1145,1.3568 0.3435,1.9629 0.2287,0.6053 0.5733,1.1669 1.0334,1.6835 0.5023,0.5584 1.0781,0.9773 1.7276,1.2556 0.6534,0.2799 1.3869,0.4203 2.2008,0.4203 0.8264,0 1.5507,-0.1128 2.1712,-0.3381 0.6095,-0.2213 1.1226,-0.5523 1.5383,-0.9925 l 0.005,-0.005 c 0.3783,-0.3863 0.7037,-0.8927 0.9768,-1.5179 0.2789,-0.6382 0.5031,-1.3997 0.6734,-2.2832 l 0.0561,-0.2914 0.2937,0.0406 3.1377,0.4349 0.2703,0.0375 v 0.272 c 0,0.9673 -0.1955,1.902 -0.5863,2.8042 -0.3879,0.8952 -0.9671,1.7536 -1.7371,2.5745 -0.9167,0.9867 -1.9623,1.7272 -3.1349,2.222 -1.1735,0.4951 -2.4684,0.7424 -3.8831,0.7424 -1.1984,0 -2.3218,-0.2198 -3.3716,-0.6582 -1.0473,-0.4372 -2.0184,-1.092 -2.9144,-1.9629 -0.8973,-0.872 -1.5703,-1.8338 -2.0198,-2.8849 -0.45,-1.0526 -0.6747,-2.1913 -0.6747,-3.415 0,-1.5289 0.2524,-2.9031 0.7571,-4.1226 0.5066,-1.2241 1.2664,-2.2883 2.2787,-3.1928 0.8661,-0.7759 1.8021,-1.3584 2.807,-1.7473 1.0081,-0.3899 2.082,-0.5851 3.2204,-0.5851 0.993,0 1.9152,0.1142 2.7648,0.3433 0.8507,0.2295 1.6288,0.5752 2.3323,1.0378 l 0.005,0.002 c 0.688,0.4698 1.3271,1.06 1.9153,1.7689 0.5831,0.7026 1.1178,1.5241 1.6022,2.4624 l 0.1384,0.2683 -0.2645,0.1475 -10.9974,6.1357 -0.2767,0.1543 -0.1501,-0.2803 -1.3557,-2.5318 -0.1447,-0.2702 z m 15.1452,5.4938 h 8.5489 0.0372 l 0.0447,0.0123 0.1991,0.0546 c 0.2631,-0.033 0.485,-0.0698 0.6657,-0.1098 0.1825,-0.0403 0.3272,-0.0835 0.4343,-0.1285 0.1968,-0.1063 0.3427,-0.2387 0.4368,-0.3974 0.0949,-0.1597 0.1424,-0.3541 0.1424,-0.5835 0,-0.3558 -0.1861,-0.69 -0.5587,-1.0024 -0.4163,-0.3491 -1.0502,-0.6656 -1.9014,-0.9492 l -2e-4,7e-4 c -0.6091,-0.1737 -1.2226,-0.351 -1.8256,-0.5274 -0.5637,-0.1648 -1.0513,-0.3101 -1.4591,-0.4342 l -0.0123,-0.004 c -0.8541,-0.2976 -1.5851,-0.6008 -2.1925,-0.9109 v -0.001 c -0.6241,-0.3185 -1.1246,-0.6466 -1.5015,-0.985 l 6e-4,-5e-4 c -0.4581,-0.4096 -0.8014,-0.8922 -1.0302,-1.4464 -0.2276,-0.5514 -0.3413,-1.1696 -0.3413,-1.8534 0,-0.8949 0.1735,-1.6756 0.5212,-2.3426 l -10e-4,-5e-4 c 0.3498,-0.671 0.8737,-1.2199 1.5721,-1.6466 l 0.002,-10e-4 c 0.5236,-0.3123 1.1258,-0.5466 1.8044,-0.702 0.6713,-0.1535 1.4164,-0.2308 2.2336,-0.2308 h 7.3531 0.3131 v 0.313 3.0024 0.3131 h -0.3131 -7.957 c -1.095,0 -1.6421,0.4048 -1.6464,1.2143 0.0327,0.256 0.1712,0.4973 0.4157,0.7229 0.2793,0.2577 0.6898,0.4925 1.2316,0.7032 l 2e-4,-5e-4 c 0.1809,0.0665 0.548,0.1749 1.1014,0.3241 0.5554,0.1498 1.2749,0.3348 2.1572,0.5538 l 0.0123,0.004 c 1.0269,0.2978 1.9132,0.6389 2.6582,1.0228 0.7576,0.3905 1.3733,0.8271 1.8467,1.3097 l 0.002,0.002 c 0.4472,0.4626 0.782,0.9848 1.0049,1.5677 0.2218,0.5798 0.3324,1.2172 0.3324,1.9133 0,0.9307 -0.1815,1.7321 -0.5448,2.4042 -0.3675,0.6798 -0.9169,1.2209 -1.6485,1.6226 h -10e-4 c -0.4653,0.2531 -1.0068,0.4425 -1.6244,0.568 -0.6101,0.124 -1.2907,0.1861 -2.0414,0.1861 h -1.0538 -7.4181 -0.3131 v -0.3131 -2.9309 -0.3131 z" />
      <path
         inkscape:connector-curvature="0"
         id="path4506"
         style="fill:#ffffff;fill-rule:evenodd;fill-opacity:1"
         d="m 328.4013,363.5719 11.5753,-20.7026 0.0218,-0.0323 c 3.6082,-6.2763 8.6802,-11.1613 14.5262,-14.5056 6.0904,-3.4844 13.0397,-5.3064 20.0598,-5.298 l 94.7384,0.1194 c 7.0335,0.008 14.0363,1.803 20.1647,5.2271 5.8756,3.2829 10.9582,8.0581 14.5117,14.1859 v 0.0111 l 12.0285,20.8511 0.005,-0.003 c 3.6216,6.2466 5.3119,13.0837 5.2851,19.8348 -0.0273,7.0313 -1.9207,13.9632 -5.4314,20.0269 l -47.4727,81.9862 c -3.5207,6.0809 -8.5776,11.2472 -14.6116,14.8449 -5.7757,3.443 -12.4526,5.4559 -19.5447,5.4687 h -0.0112 l -23.6088,-0.1568 c -7.2244,0.0112 -13.9822,-1.9386 -19.7997,-5.3281 -6.0698,-3.5363 -11.1256,-8.6446 -14.629,-14.7289 L 328.943,403.2666 c -3.5067,-6.0916 -5.4531,-13.0559 -5.5525,-20.0827 -0.0937,-6.7053 1.4956,-13.4749 5.0134,-19.6105 z m 16.4336,-18.0006 0.002,10e-4 -11.5753,20.7026 -0.0218,0.0323 c -3.0123,5.2411 -4.3722,11.0464 -4.2913,16.8109 0.0854,6.0748 1.7723,12.1016 4.8114,17.3806 l 47.2657,82.1062 c 3.0128,5.2327 7.3683,9.6306 12.6021,12.6797 5.0101,2.9191 10.8215,4.5988 17.0207,4.5871 h 0.0112 l 23.6038,0.1568 c 6.0363,-0.0123 11.7372,-1.7361 16.6825,-4.6842 5.2194,-3.1122 9.5977,-7.5882 12.6507,-12.8616 l 47.4728,-81.9862 c 3.0318,-5.2366 4.6668,-11.2104 4.6903,-17.259 0.0229,-5.7846 -1.4303,-11.6518 -4.5441,-17.0223 v -0.0112 l -12.0285,-20.851 -0.005,0.003 c -3.0335,-5.231 -7.3762,-9.3097 -12.3979,-12.1155 -5.3103,-2.9671 -11.3751,-4.5229 -17.4616,-4.5296 l -94.7384,-0.1194 c -6.0374,-0.007 -12.0279,1.5675 -17.2919,4.5793 -5.024,2.8738 -9.3745,7.0513 -12.4576,12.4006 z" />
      <path
         inkscape:connector-curvature="0"
         id="path4508"
         style="fill:#d0ce6b;fill-rule:evenodd;fill-opacity:1"
         d="m 428.0984,425.0269 0.6356,18.8041 -76.8528,-37.2685 C 338.841,400.2389 333.2238,383.1177 340.4906,370.476 l 11.8739,-20.6558 c 7.5145,-13.0714 24.6909,-16.7824 37.1066,-8.3644 l 22.9476,15.5592 -16.7662,11.3432 -15.553,-9.6842 c -4.0648,-2.5307 -9.1597,-1.8136 -11.6401,2.4878 l -10.3282,17.9085 c -2.2265,3.861 0.3404,8.8304 3.9732,10.7673 z" />
      <path
         inkscape:connector-curvature="0"
         id="path4510"
         style="fill:#0fe1d6;fill-rule:evenodd;fill-opacity:1"
         d="m 437.8914,388.3192 15.9671,-9.9526 6.1507,85.191 c 1.0458,14.4816 -10.9498,27.8795 -25.5564,27.9074 l -23.8254,0.0447 c -15.0352,0.0284 -26.8756,-13.0346 -25.7963,-27.9532 l 2,-27.653 18.207,8.8477 -0.6105,18.3131 c -0.1596,4.7779 3.019,8.8382 7.9749,8.836 l 20.6731,-0.0101 c 4.4537,-0.002 7.4771,-4.7065 7.3381,-8.8242 z" />
      <path
         inkscape:connector-curvature="0"
         id="path4512"
         style="fill:#fa59ae;fill-rule:evenodd;fill-opacity:1"
         d="m 400.8841,398.1245 -16.6022,-8.8511 70.7022,-47.9225 c 7.8482,-5.3192 18.4007,-5.6562 26.7796,-1.37 4.2327,2.1652 7.7768,5.4269 10.1669,9.5486 l 11.9515,20.6111 c 3.4397,5.9319 4.3326,12.9018 2.5597,19.5184 -1.9693,7.3494 -7.0207,13.4783 -13.8695,16.7986 l -24.9481,12.0944 -1.4409,-20.1921 16.1647,-8.6272 c 4.2171,-2.2511 6.1445,-7.0341 3.6646,-11.3242 l -10.3454,-17.898 c -2.23,-3.8582 -7.8159,-4.1216 -11.3109,-1.9442 z" />
    </g>
  </g>
</svg>
