<?xml version="1.0" encoding="UTF-8"?>
<svg viewBox="0 0 547.69 273.70001" xmlns="http://www.w3.org/2000/svg">
 <defs>
  <filter id="b">
   <feGaussianBlur stdDeviation=".5289"/>
  </filter>
  <linearGradient id="a" x1="-157.77" x2="-182.17" y1="943.29" y2="975.99" gradientUnits="userSpaceOnUse">
   <stop stop-color="#2a2a2a" offset="0"/>
   <stop stop-color="#2a2a2a" stop-opacity="0" offset="1"/>
  </linearGradient>
 </defs>
 <g transform="translate(-22.299 -244.17)">
  <path d="m554.98 252.92c4.5712 0 8.25 3.6788 8.25 8.25v102.28c0 4.5712-3.6788 8.25-8.25 8.25h-102.28c-4.5712 0-8.25-3.6788-8.25-8.25v-102.28c0-4.5712 3.6788-8.25 8.25-8.25z" fill="#2a2a2a"/>
  <path transform="matrix(1.5 0 0 1.5 715.4 -1086.6)" d="m-176.5 900.34c-1.2825 0.88962-2.1265 2.2827-2.2188 4l-3.5 65.188c-0.16342 3.0431 2.4569 5.6634 5.5 5.5l65.188-3.5c0.29941-0.0161 0.59411-0.0648 0.875-0.125v-3.0938h-61.156c-2.7492 0-4.9375-2.2195-4.9375-4.9688v-61.5c0-0.52757 0.0989-1.0238 0.25-1.5z" fill="url(#a)" filter="url(#b)"/>
  <path d="m554.98 252.92c4.5712 0 8.25 3.6788 8.25 8.25v102.28c0 4.5712-3.6788 8.25-8.25 8.25h-102.28c-4.5712 0-8.25-3.6788-8.25-8.25v-102.28c0-4.5712 3.6788-8.25 8.25-8.25h102.28zm-50.109 5.9531h-1.0312c-1.954 0-3.7174 0.38946-5.1094 1.0781-0.83595 0.41344-1.4955 1.0618-1.9688 1.7812l-0.375-0.1875-0.28125 1.2188-14.344 58.5-15.047 8.8125c-2.2768 1.3145-4.005 2.2411-5.25 3.1406-0.62805 0.45382-1.1566 0.92652-1.5469 1.4062s-0.65625 1.0716-0.65625 1.7344l0.23438 2.6719c0 1.1504 0.58477 2.2444 1.7344 3.2344s2.8703 2.046 5.5781 3.6094l27.375 15.797c4.566 2.6362 6.9876 4.125 9.6562 4.125s5.0435-1.4888 9.6094-4.125l27.422-15.797c2.6934-1.5551 4.4165-2.5186 5.5781-3.4688s1.7344-2.0917 1.7344-3.375l0.23437-2.6719c0-0.66276-0.31537-1.2579-0.70312-1.7344s-0.8718-0.95236-1.5-1.4062c-1.2448-0.89954-2.9732-1.8261-5.25-3.1406l-15.141-8.8125-14.297-58.5-0.1875-0.75h-0.28125c-0.45255-0.86894-1.1671-1.5939-2.1094-2.0625-1.1007-0.54745-2.5888-0.7197-4.0781-0.84375v-0.23438zm-1.0312 2.4844c1.6178 0 3.0786 0.32314 4.0312 0.79687 0.9618 0.4784 1.2188 0.94719 1.2188 1.1719s-0.27135 0.69562-1.2188 1.1719-2.4118 0.84375-4.0312 0.84375-3.0837-0.36995-4.0312-0.84375c-0.9519-0.47593-1.2188-0.94345-1.2188-1.1719s0.25245-0.69386 1.2188-1.1719c0.95265-0.47125 2.4134-0.79687 4.0312-0.79687zm6.2812 3.9375 3.7031 15.281-0.0468 0.0468c-0.1437 0.15492-0.31747 0.34572-1.1719 0.75-1.4096 0.66693-4.0876 1.5938-8.7656 1.5938s-7.309-0.92679-8.7188-1.5938c-0.91095-0.43095-1.1408-0.6243-1.3125-0.79687l3.703-15.281c0.3876 0.3876 0.8628 0.71274 1.4062 0.98437 1.3218 0.66099 3.028 1.0781 4.9219 1.0781s3.6127-0.42001 4.9219-1.0781c0.5376-0.27024 0.97268-0.59974 1.3594-0.98437zm-20.391 32.016c3.535 1.3998 8.128 2.5312 14.109 2.5312 5.9294 0 10.574-1.0559 14.109-2.4375l2.5312 10.359c-0.46635 0.33276-1.0219 0.72595-2.0625 1.2656-2.6896 1.395-7.2511 3-14.578 3s-11.841-1.605-14.531-3c-1.1016-0.57139-1.7154-0.95689-2.1562-1.2656l2.5781-10.453zm36.891 27.234 13.125 7.5938c2.2832 1.3181 4.0166 2.338 5.0625 3.0938 0.49395 0.35702 0.77302 0.67773 0.98437 0.9375 0.1875 0.237 0.1875 0.18774 0.1875 0.1875s-0.0236 0.0798-0.1875 0.28125c-0.21135 0.25977-0.49027 0.58046-0.98437 0.9375-1.046 0.75574-2.7794 1.7287-5.0625 3.0469l-27.375 15.797c-4.5603 2.6329-6.7621 3.7969-8.5781 3.7969s-3.9215-1.1625-8.4844-3.7969l-27.422-15.797c-2.283-1.3182-3.9697-2.2911-5.0156-3.0469-0.4941-0.35702-0.8199-0.67773-1.0312-0.9375-0.1635-0.201-0.14055-0.28149-0.14055-0.28125s-0.0527 0.0501 0.14055-0.1875c0.21135-0.25977 0.53715-0.5805 1.0312-0.9375 1.046-0.75576 2.7326-1.7756 5.0156-3.0938l13.125-7.5469-2.5781 10.688v0.0936c-0.0465 0.39375-0.0468 0.70159-0.0468 1.0312 0 3.9164 3.1276 7.2591 7.7344 9.5625s10.827 3.6562 17.719 3.6562 13.159-1.3529 17.766-3.6562 7.6875-5.6461 7.6875-9.5625c0-0.47795-0.0468-0.93578-0.0468-0.98438l-0.0468-0.0468v-0.0937l-2.5781-10.734zm-43.547 0.0468c4.9324 2.3013 11.718 4.3125 20.766 4.3125 9.012 0 15.837-1.9757 20.766-4.2656l2.625 10.969c0.0255 0.29938 0.0937 0.55805 0.0937 0.79687 0 2.8404-2.3656 5.6593-6.6094 7.7812s-10.253 3.4688-16.875 3.4688-12.584-1.3468-16.828-3.4688-6.6094-4.9409-6.6094-7.7812c0-0.34171-0.015-0.5106 0-0.65625v-0.0937l2.6719-11.062z" fill="#c5b798"/>
  <path d="m554.98 252.92c4.5712 0 8.25 3.6788 8.25 8.25v102.28c0 4.5712-3.6788 8.25-8.25 8.25h-102.28c-4.5712 0-8.25-3.6788-8.25-8.25v-102.28c0-4.5712 3.6788-8.25 8.25-8.25z" fill="none" stroke="#c5b798" stroke-width="1.5"/>
 </g>
 <g transform="translate(-22.299 -244.17)">
  <path d="m554.99 388.91c4.5712 0 8.25 3.6788 8.25 8.25v102.28c0 4.5712-3.6788 8.25-8.25 8.25h-102.28c-4.5712 0-8.25-3.6788-8.25-8.25v-102.28c0-4.5712 3.6788-8.25 8.25-8.25z" fill="#2a2a2a"/>
  <path transform="matrix(1.5 0 0 1.5 715.41 -950.59)" d="m-176.5 900.34c-1.2825 0.88962-2.1265 2.2827-2.2188 4l-3.5 65.188c-0.16342 3.0431 2.4569 5.6634 5.5 5.5l65.188-3.5c0.29941-0.0161 0.59411-0.0648 0.875-0.125v-3.0938h-61.156c-2.7492 0-4.9375-2.2195-4.9375-4.9688v-61.5c0-0.52757 0.0989-1.0238 0.25-1.5z" fill="url(#a)" filter="url(#b)"/>
  <path d="m554.99 388.91c4.5712 0 8.25 3.6788 8.25 8.25v102.28c0 4.5712-3.6788 8.25-8.25 8.25h-11.062v-23.391l5.6719-3.2812v-4.8281l-5.6719-3.2344v-29.062l5.6719-3.2344v-4.8281l-5.6719-3.2812v-43.641h11.062zm-14.25 0v41.812l-24.75-14.297v-27.516h24.75zm-27.938 0v25.641l-10.828-6.2344v-19.406h10.828zm-14.016 0v17.578l-12.141-6.9844-19.594 11.297v-21.891h31.734zm-34.969 0v23.766l-5.1094 2.9531v4.8281l5.1094 3v29.578l-5.1094 2.9531v4.875l5.1094 2.9531v28.969h3.2344v-27.141l17.766 10.266v12.844h3.1875v-10.969l10.781 6.2344v12.797h3.1875v-10.969l10.828 6.2344v15.609h-60.094c-4.5712 0-8.2969-3.6788-8.2969-8.25v-102.28c0-4.5712 3.7256-8.25 8.2969-8.25h11.109zm22.828 13.828 26.156 15.047v29.062l-10.828-6.2344-3.1875-1.8281-10.781-6.2344-3.1875-1.8281-10.781-6.2344-2.1094-1.2188-4.875-2.8125v-6.4219l19.594-11.297zm-22.828 13.172v2.6719l-2.2969-1.3594 2.2969-1.3125zm52.172 3.75 24.75 14.297v6.9844l-4.3594 2.4844-2.625 1.5469-11.344 6.5156-0.79687 0.46875-0.79688-0.46875-4.8281-2.7656v-29.062zm-48.938 5.625 3.7969 2.2031v21.469l-3.7969 2.2031v-25.875zm6.9844 4.0312 10.781 6.2344v5.25l-10.781 6.2812v-17.766zm69.891 6.4688 2.8594 1.6406-2.8594 1.6406v-3.2812zm-55.922 1.5938 10.781 6.2344v3.375l-10.781-6.2344v-3.375zm0 6.4688 24.797 14.297v29.062l-10.828-6.2344-3.1875-1.8281-10.781-6.2344-3.1875-1.8281-17.766-10.266v-6.375l3.7969-2.2031v4.2188h3.1875v-6.0938l10.781-6.2344v4.2656h3.1875v-4.5469zm13.969 1.6406 10.828 6.2344v3.2812l-10.828-6.1875v-3.3281zm38.766 0.28125v25.312l-3.7969-2.1562v-20.953l3.7969-2.2031zm-6.9844 4.0312v17.297l-10.781-6.2344v-4.8281l10.781-6.2344zm-17.766 3.75 3.7969 2.2031v3.2812l-3.7969-2.1562v-3.3281zm-52.172 2.7188v2.7188l-2.2969-1.3594 2.2969-1.3594zm52.172 3.7031 3.7969 2.2031v22.547h3.1875v-20.672l10.781 6.2344v6.375h3.1875v-4.5469l3.7969 2.2031v6.9844l-4.3594 2.4844-2.625 1.5469-11.344 6.5625-0.79687 0.42188-0.79688-0.42188-4.8281-2.8125v-29.109zm27.938 16.172 2.8594 1.6406-2.8594 1.6406v-3.2812zm-3.1875 9.9844v21.562h-3.7969v-19.359l3.7969-2.2031zm-6.9844 4.0312v17.531h-10.781v-11.297l10.781-6.2344zm-17.766 3.75 3.7969 2.2031v11.578h-3.7969v-13.781z" fill="#c5b798"/>
  <path d="m554.97 388.91c4.5712 0 8.25 3.6788 8.25 8.25v102.28c0 4.5712-3.6788 8.25-8.25 8.25h-102.28c-4.5712 0-8.25-3.6788-8.25-8.25v-102.28c0-4.5712 3.6788-8.25 8.25-8.25z" fill="none" stroke="#c5b798" stroke-width="1.5"/>
 </g>
 <g transform="translate(-22.299 -244.17)">
  <path d="m417.36 252.92c4.5712 0 8.25 3.6788 8.25 8.25v102.28c0 4.5712-3.6788 8.25-8.25 8.25h-102.28c-4.5712 0-8.25-3.6788-8.25-8.25v-102.28c0-4.5712 3.6788-8.25 8.25-8.25z" fill="#2a2a2a"/>
  <path transform="matrix(1.5 0 0 1.5 577.78 -1086.6)" d="m-176.5 900.34c-1.2825 0.88962-2.1265 2.2827-2.2188 4l-3.5 65.188c-0.16342 3.0431 2.4569 5.6634 5.5 5.5l65.188-3.5c0.29941-0.0161 0.59411-0.0648 0.875-0.125v-3.0938h-61.156c-2.7492 0-4.9375-2.2195-4.9375-4.9688v-61.5c0-0.52757 0.0989-1.0238 0.25-1.5z" fill="url(#a)" filter="url(#b)"/>
  <path d="m417.35856,252.9194c3.79755,0 6.95325,2.56637 7.92195,6.04687l-43.8282,25.3125v-8.4375c0-1.99932-1.60995-3.60937-3.6093-3.60937s-3.60945,1.61005-3.60945,3.60937v11.4375l-9.84375-5.67187c-1.06575-.61528-2.4315-.26883-3.0468.79687s-.26895,2.43159.7968,3.04688l.1407.0937v2.90625c-.34335.19011-.5625.47956-.5625.79687s.21915.60675.5625.79688v1.82812c-.3414.1901-.5625.48057-.5625.79688s.2211.55989.5625.75v1.5c-.3414.19009-.5625.43369-.5625.75l-2.7189,1.59375-2.76555-1.59375c-1.06575-.61528-2.40255-.28484-3,.75l-.047.0937c-.4596.7959-.32895,1.75227.23445,2.4375v1.5l-46.59375,26.90625v-66.1875c0-4.57124 3.67875-8.25 8.25-8.25h102.28125zm8.25,8.67187v9.42188l-39.75,22.96875-4.40625-2.53125v-4.35938l44.15625-25.5zm0,12.23438v15.60937l-34.78125,20.0625v-.75c.35775-.19007.6093-.4719.6093-.79687s-.25155-.55994-.6093-.75v-1.875c.35775-.19008.6093-.42503.6093-.75s-.25155-.60681-.6093-.79688v-1.78125l2.1093,1.21875c1.0656.61529 2.43165.22195 3.04695-.84375s.222-2.38471-.84375-3l-6.8907-3.98437 37.35945-21.5625zm-61.26555,12.89062 6.4686,3.75-6.4686,3.70313v-.75c.33735-.19005.5625-.43586.5625-.75s-.22515-.60682-.5625-.79688v-1.82812c.3387-.19008.5625-.48204.5625-.79688s-.2238-.60681-.5625-.79687v-1.73438zm8.8593,5.10938 1.03125.60937v8.25l-4.64055,2.71875-8.2032-4.73437 11.8125-6.84375zm52.40625.375v26.15625l-28.82805,16.64062v-1.40625c.33735-.19005.5625-.43585.5625-.75s-.22515-.60682-.5625-.79687v-1.82813c.33735-.19005.5625-.48273.5625-.79687s-.2238-.60681-.5625-.79688v-1.45312c.33735-.19005.5625-.43586.5625-.75s-.22515-.60682-.5625-.79688v-1.45312l.5625.32812c1.0656.61529 2.4024.28483 3-.75l.0468-.14055c.59745-1.03483.222-2.33784-.84375-2.95312l-11.57805-6.70313 37.64055-21.75zm-41.8125,5.76562 4.96875,2.85938v2.95312c-.3201.18959-.5157.49206-.5157.79688s.2061.51403.5157.70312v1.96875c-.3096.1891-.5157.40407-.5157.70313s.1956.60729.5157.79687v1.5c-.31125.18917-.5157.45005-.5157.75l-2.7186,1.54688-4.0782-2.34375v-10.92188l2.34375-1.3125zm-26.8125,3.23438 8.15625,4.73437-9.65625,5.57813v-1.07813c.33735-.19005.5625-.43585.5625-.75s-.22515-.60682-.5625-.79687v-1.82813c.3387-.19007.5625-.48204.5625-.79687s-.2238-.60681-.5625-.79688v-1.45312c.33735-.19005.5625-.48273.5625-.79688s-.22515-.55994-.5625-.75v-.375l1.5-.89062zm17.25,2.25v2.625l-2.25-1.3125 2.25-1.3125zm-21.28125.0937c.0899.1841.24975.34545.46875.46875v1.45312c-.3387.19007-.5625.48203-.5625.79688s.2238.6068.5625.79687v1.82813c-.33735.19005-.5625.48273-.5625.79687s.22515.55995.5625.75v1.875c-.33735.19006-.5625.43586-.5625.75l-46.03125,26.53125v-9.42187l46.125-26.625zm14.5782,3.79687 6.70305,3.84375v7.92188l-67.40625,38.90625v-15.65625l60.7032-35.01563zm15.9843,9.1875 11.2032,6.46875v2.625c-.35775.19007-.60945.47191-.60945.79688s.2517.55992.60945.75v1.45312c-.36045.19002-.60945.4705-.60945.79688 0,.32497.2517.6068.60945.79687v1.82813c-.35775.19006-.60945.4719-.60945.79687s.2517.55993.60945.75v1.875c-.35775.19007-.60945.42503-.60945.75 0,.0958.0562.1932.0937.28125l-12.75,7.35938v-26.15625l2.0625-1.17188zm42.09375,4.59375v42.32813c0,4.57124-3.67875,8.25-8.25,8.25h-35.90625v-25.07813l44.15625-25.5zm-51.375.75v26.15625l-41.01555,23.67188h-18.1407c-4.57125,0-8.25-3.67876-8.25-8.25v-2.67188l67.40625-38.90625zm0,28.92188v20.90625h-36.1875l36.1875-20.90625z" fill="#c5b798"/>
  <path d="m417.36 252.92c4.5712 0 8.25 3.6788 8.25 8.25v102.28c0 4.5712-3.6788 8.25-8.25 8.25h-102.28c-4.5712 0-8.25-3.6788-8.25-8.25v-102.28c0-4.5712 3.6788-8.25 8.25-8.25z" fill="none" stroke="#c5b798" stroke-width="1.5"/>
 </g>
 <g transform="translate(-22.299 -244.17)">
  <path d="m417.37 388.91c4.5712 0 8.25 3.6788 8.25 8.25v102.28c0 4.5712-3.6788 8.25-8.25 8.25h-102.28c-4.5712 0-8.25-3.6788-8.25-8.25v-102.28c0-4.5712 3.6788-8.25 8.25-8.25z" fill="#2a2a2a"/>
  <path transform="matrix(1.5 0 0 1.5 577.79 -950.59)" d="m-176.5 900.34c-1.2825 0.88962-2.1265 2.2827-2.2188 4l-3.5 65.188c-0.16342 3.0431 2.4569 5.6634 5.5 5.5l65.188-3.5c0.29941-0.0161 0.59411-0.0648 0.875-0.125v-3.0938h-61.156c-2.7492 0-4.9375-2.2195-4.9375-4.9688v-61.5c0-0.52757 0.0989-1.0238 0.25-1.5z" fill="url(#a)" filter="url(#b)"/>
  <path d="m417.32 388.91c4.5712 0 8.2969 3.6788 8.2969 8.25v102.28c0 4.5712-3.7256 8.25-8.2969 8.25h-102.28c-4.5712 0-8.25-3.6788-8.25-8.25v-102.28c0-4.5712 3.6788-8.25 8.25-8.25h102.28zm-51.141 17.203c-2.422-0.0913-4.8294 1.3484-6.7031 4.5938l-37.781 61.641c-3.5968 5.8699-1.8708 12.938 6.3281 12.938h76.406c8.1989 0 9.878-7.0676 6.2812-12.938l-37.781-61.641c-1.8737-3.2454-4.328-4.6851-6.75-4.5938zm0.5625 4.9219c0.40846 0.0864 0.97936 0.52381 1.9219 2.1562a4.9217 4.9217 0 0 0 0.0468 0.0468l37.781 61.688c1.1612 1.8951 1.1897 3.6363 0.9375 4.2656s-0.30743 1.1719-3 1.1719h-76.406c-2.6926 0-2.7428-0.58425-3-1.2188s-0.2659-2.3313 0.89063-4.2188l37.734-61.688a4.9217 4.9217 0 0 0 0.0468 -0.0468c1.2567-2.1767 1.9087-2.1712 2.2969-2.1562a4.9217 4.9217 0 0 0 0.375 0c0.097-5e-3 0.2388-0.0288 0.375 0zm-0.5625 24.797c-3.5468 3e-5 -5.1706 1.2562-4.875 3.75l2.0156 15.562c0.22169 1.6626 1.1598 2.4844 2.8594 2.4844 1.718 1e-5 2.6846-0.82178 2.9062-2.4844l2.0156-15.562c0.29558-2.4938-1.3565-3.75-4.9219-3.75zm0.14055 24.938c-1.2192 0-2.2142 0.33921-2.9531 1.0781s-1.0781 1.6956-1.0781 2.8594c1e-5 1.0714 0.3676 1.9997 1.125 2.8125s1.724 1.2188 2.9062 1.2188c1.2008 0 2.1673-0.33919 2.9062-1.0781s1.125-1.7339 1.125-2.9531c0-1.0899-0.36759-2.0366-1.125-2.8125s-1.7424-1.125-2.9062-1.125z" fill="#c5b798"/>
  <path d="m417.35 388.91c4.5712 0 8.25 3.6788 8.25 8.25v102.28c0 4.5712-3.6788 8.25-8.25 8.25h-102.28c-4.5712 0-8.25-3.6788-8.25-8.25v-102.28c0-4.5712 3.6788-8.25 8.25-8.25z" fill="none" stroke="#c5b798" stroke-width="1.5"/>
 </g>
 <g transform="translate(-22.299 -244.17)">
  <path d="m279.75 252.92c4.5712 0 8.25 3.6788 8.25 8.25v102.28c0 4.5712-3.6788 8.25-8.25 8.25h-102.28c-4.5712 0-8.25-3.6788-8.25-8.25v-102.28c0-4.5712 3.6788-8.25 8.25-8.25z" fill="#2a2a2a"/>
  <path transform="matrix(1.5 0 0 1.5 440.17 -1086.6)" d="m-176.5 900.34c-1.2825 0.88962-2.1265 2.2827-2.2188 4l-3.5 65.188c-0.16342 3.0431 2.4569 5.6634 5.5 5.5l65.188-3.5c0.29941-0.0161 0.59411-0.0648 0.875-0.125v-3.0938h-61.156c-2.7492 0-4.9375-2.2195-4.9375-4.9688v-61.5c0-0.52757 0.0989-1.0238 0.25-1.5z" fill="url(#a)" filter="url(#b)"/>
  <path d="m177.42381,252.9194c-4.38048,0-7.91345,3.38295-8.20313,7.6875h19.875v-3.42188c0-1.76281 1.42469-3.1875 3.1875-3.1875h14.25c1.76282,0 3.1875,1.42469 3.1875,3.1875v3.42188h78.23438c-.28968-4.30455-3.82265-7.6875-8.20313-7.6875h-102.32812zm-8.25,12.23437v98.29688c0,4.57124 3.67875,8.25 8.25,8.25h99.28125v-106.54688h-67.45313c-.26427.44288-.63824.80945-1.07812,1.07813v4.07812c-1.70781,1.0838-3.62173,1.83192-5.67188,2.25v-5.85937h-6.79687v1.3125c-1.27653-.24776-2.72385-.69212-4.07813-1.35938-.0882-.018-.1491-.0687-.23437-.0937-.52926-.15534-.98481-.46033-1.35938-.84375-.17416-.17827-.34021-.3471-.46875-.5625h-20.39062zm112.07812,0v106.45313c3.84009-.70962 6.75-4.10465 6.75-8.15625v-98.29688h-6.75zm-91.21875,2.0625c1.54864,1.14215 3.87345,1.8033 5.67188,2.15625v9.09375c-2.05016-.41804-3.96407-1.21305-5.67188-2.29687v-8.95313zm18.14063,4.64063v8.90625c-1.70639,1.07916-3.62467,1.8808-5.67188,2.29687v-9.14062c2.02624-.38313 3.94088-1.06974 5.67188-2.0625zm-18.14063,5.85937c1.731.99278 3.64565,1.7262 5.67188,2.10938v9.09375c-2.04722-.41606-3.96551-1.17084-5.67188-2.25v-8.95313zm18.14063,4.59375v8.90625c-1.3049.82524-2.70671,1.47418-4.21875,1.92188-.45603-.26138-.95455-.47021-1.45313-.65625v-8.0625c2.02877-.38243 3.93879-1.11657 5.67188-2.10938zm-18.14063,5.90625c1.73309.99281 3.64311,1.68008 5.67188,2.0625v2.20313c-2.34087.87164-4.25334,2.60412-5.34375,4.82812-.10756-.0648-.22208-.12044-.32813-.1875v-8.90625zm18.14063,4.54688v5.29687c-.60775-1.56128-1.58945-2.93496-2.85938-3.98437 .99954-.36165 1.94865-.7916 2.85938-1.3125zm-9.09375.42187c1.75099,0 3.39178.50312 4.73437,1.40625 .0917.0615.1923.12255.28125.1875 .0438.0319.0504.10786.0937.14056l.1875.14055c.1245.1005.25665.17385.375.28125 .0804.0729.15683.15847.23438.23437 .11175.1098.22267.21217.32812.32813l.23438.28125 .0468.0468c.0705.0854.1203.19305.1875.28125 .0135.0178.0333.0288.0468.0468 .0679.0908.17002.18765.23437.28125 .012.0166-.012.0303 0,.0468 .0645.0951.12705.1833.1875.28125 .0105.0174.0363.0294.0468.0468 .1308.21498.26355.429.375.65625 .009.0167-.007.0303 0,.0468 .0512.10635.0937.21922.14055.32812 .007.0171.0394.0295.0468.0468 .0462.10935.0992.21638.14055.32813 .006.0172-.007.0763 0,.0937 .0408.11175.0576.21412.0937.32812 .006.0171.0425.0296.0468.0468 .0358.11595.0627.21008.0937.32813 .003.0135-.005.0335 0,.0468 .0312.1215.0678.25155.0937.375 .11835.56476.1875,1.13268.1875,1.73437v20.0625c0,3.60056-2.2288,6.62274-5.39062,7.82813l-.28125.0937c-.15233.0523-.31247.14355-.46875.1875-.0376.0105-.0561-.0105-.0937,0-.0712.0189-.16238.0295-.23438.0468-.0135.003-.0333.0424-.0468.0468-.11745.0269-.25575.0248-.375.0468l-.375.0468c-.24601.034-.49753.0817-.75.0937-.144.006-.27592,0-.42187,0-.17096,0-.34731.0105-.51563,0-.10455-.006-.17775-.0363-.28125-.0468h-.0468c-.0554-.006-.13245.007-.1875,0-.087-.0105-.1482-.0335-.23437-.0468h-.0468c-.0558-.009-.0852.0105-.14055,0-.12585-.0219-.2511-.0663-.375-.0937l-.1875-.0468c-.1383-.0336-.23955-.0534-.375-.0937-.0276-.009-.0661-.0395-.0937-.0468-.0135-.003-.0333.005-.0468,0-3.40842-1.07076-5.85938-4.23674-5.85938-8.01563v-15.89062-4.17188c0-.18159-.0105-.33703 0-.51562 .003-.063.0425-.12495.0468-.1875 .003-.0453-.004-.0956 0-.14055 .0135-.141.0261-.28313.0468-.42188 .007-.0496-.007-.0912 0-.14055 .0319-.18975.0965-.37747.14055-.5625 .0294-.12315.059-.2541.0937-.375 .005-.0168-.005-.0303 0-.0468 .1266-.42988.32568-.82123.51563-1.21875 .001-.003-.00099-.0438 0-.0468 .10545-.22011.20452-.40062.32812-.60937 .0135-.024.0319-.0699.0468-.0937 .0894-.14775.18315-.28043.28125-.42188 .0395-.057.053-.13155.0937-.1875 .10725-.1467.2586-.28267.375-.42187 .0428-.0513.0498-.0903.0937-.14055 .14865-.16946.30707-.35876.46875-.51563 .0647-.0628.12075-.12675.1875-.1875 .1086-.0987.2613-.1884.375-.28125 .0944-.0772.18345-.11445.28125-.1875 .20561-.15339.38963-.3345.60938-.46875 .0105-.006.0363.008.0468,0l.14055-.0937c.0748-.0435.15802-.0525.23437-.0937 .0894-.0483.14295-.14235.23438-.1875 .0303-.015.0631.015.0937,0 1.10328-.52872 2.343-.84375 3.65625-.84375zm0,5.625c-1.4699,0-2.76539.77234-3.51563,1.92188-.17068.26154-.31087.54744-.42187.84375-.0231.0633-.0266.12285-.0468.1875-.0348.10905-.0678.21547-.0937.32812-.0381.16993-.0771.33873-.0937.51563-.003.0282.001.0652 0,.0937-.008.1038 0,.22253 0,.32812 0,.16271-.0182.3107 0,.46875 .012.0975.0288.18601.0468.28125 .007.0414.0379.0998.0468.14056 .018.0806.0242.15562.0468.23437 .0105.0376.0349.0565.0468.0937 .13635.42923.35145.85857.60937,1.21875 .76322,1.05903 1.97589,1.73438 3.375,1.73438 2.31416,0 4.21875-1.85772 4.21875-4.17188s-1.90696-4.21875-4.21875-4.21875zm0,17.20313c-2.31179,0-4.17188,1.90694-4.17188,4.21875s1.86009,4.17187 4.17188,4.17187 4.21875-1.85773 4.21875-4.17187-1.90697-4.21875-4.21875-4.21875zm3.28125,14.76562v7.96875c0,1.01573-.81237,1.82813-1.82813,1.82813h-.375c-4.53432.56542-8.0625,4.40583-8.0625,9.09375 0,5.07647 4.11103,9.1875 9.1875,9.1875s9.195-4.11107 9.1875-9.1875c0-1.68095.83787-3.41978 3.09375-3.1875s2.57813,2.56408 2.57813,3.1875c0,8.20045-6.65891,14.8125-14.85938,14.8125s-14.85937-6.61205-14.85937-14.8125c0-6.47514 4.15782-11.93679 9.9375-13.96875v-4.73438c.86326.24998 1.77412.42188 2.71875.42188 1.15156,0 2.2557-.24366 3.28125-.60938z" fill="#c5b798"/>
  <path d="m279.73 252.92c4.5712 0 8.25 3.6788 8.25 8.25v102.28c0 4.5712-3.6788 8.25-8.25 8.25h-102.28c-4.5712 0-8.25-3.6788-8.25-8.25v-102.28c0-4.5712 3.6788-8.25 8.25-8.25z" fill="none" stroke="#c5b798" stroke-width="1.5"/>
 </g>
 <g transform="translate(-22.299 -244.17)">
  <path d="m279.74 388.91c4.5712 0 8.25 3.6788 8.25 8.25v102.28c0 4.5712-3.6788 8.25-8.25 8.25h-102.28c-4.5712 0-8.25-3.6788-8.25-8.25v-102.28c0-4.5712 3.6788-8.25 8.25-8.25z" fill="#2a2a2a"/>
  <path transform="matrix(1.5 0 0 1.5 440.16 -950.59)" d="m-176.5 900.34c-1.2825 0.88962-2.1265 2.2827-2.2188 4l-3.5 65.188c-0.16342 3.0431 2.4569 5.6634 5.5 5.5l65.188-3.5c0.29941-0.0161 0.59411-0.0648 0.875-0.125v-3.0938h-61.156c-2.7492 0-4.9375-2.2195-4.9375-4.9688v-61.5c0-0.52757 0.0989-1.0238 0.25-1.5z" fill="url(#a)" filter="url(#b)"/>
  <path transform="translate(27.299 252.17)" d="m150.16 136.75c-4.5712 0-8.25 3.6788-8.25 8.25v102.28c0 4.5712 3.6788 8.25 8.25 8.25h102.28c4.1534 0 7.5664-3.0472 8.1562-7.0312-9.0119-7.3955-17.577-14.493-24.406-20.25-1.5526-1.3089-2.985-2.7211-4.5625-4-8.8084-7.1412-27.156-20.5-27.156-20.5-1.0889-0.87578-1.3006-2.4321-0.4375-3.5312l5.4688-7c0.86304-1.0991 2.4803-1.3216 3.5625-0.4375 0 0 17.415 14.763 26.5 21.656 1.5252 1.1573 3.1404 2.1847 4.6875 3.3125 4.8218 3.5149 10.502 7.7316 16.438 12.156v-84.906c0-4.5712-3.6788-8.25-8.25-8.25h-102.28zm61.531 30.062c3.5499-0.0108 7.6744 0.12743 12.562 0.375 5.2897 0.26792 4.5296 6.0322 0.21875 6.4062-11.259 0.97719-15.388 1.6253-21.469 3.0312-2.1898 0.50629-3.0267 2.1817-1.7812 3.3438l7.1562 6.6875c1.0226 0.95258 1.3005 2.4322 0.4375 3.5312l-7.75 9.875c-0.86305 1.0991-2.3633 1.1736-3.5312 0.40625l-4.0938-2.5938c-2.2134-1.4107-6.2174 0.27182-7.1562 0.6875-0.94955 0.42043-2.0944 1.413-2.9375 2.7188s-1.4317 3.3753-1.3125 3.6875c0.0918 0.24018 0.1515 1.0375 0.125 1.5h0.0312c0.34962 0.8186 0.21566 1.8103-0.375 2.5625l-2.8124 3.5938c-0.86306 1.0991-2.4322 1.3005-3.5312 0.4375l-8.4375-6.625c-1.0991-0.86304-1.3005-2.4321-0.4375-3.5312l2.8438-3.625c0.71057-0.82199 2.1102-0.67442 3.2812-0.78125l0.0625-0.0312c1.1489-0.1844 2.5072-1.0311 3.5625-2.375 1.4966-1.9059 1.658-3.9534 1.0312-5.2188-0.5698-1.1503-0.82782-2.7074-0.21875-3.875 1.7846-3.4211 4.7268-6.3839 7.875-9.8438 6.8824-7.5636 11.273-10.297 26.656-10.344z" fill="#c5b798"/>
  <path d="m279.23 388.91c4.5712 0 8.25 3.6788 8.25 8.25v102.28c0 4.5712-3.6788 8.25-8.25 8.25h-102.28c-4.5712 0-8.25-3.6788-8.25-8.25v-102.28c0-4.5712 3.6788-8.25 8.25-8.25z" fill="none" stroke="#c5b798" stroke-width=".3"/>
  <path d="m279.74 388.91c4.5712 0 8.25 3.6788 8.25 8.25v102.28c0 4.5712-3.6788 8.25-8.25 8.25h-102.28c-4.5712 0-8.25-3.6788-8.25-8.25v-102.28c0-4.5712 3.6788-8.25 8.25-8.25z" fill="none" stroke="#c5b798" stroke-width="1.5"/>
 </g>
 <g transform="translate(-22.299 -244.17)">
  <path d="m142.12 252.92c4.5712 0 8.25 3.6788 8.25 8.25v102.28c0 4.5712-3.6788 8.25-8.25 8.25h-102.28c-4.5712 0-8.25-3.6788-8.25-8.25v-102.28c0-4.5712 3.6788-8.25 8.25-8.25z" fill="#2a2a2a"/>
  <path transform="matrix(1.5 0 0 1.5 302.54 -1086.6)" d="m-176.5 900.34c-1.2825 0.88962-2.1265 2.2827-2.2188 4l-3.5 65.188c-0.16342 3.0431 2.4569 5.6634 5.5 5.5l65.188-3.5c0.29941-0.0161 0.59411-0.0648 0.875-0.125v-3.0938h-61.156c-2.7492 0-4.9375-2.2195-4.9375-4.9688v-61.5c0-0.52757 0.0989-1.0238 0.25-1.5z" fill="url(#a)" filter="url(#b)"/>
  <path d="m142.12188,252.9194c4.57124,0 8.25,3.67876 8.25,8.25v102.28125c0,4.57124-3.67876,8.25-8.25,8.25h-102.28125c-4.57123,0-8.25-3.67876-8.25-8.25v-102.28125c0-4.57124 3.67876-8.25 8.25-8.25h102.28125zm-52.54688,22.5c-.5528-.0346-1.18528.0446-1.78125.28125-.10395.0411-.1788.0954-.28125.14055-2.34634,1.1295-3.91399,2.8208-5.10938,4.45313-.0807.10484-.15432.22283-.23438.32812-13.57171,5.62412-23.31136,18.66179-24.09375,34.03125-.0339.66442-.0468,1.34286-.0468,2.01563 0,.46095.0363.83422.0468,1.17187 .012.3871.02805.7814.0468,1.17188-.16785.2746-.3265.54451-.46875.84375l-10.59375,10.125v.0468c-1.50372,1.5037-2.07555,3.43369-1.96875,5.25s.85579,3.51335 1.92188,4.78125c3.87714,4.61115 10.03521,8.61912 17.8125,9.70312 4.54239.63314 10.07166.9097 13.875-.1875l13.03125-4.59375 27.23438-7.6875-.0468-.0468c9.97531-3.02058 16.5-7.9959 16.5-13.64062 0-.29012-.058-.5612-.0937-.84375 .0277-.0641.0675-.1233.0937-.1875 .27439-.67044.46702-1.36136.60937-2.0625 .043-.21158.0171-.26765 0-.23438v-.0468c.073-.80024.1167-1.59997.14055-2.39063 .0105-.3375.0937-.71086.0937-1.17187 0-10.37448-4.1044-19.82373-10.73437-26.8125 .17589-.27603.31612-.68673.32812-1.17188s-.0754-1.03737-.32812-1.64062-.68735-1.2241-1.26563-1.78125c-.44449-.41489-.93682-.79599-1.5-1.07813-.90532-.45355-1.88353-.73198-2.8125-.89062-.73746-.12975-1.45647-.20993-2.15625-.23438-.26023-.009-.49506-.003-.75,0-1.13439-.67037-2.3113-1.27264-3.51562-1.82812 .13215-.20649.22615-.42649.23437-.70313 .0105-.35329-.0615-.76282-.28125-1.17187s-.57876-.81094-1.03125-1.17188-1.00473-.69838-1.64062-.89062-1.30224-.33428-1.96875-.42188c-.37032-.0423-.71435-.0334-1.07813-.0468-2.30704-.0865-4.49761.34281-6.46875,1.03125-.0462-.005-.0945.005-.14055,0-.65695-.0666-1.30262-.10694-1.96875-.14055s-1.34114-.0468-2.01563-.0468c-1.80879,0-3.36548.0438-5.10938.28125-.0345-.27793.0075-.51001-.09375-.84375-.02625-.1534-.10875-.31693-.1875-.46875-.15757-.30363-.41439-.62206-.79688-.84375s-.85344-.34035-1.40625-.375zm7.92188,4.03125c-6.49803,3.1754-11.84137,8.38034-15.14063,14.57812-.29862.56094-.31437,1.14027 0,1.3125s.74028-.14834 1.07813-.65625c4.32779-6.50665 11.04846-11.25251 18.32813-13.125 2.24514-.54696 4.45818-.8666 6.32812-.375 .41874.0989.82262.25559 1.21875.42188 .39105.16416.79163.25172 1.17188.32812 .0135.005.0336-.005.0468,0 .94467.36242 1.9068.73682 2.8125,1.17188 .10155.0487.18019.13785.28125.1875-4.32038.50064-8.46389,1.7314-12.375,3.375-7.87862,3.29886-14.93999,8.29336-20.57813,14.53125-.58209.64363-.87354,1.35146-.60938,1.59375s.93513-.0693 1.54688-.65625c5.92886-5.68883 13.05804-10.02633 20.71875-12.60938 4.43034-1.48705 9.03179-2.42025 13.54688-2.34375 1.16035.0259 2.24733.11611 3.1875.375 .58053.16528 1.13578.34385 1.59375.60938 .28489.16518.51504.31414.75.46875 .36907.22349.72618.4695 1.07812.70312 6.92037,6.38782 11.39733,15.38055 11.90625,25.40625 .0323.63409.0468,1.27977.0468,1.92188 0,.32304-.0333.68416-.0468,1.125-.0234.776-.0727,1.50874-.14055,2.25-.005.0567-.0181.183 0,.0937-.1185.58291-.28119,1.16155-.51562,1.73437-.1179.28792-.27879.6112-.42188.89063s-.29604.51924-.46875.79687c-.34579.55588-.71358,1.14575-1.17187,1.6875s-.98274,1.07451-1.54688,1.59375c-.56776.52258-1.17133,1.01393-1.82812,1.5s-1.3982.94698-2.15625,1.40625-1.54904.93857-2.39063,1.35938c-1.68498.84247-3.53274,1.57491-5.53125,2.25-.99883.33739-2.02638.64638-3.09375.9375s-2.1559.55888-3.28125.79687c-2.25333.47655-4.62364.87387-7.07812,1.125s-4.98596.375-7.59375.375c-1.30391,0-2.62083-.0332-3.89063-.0937s-2.52292-.15569-3.75-.28125c-2.45448-.25113-4.82478-.64845-7.07813-1.125s-4.37736-1.05958-6.375-1.73437c-1.99973-.67548-3.84804-1.4084-5.53125-2.25-.84161-.42081-1.63245-.90002-2.39063-1.35938-.75389-.45673-1.49131-.91413-2.15625-1.40625s-1.2657-.98233-1.82813-1.5c-.55881-.51434-1.08602-1.04895-1.54688-1.59375s-.82607-1.13162-1.17188-1.6875-.65941-1.12257-.89063-1.6875c-.23444-.57283-.44415-1.15146-.5625-1.73437 .01785.0882.0045-.0381 0-.0937-.003-.0397.0207.0657 0-.0468-.06345-.7194-.0708-1.45109-.09375-2.20313-.0135-.4407-.0468-.80189-.0468-1.125 0-14.38123 8.18196-26.85925 20.15625-33.04687-3.60879,5.34592-6.39099,11.18183-8.25,17.25-.16156.52737-.057,1.0065.28125,1.125s.72258-.20733.9375-.70313c2.99044-6.89826 7.21061-13.17209 12.32813-18.46875 .88857-.87184 1.69551-1.66161 2.53125-2.20312 2.98009-.76398 6.10813-1.17188 9.32813-1.17188h.32813zm-33.23438,39.14062c-.54492-.10274-.89063.16648-.89063.79688v3.60937c0,.84054.65946,1.97158 1.5,2.48438l7.73438,4.6875c.84054.5128 1.5.27804 1.5-.5625v-3.65625c0-.84054-.65946-1.9247-1.5-2.4375l-7.73438-4.6875c-.21013-.12825-.42774-.20013-.60938-.23438zm-5.95313,7.96875c1.10278,1.41606 1.96544,2.3944 3.32813,3.5625 4.26542,3.65636 9.61016,5.92457 15.09375,7.54688 4.83858,1.43148 9.83789,2.41071 14.85938,2.90625l-17.29688,5.8125c-3.61396.29318-7.4993-.1507-11.10938-1.21875-6.27501-2.12402-11.66513-4.91143-14.10938-10.26563l9.23438-8.34375z" fill="#c5b798"/>
  <path d="m142.12 252.92c4.5712 0 8.25 3.6788 8.25 8.25v102.28c0 4.5712-3.6788 8.25-8.25 8.25h-102.28c-4.5712 0-8.25-3.6788-8.25-8.25v-102.28c0-4.5712 3.6788-8.25 8.25-8.25z" fill="none" stroke="#c5b798" stroke-width="1.5"/>
 </g>
 <g transform="translate(-22.299 -244.17)">
  <path d="m142.12 388.91c4.5712 0 8.25 3.6788 8.25 8.25v102.28c0 4.5712-3.6788 8.25-8.25 8.25h-102.28c-4.5712 0-8.25-3.6788-8.25-8.25v-102.28c0-4.5712 3.6788-8.25 8.25-8.25z" fill="#2a2a2a"/>
  <path transform="matrix(1.5 0 0 1.5 302.54 -950.59)" d="m-176.5 900.34c-1.2825 0.88962-2.1265 2.2827-2.2188 4l-3.5 65.188c-0.16342 3.0431 2.4569 5.6634 5.5 5.5l65.188-3.5c0.29941-0.0161 0.59411-0.0648 0.875-0.125v-3.0938h-61.156c-2.7492 0-4.9375-2.2195-4.9375-4.9688v-61.5c0-0.52757 0.0989-1.0238 0.25-1.5z" fill="url(#a)" filter="url(#b)"/>
  <path transform="translate(27.299 252.17)" d="m12.531 136.75c-4.5712 0-8.25 3.6788-8.25 8.25v102.28c0 4.5712 3.6788 8.25 8.25 8.25h102.28c4.5712 0 8.25-3.6788 8.25-8.25v-46.375l-38.562-38.531-17.281 17.281 16.219 15.219-0.6875 0.71875-62.625-58.844h-7.5938zm9.0625 0 10.625 10 10-10h-20.625zm22.031 0-10.688 10.688 13.875 13 23.688-23.688h-26.875zm28.281 0-24.375 24.375 18.969 17.812 31.625-31.625-10.594-10.562h-15.625zm17.031 0 15 15 14.281-14.281c-1.0386-0.46962-2.1883-0.71875-3.4062-0.71875h-25.875zm30.219 1.2188-14.5 14.5 18.406 18.438v-25.906c0-2.9755-1.5573-5.5805-3.9062-7.0312zm-20.344 10.094-13.594 13.594 14.469 14.469 13.625-13.594-14.5-14.469zm15.188 15.188-13.594 13.594 22.656 22.656v-27.219l-9.0625-9.0312zm-30.25 33.594-2.5938 3.2812-1.375-1.9062 3.9688-1.375zm-5.9688 2.125 2 2.8125-9.125 11.594-6.8125-9.5625 13.938-4.8438zm-15.562 6 6.7812 9.5625-39.594 28.188-6.8125-9.5625 39.625-28.188zm-41.281 29.406 6.7812 9.5312-6.5625 4.6875s-3.8491 1.6262-6.7188-2.4062-0.09375-7.1562-0.09375-7.1562l6.5938-4.6562z" fill="#c5b798"/>
  <path d="m142.12 388.91c4.5712 0 8.25 3.6788 8.25 8.25v102.28c0 4.5712-3.6788 8.25-8.25 8.25h-102.28c-4.5712 0-8.25-3.6788-8.25-8.25v-102.28c0-4.5712 3.6788-8.25 8.25-8.25z" fill="none" stroke="#c5b798" stroke-width="1.5"/>
 </g>
</svg>
